<svg width="558" height="531" viewBox="0 0 558 531" fill="none" xmlns="http://www.w3.org/2000/svg">
<path opacity="0.3" fill-rule="evenodd" clip-rule="evenodd" d="M257.954 389.181L257.808 389.327L47.7098 180.496H0L257.808 438.348V530.854L257.954 531L558 233.596L515.762 180.569L257.954 438.275H257.881V438.13V389.109L257.954 389.181ZM257.954 209.632L378.979 89.8111H426.689L468.927 142.838L257.954 351.305L257.808 351.159V258.507L88.9269 89.8111H136.637L257.735 209.559L257.881 209.414V258.435L426.762 89.7383H379.052L257.954 209.486V209.632ZM334.26 0.364198L376.499 53.3914L257.954 170.299H257.881V170.153V77.5741L334.26 0.364198ZM257.954 28.4802L257.808 28.6259L228.773 0H181.21L257.808 77.6469V77.5741V28.4802H257.954ZM257.954 389.254L468.052 180.496L257.881 389.254H257.954Z" fill="white"/>
</svg>
