<svg width="383" height="341" viewBox="0 0 383 341" fill="none" xmlns="http://www.w3.org/2000/svg">
<path fill-rule="evenodd" clip-rule="evenodd" d="M191.72 249.926L191.627 250.02L57.8223 115.912H27.4375L191.627 281.5V340.906L191.72 341L382.809 150.012L355.909 115.959L191.72 281.454H191.673V281.36V249.88L191.72 249.926ZM191.72 134.622L268.797 57.6753H299.181L326.082 91.7285L191.72 225.603L191.627 225.509V166.009L84.0721 57.6753H114.457L191.58 134.576L191.673 134.482V165.963L299.228 57.6285H268.843L191.72 134.529V134.622ZM240.317 0.233882L267.217 34.2871L191.72 109.363H191.673V109.27V49.8169L240.317 0.233882ZM191.72 18.2896L191.627 18.3831L173.136 0H142.844L191.627 49.8636V49.8169V18.2896H191.72ZM191.72 249.973L325.524 115.912L191.673 249.973H191.72Z" fill="#BCBEC0"/>
<path fill-rule="evenodd" clip-rule="evenodd" d="M191.814 18.2921L191.907 18.3857L210.463 0H240.863L191.907 49.8705V109.285L191.814 109.378L116.049 34.2918L142.998 0.233914L191.767 49.8705H191.814V49.7769V18.2921ZM191.72 134.594L114.37 57.6364H83.8776L56.882 91.6943L191.72 225.587L191.814 225.493V165.985L191.907 166.079L299.796 57.6832H269.304L191.907 134.594L191.814 134.501V165.985L191.72 166.079L83.831 57.6832H114.324L191.72 134.594ZM26.9956 115.928L0 149.986L191.767 341L191.86 340.906V281.445L356.678 115.928H326.232L191.86 250.007L191.767 249.914V281.399L191.72 281.492L26.949 115.928H26.9956ZM191.767 18.3857L173.49 0.233914L191.814 18.3857H191.767Z" fill="#002E5E"/>
</svg>
