<svg width="210" height="183" viewBox="0 0 210 183" fill="none" xmlns="http://www.w3.org/2000/svg">
<path d="M164.343 29.9298L164.371 29.9028H164.319L164.345 29.8779H147.463L147.437 29.9028H147.489L105.066 70.5261L147.407 29.9319L104.611 70.9119L104.586 70.8871L104.534 70.9368L61.7085 29.8779H44.8263L44.8048 29.9028H44.8005L44.8027 29.9049L29.8789 48.048L104.534 119.486L104.56 119.461L104.611 119.511L179.267 48.0729L164.343 29.9298Z" fill="white"/>
<path fill-rule="evenodd" clip-rule="evenodd" d="M131.022 0.129556L131.148 0H114.67L104.612 10.0438L104.574 10.0056L104.587 9.99281H104.536V10.0183L94.6275 0.127432L104.423 9.93335L94.4763 0H77.9983L78.1222 0.127432H78.0991L63.4902 18.7347L104.559 59.7551H104.584L145.654 18.7347L131.022 0.129556Z" fill="white"/>
<path d="M194.427 63.515L194.452 63.4902H177.854L104.599 134.671L104.586 134.659L104.599 134.646L104.574 134.621V134.646L104.548 134.621V134.696L31.3417 63.4902H14.7182H14.6929C14.6929 63.4902 14.6886 63.5067 14.6781 63.5398L0 81.5697L104.546 182.976L104.559 182.963L104.597 183L209.143 81.5945L194.425 63.5129L194.427 63.515Z" fill="white"/>
</svg>
