<svg width="1001" height="225" viewBox="0 0 1001 225" fill="none" xmlns="http://www.w3.org/2000/svg">
<path fill-rule="evenodd" clip-rule="evenodd" d="M126.636 164.907L126.575 164.969L38.0928 76.4815H18L126.575 185.741V224.938L126.636 225L253 98.9815L235.211 76.5123L126.636 185.71H126.606V185.648V164.877L126.636 164.907ZM126.636 88.8272L177.606 38.0556H197.699L215.487 60.5247L126.636 148.858L126.575 148.796V109.537L55.4513 38.0556H75.5441L126.544 88.7963L126.606 88.7346V109.506L197.729 38.0247H177.637L126.636 88.7654V88.8272ZM158.773 0.154321L176.561 22.6235L126.636 72.1605H126.606V72.0988V32.8704L158.773 0.154321ZM126.636 12.0679L126.575 12.1296L114.347 0H94.3159L126.575 32.9012V32.8704V12.0679H126.636ZM126.636 164.938L215.119 76.4815L126.606 164.938H126.636Z" fill="#BCBEC0"/>
<path fill-rule="evenodd" clip-rule="evenodd" d="M126.916 12.0696L126.977 12.1313L139.255 0H159.369L126.977 32.9058V72.1087L126.916 72.1704L76.7848 22.6266L94.616 0.154342L126.885 32.9058H126.916V32.844V12.0696ZM126.854 88.8085L75.6743 38.0299H55.4986L37.6366 60.5021L126.854 148.848L126.916 148.786V109.521L126.977 109.583L198.363 38.0608H178.188L126.977 88.8085L126.916 88.7467V109.521L126.854 109.583L55.4677 38.0608H75.6434L126.854 88.8085ZM17.862 76.492L0 98.9642L126.885 225L126.946 224.938V185.704L236 76.492H215.855L126.946 164.961L126.885 164.899V185.674L126.854 185.735L17.8311 76.492H17.862ZM126.885 12.1313L114.792 0.154342L126.916 12.1313H126.885Z" fill="#002E5E"/>
<path fill-rule="evenodd" clip-rule="evenodd" d="M513.94 115.241L494.322 58.1398L474.705 115.241H513.971H513.94ZM490.837 48.0323H510.27L545.588 150.74L547.747 152.373H558.173V158.783H516.809V152.373H525.137L526.124 150.74L516.5 122.76L493.829 121.65L472.083 122.729L462.459 150.678L463.508 152.373H471.867V158.783H442.903V152.373H452.064L454.377 150.617L454.192 151.141L489.634 48.0323H490.775H490.837ZM608.328 55.3972V150.987L609.685 152.342H618.568V158.752H580.968V152.342H589.45L591.208 150.586V55.3972H591.147L564.959 53.6715L559.006 81.5902V82.5764L552.59 82.4223L553.546 48.0323H553.669H646.73H646.854L647.81 82.4223L641.425 82.5764V81.5902L635.441 53.6715V53.6099L608.42 55.3972H608.328ZM707.465 54.7809C738.218 54.7809 740.131 81.1897 740.131 103.654C740.131 126.118 738.033 152.188 707.465 152.188C676.589 152.188 674.8 125.595 674.8 103.13C674.8 80.6658 677.021 54.8117 707.465 54.8117V54.7809ZM758.577 96.8747V110.125C758.577 176.625 656.354 176.625 656.354 110.125V96.8747C656.354 30.3751 758.577 30.3751 758.577 96.8747ZM794.913 56.1676V99.9254H847.751V56.1676L845.993 54.4111H837.881V48.0015H875.481V54.4111H866.598L864.84 56.1676V150.617L866.598 152.373H875.481V158.783H837.881V152.373H845.993L847.751 150.617V107.999L821.409 105.904L794.944 107.999V150.617L796.702 152.373H805.585V158.783H767.984V152.373H776.097L777.855 150.617V56.1676L776.097 54.4111H767.984V48.0015H805.585V54.4111H796.702L794.944 56.1676H794.913ZM953.767 115.241L934.15 58.1398L914.532 115.241H953.798H953.767ZM930.664 48.0323H950.097L985.415 150.74L987.574 152.373H998V158.783H956.636V152.373H964.964L965.951 150.74L956.328 122.76L933.656 121.65L911.91 122.729L902.286 150.678L903.335 152.373H911.694V158.783H882.73V152.373H891.86L894.174 150.617L893.989 151.141L929.43 48.0323H930.572H930.664ZM359.959 56.1676V105.256L407.369 54.7809V54.4111H399.626V48.0015H429.824V54.4111H420.848L416.16 56.9996L416.468 56.6298L386.764 87.476L432.23 152.373H438.338V158.783H416.499H414.833L374.302 100.449L360.021 115.271V150.648L361.779 152.404H370.662V158.814H333V152.404H341.112L342.871 150.648V56.1984L341.112 54.4419H333V48.0323H370.601V54.4419H361.717L359.959 56.1984V56.1676Z" fill="#002E5E"/>
<path d="M986.207 214.577H991.939C992.956 214.577 993.758 214.486 994.374 214.274C994.99 214.091 995.484 213.726 995.792 213.24C996.1 212.723 996.254 212.024 996.254 211.143C996.254 209.775 995.884 208.863 995.175 208.316C994.466 207.799 993.388 207.526 991.909 207.526H986.176V214.577H986.207ZM981.523 218.407V194.304H986.207V203.696H993.912C996.161 203.696 997.918 204.334 999.151 205.672C1000.38 206.979 1001 208.802 1001 211.112C1001 212.663 1000.72 213.97 1000.17 215.064C999.613 216.158 998.812 216.979 997.764 217.556C996.716 218.134 995.453 218.407 993.973 218.407H981.492H981.523ZM966.453 218.407V198.286H959.334V194.274H978.441V198.255H971.199V218.407H966.484H966.453ZM953.201 209.745H957.793V211.204C957.793 213.058 957.454 214.517 956.776 215.611C956.098 216.705 955.019 217.465 953.54 217.951C952.061 218.407 950.057 218.65 947.53 218.65C945.465 218.65 943.77 218.468 942.507 218.073C941.213 217.708 940.195 217.04 939.456 216.128C938.716 215.216 938.161 213.939 937.853 212.298C937.545 210.687 937.391 208.559 937.391 205.915C937.391 203.027 937.699 200.748 938.285 199.046C938.87 197.343 939.887 196.097 941.367 195.307C942.846 194.517 944.911 194.091 947.53 194.091C949.534 194.091 951.198 194.274 952.492 194.608C953.786 194.942 954.773 195.429 955.481 196.097C956.19 196.766 956.714 197.587 957.022 198.59C957.33 199.593 957.546 200.839 957.669 202.359H953.108C953.016 201.082 952.831 200.17 952.492 199.562C952.184 198.985 951.629 198.59 950.889 198.377C950.15 198.194 949.01 198.073 947.499 198.073C945.989 198.073 944.818 198.255 944.109 198.65C943.37 199.046 942.877 199.805 942.599 200.93C942.322 202.055 942.168 203.878 942.168 206.31C942.168 208.073 942.229 209.502 942.384 210.565C942.538 211.629 942.815 212.48 943.185 213.058C943.586 213.635 944.109 214.061 944.787 214.274C945.465 214.486 946.359 214.608 947.499 214.608C948.979 214.608 950.119 214.517 950.951 214.334C951.752 214.152 952.338 213.818 952.677 213.331C953.016 212.845 953.201 212.146 953.201 211.234V209.714V209.745ZM917.976 206.371C917.976 208.346 918.037 209.897 918.191 210.93C918.345 211.994 918.592 212.784 918.993 213.331C919.393 213.878 919.948 214.243 920.626 214.395C921.335 214.577 922.352 214.669 923.677 214.669C925.002 214.669 926.05 214.577 926.759 214.395C927.468 214.213 928.022 213.848 928.423 213.301C928.793 212.754 929.07 211.964 929.193 210.9C929.347 209.866 929.409 208.347 929.409 206.34C929.409 204.334 929.317 202.754 929.163 201.66C929.008 200.565 928.731 199.775 928.331 199.228C927.93 198.711 927.375 198.346 926.697 198.194C926.019 198.043 925.002 197.951 923.677 197.951C922.352 197.951 921.273 198.043 920.595 198.194C919.917 198.346 919.362 198.711 918.993 199.258C918.592 199.805 918.345 200.596 918.191 201.69C918.037 202.754 917.976 204.334 917.976 206.371ZM913.23 205.854C913.23 203.483 913.384 201.538 913.723 200.049C914.062 198.529 914.586 197.343 915.356 196.462C916.126 195.581 917.174 194.942 918.499 194.577C919.825 194.213 921.55 194 923.677 194C925.803 194 927.529 194.182 928.854 194.577C930.18 194.942 931.227 195.581 932.029 196.462C932.799 197.343 933.354 198.529 933.693 200.049C934.032 201.538 934.186 203.483 934.186 205.854C934.186 208.59 934.032 210.778 933.693 212.419C933.354 214.061 932.83 215.337 932.029 216.249C931.258 217.161 930.21 217.799 928.885 218.134C927.56 218.468 925.834 218.65 923.677 218.65C921.396 218.65 919.578 218.468 918.253 218.134C916.928 217.769 915.911 217.161 915.171 216.28C914.431 215.398 913.908 214.122 913.63 212.48C913.353 210.839 913.199 208.65 913.199 205.854H913.23ZM909.254 194.304V218.407H904.539V208.073H893.198V218.407H888.513V194.304H893.198V204.122H904.539V194.304H909.254ZM869.961 194.304H865.276V204.061H863.057L855.877 194.304H850.761L859.575 206.006L849.867 218.407H855.137L863.057 208.043H865.276V218.407H869.961V208.043H872.149L880.162 218.407H885.37L875.724 206.006L884.507 194.304H879.36L872.118 204.061H869.93V194.304H869.961ZM835.044 198.134V204.395H846.539V207.86H835.044V214.608H847.217V218.407H830.421V194.304H847.124V198.134H835.044ZM812.515 198.225V204.76C812.515 206.492 812.454 207.951 812.33 209.198C812.207 210.413 811.961 211.477 811.652 212.328C811.344 213.21 810.913 213.909 810.358 214.456H820.898V198.225H812.515ZM825.613 194.274V214.456H827.832V224H823.702V218.407H807.646V224H803.516V214.456H805.396C806.321 213.574 806.968 212.419 807.338 210.991C807.708 209.562 807.893 207.495 807.893 204.79V194.243H825.582L825.613 194.274ZM794.949 210.353L790.696 197.83L786.505 210.353H794.949ZM795.997 213.818H785.395L783.885 218.438H779.016L787.152 194.334H794.086L802.345 218.438H797.569L795.997 213.818ZM776.273 194.334V218.438H771.558V208.103H760.217V218.438H755.532V194.334H760.217V204.152H771.558V194.334H776.273ZM733.128 214.122V218.347C733.128 219.41 733.035 220.231 732.819 220.839C732.604 221.447 732.234 221.872 731.648 222.146C731.094 222.419 730.231 222.571 729.121 222.571C728.905 222.571 728.751 222.571 728.69 222.541V220.657C729.398 220.657 729.892 220.505 730.2 220.292C730.508 220.079 730.662 219.654 730.662 218.985C730.662 218.924 730.662 218.833 730.662 218.742C730.662 218.62 730.662 218.529 730.662 218.498H729.059V214.182H733.158L733.128 214.122ZM710.969 214.638H716.701C717.718 214.638 718.52 214.547 719.136 214.334C719.752 214.152 720.245 213.787 720.554 213.301C720.862 212.784 721.016 212.085 721.016 211.204C721.016 209.836 720.646 208.924 719.937 208.377C719.228 207.86 718.15 207.587 716.671 207.587H710.938V214.638H710.969ZM706.285 218.468V194.365H710.969V203.757H718.674C720.923 203.757 722.68 204.395 723.913 205.733C725.146 207.04 725.762 208.863 725.762 211.173C725.762 212.723 725.485 214.03 724.93 215.125C724.375 216.219 723.574 217.039 722.557 217.617C721.509 218.195 720.245 218.468 718.766 218.468H706.285ZM691.215 218.468V198.346H684.096V194.334H703.203V198.316H695.961V218.468H691.246H691.215ZM677.963 209.805H682.555V211.264C682.555 213.119 682.216 214.577 681.538 215.672C680.86 216.766 679.781 217.526 678.302 218.012C676.823 218.468 674.819 218.711 672.292 218.711C670.227 218.711 668.532 218.529 667.269 218.134C665.974 217.769 664.957 217.1 664.218 216.188C663.478 215.277 662.923 214 662.615 212.359C662.307 210.748 662.153 208.62 662.153 205.976C662.153 203.088 662.461 200.808 663.047 199.106C663.632 197.404 664.649 196.158 666.129 195.368C667.608 194.577 669.673 194.152 672.292 194.152C674.295 194.152 675.96 194.334 677.254 194.669C678.548 195.003 679.535 195.489 680.243 196.158C680.952 196.827 681.476 197.647 681.784 198.65C682.092 199.653 682.308 200.9 682.431 202.419H677.87C677.778 201.143 677.593 200.231 677.254 199.623C676.946 199.046 676.391 198.65 675.651 198.438C674.912 198.255 673.772 198.134 672.261 198.134C670.751 198.134 669.58 198.316 668.871 198.711C668.132 199.106 667.639 199.866 667.361 200.991C667.084 202.115 666.93 203.939 666.93 206.371C666.93 208.134 666.991 209.562 667.146 210.626C667.3 211.69 667.577 212.541 667.947 213.119C668.348 213.696 668.871 214.122 669.549 214.334C670.227 214.547 671.121 214.669 672.261 214.669C673.741 214.669 674.881 214.577 675.713 214.395C676.514 214.213 677.1 213.878 677.439 213.392C677.778 212.906 677.963 212.207 677.963 211.295V209.775V209.805ZM642.738 206.432C642.738 208.407 642.799 209.957 642.953 210.991C643.107 212.055 643.354 212.845 643.755 213.392C644.155 213.939 644.71 214.304 645.388 214.456C646.097 214.638 647.114 214.729 648.439 214.729C649.764 214.729 650.812 214.638 651.521 214.456C652.23 214.274 652.784 213.909 653.185 213.362C653.555 212.815 653.832 212.024 653.955 210.961C654.109 209.927 654.171 208.407 654.171 206.401C654.171 204.395 654.079 202.815 653.925 201.72C653.77 200.626 653.493 199.836 653.092 199.289C652.692 198.772 652.137 198.407 651.459 198.255C650.781 198.103 649.764 198.012 648.439 198.012C647.114 198.012 646.066 198.103 645.357 198.255C644.679 198.407 644.124 198.772 643.755 199.319C643.354 199.866 643.107 200.657 642.953 201.751C642.799 202.815 642.738 204.395 642.738 206.432ZM637.961 205.915C637.961 203.544 638.115 201.599 638.454 200.109C638.793 198.59 639.317 197.404 640.087 196.523C640.858 195.641 641.905 195.003 643.231 194.638C644.556 194.274 646.282 194.061 648.408 194.061C650.535 194.061 652.26 194.243 653.586 194.638C654.911 195.003 655.959 195.641 656.76 196.523C657.53 197.404 658.085 198.59 658.424 200.109C658.763 201.599 658.917 203.544 658.917 205.915C658.917 208.65 658.763 210.839 658.424 212.48C658.085 214.122 657.561 215.398 656.76 216.31C655.989 217.222 654.942 217.86 653.616 218.195C652.291 218.529 650.565 218.711 648.408 218.711C646.128 218.711 644.309 218.529 642.984 218.195C641.659 217.83 640.642 217.222 639.902 216.34C639.163 215.459 638.639 214.182 638.361 212.541C638.084 210.9 637.93 208.711 637.93 205.915H637.961ZM633.985 194.365V218.468H629.27V208.134H617.929V218.468H613.244V194.365H617.929V204.182H629.27V194.365H633.985ZM594.045 194.365H589.36V202.571C589.36 204.395 589.607 205.854 590.131 206.979C590.655 208.103 591.518 208.924 592.75 209.441C593.983 209.988 595.678 210.261 597.804 210.261C600.424 210.261 602.581 209.836 604.276 209.015V218.498H608.961V194.395H604.276V205.185C603.814 205.489 603.321 205.733 602.797 205.915C602.273 206.097 601.626 206.219 600.825 206.28C600.054 206.34 599.068 206.401 597.928 206.401C596.88 206.401 596.079 206.28 595.524 206.036C594.969 205.793 594.569 205.429 594.353 204.912C594.137 204.395 594.045 203.696 594.045 202.784V194.395V194.365ZM569.421 206.432C569.421 208.407 569.482 209.957 569.637 210.991C569.791 212.055 570.037 212.845 570.438 213.392C570.838 213.939 571.393 214.304 572.071 214.456C572.78 214.638 573.797 214.729 575.122 214.729C576.447 214.729 577.495 214.638 578.204 214.456C578.913 214.274 579.468 213.909 579.868 213.362C580.238 212.815 580.515 212.024 580.639 210.961C580.793 209.927 580.854 208.407 580.854 206.401C580.854 204.395 580.762 202.815 580.608 201.72C580.454 200.626 580.176 199.836 579.776 199.289C579.375 198.772 578.82 198.407 578.142 198.255C577.464 198.103 576.447 198.012 575.122 198.012C573.797 198.012 572.749 198.103 572.04 198.255C571.362 198.407 570.808 198.772 570.438 199.319C570.037 199.866 569.791 200.657 569.637 201.751C569.482 202.815 569.421 204.395 569.421 206.432ZM564.644 205.915C564.644 203.544 564.798 201.599 565.137 200.109C565.476 198.59 566 197.404 566.77 196.523C567.541 195.641 568.589 195.003 569.914 194.638C571.239 194.274 572.965 194.061 575.091 194.061C577.218 194.061 578.944 194.243 580.269 194.638C581.594 195.003 582.642 195.641 583.443 196.523C584.214 197.404 584.768 198.59 585.107 200.109C585.446 201.599 585.6 203.544 585.6 205.915C585.6 208.65 585.446 210.839 585.107 212.48C584.768 214.122 584.244 215.398 583.443 216.31C582.673 217.222 581.625 217.86 580.3 218.195C578.975 218.529 577.249 218.711 575.091 218.711C572.811 218.711 570.993 218.529 569.667 218.195C568.342 217.83 567.325 217.222 566.586 216.34C565.846 215.459 565.322 214.182 565.045 212.541C564.767 210.9 564.613 208.711 564.613 205.915H564.644ZM550.067 218.468V198.346H542.948V194.334H562.055V198.316H554.813V218.468H550.098H550.067ZM521.961 214.152V218.377C521.961 219.441 521.868 220.261 521.652 220.869C521.437 221.477 521.067 221.903 520.481 222.176C519.927 222.45 519.064 222.602 517.954 222.602C517.739 222.602 517.584 222.602 517.523 222.571V220.687C518.232 220.687 518.725 220.535 519.033 220.322C519.341 220.109 519.495 219.684 519.495 219.015C519.495 218.954 519.495 218.863 519.495 218.772C519.495 218.65 519.495 218.559 519.495 218.529H517.893V214.213H521.992L521.961 214.152ZM497.984 206.432C497.984 208.407 498.046 209.957 498.2 210.991C498.354 212.055 498.6 212.845 499.001 213.392C499.402 213.939 499.956 214.304 500.634 214.456C501.343 214.638 502.36 214.729 503.685 214.729C505.011 214.729 506.058 214.638 506.767 214.456C507.476 214.274 508.031 213.909 508.431 213.362C508.801 212.815 509.079 212.024 509.202 210.961C509.356 209.927 509.418 208.407 509.418 206.401C509.418 204.395 509.325 202.815 509.171 201.72C509.017 200.626 508.74 199.836 508.339 199.289C507.938 198.772 507.384 198.407 506.706 198.255C506.028 198.103 505.011 198.012 503.685 198.012C502.36 198.012 501.282 198.103 500.604 198.255C499.926 198.407 499.371 198.772 499.001 199.319C498.6 199.866 498.354 200.657 498.2 201.751C498.046 202.815 497.984 204.395 497.984 206.432ZM493.207 205.915C493.207 203.544 493.361 201.599 493.7 200.109C494.039 198.59 494.563 197.404 495.334 196.523C496.104 195.641 497.152 195.003 498.477 194.638C499.802 194.274 501.528 194.061 503.655 194.061C505.781 194.061 507.507 194.243 508.832 194.638C510.157 195.003 511.205 195.641 512.006 196.523C512.777 197.404 513.332 198.59 513.671 200.109C514.01 201.599 514.164 203.544 514.164 205.915C514.164 208.65 514.01 210.839 513.671 212.48C513.332 214.122 512.808 215.398 512.006 216.31C511.236 217.222 510.188 217.86 508.863 218.195C507.538 218.529 505.812 218.711 503.655 218.711C501.374 218.711 499.556 218.529 498.231 218.195C496.905 217.83 495.888 217.222 495.149 216.34C494.409 215.459 493.885 214.182 493.608 212.541C493.33 210.9 493.176 208.711 493.176 205.915H493.207ZM474.901 214.638H480.849C481.928 214.638 482.791 214.517 483.469 214.334C484.147 214.122 484.64 213.757 484.979 213.271C485.318 212.754 485.472 212.085 485.472 211.204C485.472 210.322 485.349 209.684 485.102 209.198C484.855 208.711 484.455 208.377 483.931 208.195C483.407 208.012 482.667 207.921 481.712 207.921H474.932V214.669L474.901 214.638ZM474.901 204.426H480.849C481.681 204.426 482.328 204.395 482.821 204.304C483.315 204.213 483.715 204.061 484.023 203.848C484.332 203.605 484.578 203.27 484.701 202.845C484.855 202.419 484.917 201.812 484.917 201.112C484.917 199.988 484.671 199.228 484.177 198.833C483.684 198.407 482.821 198.225 481.62 198.225H474.901V204.456V204.426ZM470.248 218.468V194.365H482.791C485.04 194.365 486.735 194.851 487.876 195.824C489.016 196.796 489.601 198.316 489.601 200.413C489.601 201.872 489.324 203.088 488.769 204.03C488.215 205.003 487.321 205.611 486.119 205.945V206.097C487.444 206.31 488.43 206.888 489.139 207.83C489.817 208.772 490.187 210.018 490.187 211.538C490.187 212.602 490.064 213.574 489.756 214.426C489.478 215.277 489.047 216.006 488.461 216.614C487.876 217.222 487.167 217.678 486.273 218.012C485.41 218.346 484.362 218.498 483.191 218.498H470.248V218.468ZM455.332 218.468V198.346H448.213V194.334H467.32V198.316H460.078V218.468H455.362H455.332ZM442.08 209.805H446.672V211.264C446.672 213.119 446.333 214.577 445.655 215.672C444.977 216.766 443.898 217.526 442.419 218.012C440.939 218.468 438.936 218.711 436.409 218.711C434.344 218.711 432.649 218.529 431.386 218.134C430.091 217.769 429.074 217.1 428.335 216.188C427.595 215.277 427.04 214 426.732 212.359C426.424 210.748 426.27 208.62 426.27 205.976C426.27 203.088 426.578 200.808 427.164 199.106C427.749 197.404 428.766 196.158 430.245 195.368C431.725 194.577 433.79 194.152 436.44 194.152C438.443 194.152 440.107 194.334 441.402 194.669C442.696 195.003 443.682 195.489 444.391 196.158C445.1 196.827 445.624 197.647 445.932 198.65C446.24 199.653 446.456 200.9 446.579 202.419H442.018C441.926 201.143 441.741 200.231 441.402 199.623C441.094 199.046 440.539 198.65 439.799 198.438C439.06 198.255 437.919 198.134 436.409 198.134C434.899 198.134 433.728 198.316 433.019 198.711C432.279 199.106 431.786 199.866 431.509 200.991C431.232 202.115 431.078 203.939 431.078 206.371C431.078 208.134 431.139 209.562 431.293 210.626C431.447 211.69 431.725 212.541 432.095 213.119C432.495 213.696 433.019 214.122 433.697 214.334C434.375 214.547 435.269 214.669 436.409 214.669C437.888 214.669 439.029 214.577 439.861 214.395C440.662 214.213 441.248 213.878 441.587 213.392C441.926 212.906 442.111 212.207 442.111 211.295V209.775L442.08 209.805ZM410.768 198.194V204.456H422.264V207.921H410.768V214.669H422.942V218.468H406.146V194.365H422.849V198.194H410.768ZM387.531 194.365H382.847V202.571C382.847 204.395 383.094 205.854 383.617 206.979C384.141 208.103 385.004 208.924 386.237 209.441C387.47 209.957 389.165 210.261 391.291 210.261C393.911 210.261 396.068 209.836 397.763 209.015V218.498H402.447V194.395H397.763V205.185C397.301 205.489 396.808 205.733 396.284 205.915C395.76 206.097 395.113 206.219 394.311 206.28C393.541 206.34 392.555 206.401 391.414 206.401C390.367 206.401 389.565 206.28 389.011 206.036C388.456 205.793 388.055 205.429 387.84 204.912C387.624 204.395 387.531 203.696 387.531 202.784V194.395V194.365ZM372.831 210.383L368.578 197.86L364.387 210.383H372.831ZM373.879 213.848H363.277L361.767 218.468H356.898L365.034 194.365H371.968L380.227 218.468H375.451L373.879 213.848ZM338.684 194.365V204.122H340.872L349.039 194.365H354.772L344.879 206.097L355.789 218.468H349.841L340.842 208.134H338.654V218.468H334V194.365H338.684Z" fill="#231F20"/>
</svg>
