<svg width="475" height="108" viewBox="0 0 475 108" fill="none" xmlns="http://www.w3.org/2000/svg">
<path fill-rule="evenodd" clip-rule="evenodd" d="M60.2128 78.9524L60.1835 78.9816L18.0422 37.0306H8.47266L60.1835 88.8292V107.412L60.2128 107.442L120.396 47.6976L111.924 37.0452L60.2128 88.8146H60.1982V88.7853V78.9377L60.2128 78.9524ZM60.2128 42.8835L84.4879 18.8132H94.0575L102.53 29.4656L60.2128 71.3435L60.1835 71.3142V52.7018L26.3095 18.8132H35.8791L60.1689 42.8689L60.1982 42.8396V52.6872L94.0722 18.7986H84.5026L60.2128 42.8542V42.8835ZM75.5183 0.844646L83.9904 11.497L60.2128 34.982H60.1982V34.9528V16.355L75.5183 0.844646ZM60.2128 6.49275L60.1835 6.52201L54.3598 0.771484H44.8195L60.1835 16.3696V16.355V6.49275H60.2128ZM60.2128 78.967L102.354 37.0306L60.1982 78.967H60.2128Z" fill="#BCBEC0"/>
<path fill-rule="evenodd" clip-rule="evenodd" d="M60.1977 6.49275L60.2269 6.52202L66.0506 0.771484H75.5909L60.2269 16.3696V34.9528L60.1977 34.982L36.42 11.497L44.8776 0.844646L60.183 16.3696H60.1977V16.3404V6.49275ZM60.1684 42.8689L35.8933 18.7986H26.3237L17.8515 29.451L60.1684 71.3289L60.1977 71.2996V52.6872L60.2269 52.7165L94.0863 18.8132H84.5167L60.2269 42.8689L60.1977 42.8396V52.6872L60.1684 52.7165L26.309 18.8132H35.8786L60.1684 42.8689ZM8.47216 37.0306L0 47.6829L60.183 107.427L60.2123 107.398V88.8L111.938 37.0306H102.383L60.2123 78.967L60.183 78.9377V88.7853L60.1684 88.8146L8.45752 37.0306H8.47216ZM60.183 6.52202L54.4471 0.844646L60.1977 6.52202H60.183Z" fill="white"/>
<path fill-rule="evenodd" clip-rule="evenodd" d="M243.795 55.5773L234.488 28.4634L225.182 55.5773H243.809H243.795ZM232.835 23.664H242.053L258.807 72.4338L259.832 73.2093H264.777V76.2528H245.155V73.2093H249.106L249.574 72.4338L245.009 59.1476L234.254 58.6208L223.938 59.1329L219.373 72.4045L219.871 73.2093H223.836V76.2528H210.096V73.2093H214.442L215.539 72.3752L215.452 72.624L232.264 23.664H232.806H232.835ZM288.57 27.1611V72.5508L289.214 73.1947H293.428V76.2382H275.591V73.1947H279.615L280.449 72.3606V27.1611H280.419L267.997 26.3417L265.172 39.5987V40.0669L262.129 39.9938L262.583 23.664H262.641H306.787H306.846L307.299 39.9938L304.27 40.0669V39.5987L301.432 26.3417V26.3125L288.614 27.1611H288.57ZM335.598 26.8685C350.187 26.8685 351.094 39.4085 351.094 50.0755C351.094 60.7425 350.099 73.1215 335.598 73.1215C320.951 73.1215 320.102 60.4937 320.102 49.8267C320.102 39.1597 321.156 26.8831 335.598 26.8831V26.8685ZM359.844 46.8564V53.1483C359.844 84.725 311.352 84.725 311.352 53.1483V46.8564C311.352 15.2797 359.844 15.2797 359.844 46.8564ZM377.081 27.527V48.305H402.146V27.527L401.312 26.6929H397.464V23.6494H415.301V26.6929H411.087L410.253 27.527V72.3752L411.087 73.2093H415.301V76.2528H397.464V73.2093H401.312L402.146 72.3752V52.1387L389.65 51.1437L377.096 52.1387V72.3752L377.93 73.2093H382.144V76.2528H364.307V73.2093H368.155L368.989 72.3752V27.527L368.155 26.6929H364.307V23.6494H382.144V26.6929H377.93L377.096 27.527H377.081ZM452.438 55.5773L443.132 28.4634L433.825 55.5773H452.452H452.438ZM441.478 23.664H450.697L467.451 72.4338L468.475 73.2093H473.421V76.2528H453.799V73.2093H457.749L458.218 72.4338L453.652 59.1476L442.898 58.6208L432.582 59.1329L428.016 72.4045L428.514 73.2093H432.479V76.2528H418.739V73.2093H423.071L424.168 72.3752L424.08 72.624L440.893 23.664H441.434H441.478ZM170.75 27.527V50.8364L193.24 26.8685V26.6929H189.567V23.6494H203.892V26.6929H199.634L197.41 27.922L197.556 27.7464L183.465 42.3935L205.033 73.2093H207.931V76.2528H197.571H196.781L177.554 48.5537L170.779 55.5919V72.3899L171.613 73.2239H175.827V76.2675H157.961V73.2239H161.809L162.643 72.3899V27.5416L161.809 26.7075H157.961V23.664H175.798V26.7075H171.584L170.75 27.5416V27.527Z" fill="white"/>
<path d="M467.978 102.767H470.699C471.182 102.767 471.563 102.724 471.855 102.621C472.148 102.533 472.382 102.358 472.529 102.124C472.675 101.875 472.748 101.538 472.748 101.114C472.748 100.456 472.572 100.017 472.236 99.7532C471.899 99.5044 471.387 99.3727 470.685 99.3727H467.963V102.767H467.978ZM465.754 104.611V93.0076H467.978V97.529H471.636C472.704 97.529 473.538 97.8363 474.123 98.4802C474.709 99.1094 475.001 99.9873 475.001 101.099C475.001 101.846 474.87 102.475 474.606 103.002C474.343 103.528 473.962 103.923 473.465 104.201C472.967 104.479 472.368 104.611 471.665 104.611H465.739H465.754ZM458.598 104.611V94.9245H455.218V92.993H464.29V94.9099H460.852V104.611H458.613H458.598ZM452.307 100.441H454.487V101.143C454.487 102.036 454.326 102.738 454.004 103.265C453.682 103.792 453.17 104.158 452.467 104.392C451.765 104.611 450.814 104.728 449.614 104.728C448.634 104.728 447.829 104.64 447.229 104.45C446.615 104.275 446.132 103.953 445.78 103.514C445.429 103.075 445.166 102.46 445.02 101.67C444.873 100.894 444.8 99.8702 444.8 98.5972C444.8 97.2071 444.946 96.1097 445.224 95.2903C445.502 94.4709 445.985 93.871 446.688 93.4905C447.39 93.1101 448.37 92.9052 449.614 92.9052C450.565 92.9052 451.355 92.993 451.97 93.154C452.585 93.3149 453.053 93.549 453.389 93.8709C453.726 94.1929 453.975 94.5879 454.121 95.0708C454.267 95.5537 454.37 96.1536 454.428 96.8852H452.263C452.219 96.2707 452.131 95.8317 451.97 95.5391C451.824 95.261 451.56 95.0708 451.209 94.9684C450.858 94.8806 450.317 94.8221 449.6 94.8221C448.883 94.8221 448.327 94.9099 447.99 95.1001C447.639 95.2903 447.405 95.6561 447.273 96.1975C447.141 96.7389 447.068 97.6168 447.068 98.7874C447.068 99.6361 447.097 100.324 447.171 100.836C447.244 101.348 447.375 101.758 447.551 102.036C447.741 102.314 447.99 102.519 448.312 102.621C448.634 102.724 449.058 102.782 449.6 102.782C450.302 102.782 450.843 102.738 451.238 102.65C451.619 102.563 451.897 102.402 452.058 102.168C452.219 101.933 452.307 101.597 452.307 101.158V100.426V100.441ZM435.582 98.8167C435.582 99.7678 435.611 100.514 435.684 101.012C435.757 101.524 435.874 101.904 436.065 102.168C436.255 102.431 436.518 102.606 436.84 102.68C437.177 102.767 437.66 102.811 438.289 102.811C438.918 102.811 439.415 102.767 439.752 102.68C440.089 102.592 440.352 102.416 440.542 102.153C440.718 101.89 440.849 101.509 440.908 100.997C440.981 100.499 441.01 99.7678 441.01 98.8021C441.01 97.8363 440.966 97.0754 440.893 96.5487C440.82 96.0219 440.688 95.6415 440.498 95.3781C440.308 95.1294 440.045 94.9537 439.723 94.8806C439.401 94.8074 438.918 94.7635 438.289 94.7635C437.66 94.7635 437.147 94.8074 436.825 94.8806C436.504 94.9537 436.24 95.1293 436.065 95.3927C435.874 95.6561 435.757 96.0366 435.684 96.5633C435.611 97.0755 435.582 97.8363 435.582 98.8167ZM433.328 98.568C433.328 97.4266 433.401 96.4901 433.562 95.7732C433.723 95.0415 433.972 94.4709 434.338 94.0465C434.704 93.6222 435.201 93.3149 435.83 93.1393C436.46 92.9637 437.279 92.8613 438.289 92.8613C439.298 92.8613 440.118 92.9491 440.747 93.1393C441.376 93.3149 441.874 93.6222 442.254 94.0465C442.62 94.4709 442.883 95.0415 443.044 95.7732C443.205 96.4901 443.278 97.4266 443.278 98.568C443.278 99.8849 443.205 100.938 443.044 101.729C442.883 102.519 442.635 103.133 442.254 103.572C441.888 104.011 441.391 104.318 440.762 104.479C440.132 104.64 439.313 104.728 438.289 104.728C437.206 104.728 436.343 104.64 435.713 104.479C435.084 104.304 434.601 104.011 434.25 103.587C433.899 103.163 433.65 102.548 433.519 101.758C433.387 100.968 433.314 99.9141 433.314 98.568H433.328ZM431.441 93.0076V104.611H429.202V99.6361H423.817V104.611H421.593V93.0076H423.817V97.7339H429.202V93.0076H431.441ZM412.784 93.0076H410.56V97.7046H409.507L406.097 93.0076H403.668L407.853 98.6411L403.244 104.611H405.746L409.507 99.6215H410.56V104.611H412.784V99.6215H413.823L417.628 104.611H420.101L415.521 98.6411L419.691 93.0076H417.247L413.809 97.7046H412.77V93.0076H412.784ZM396.206 94.8513V97.8656H401.664V99.5337H396.206V102.782H401.986V104.611H394.011V93.0076H401.942V94.8513H396.206ZM385.51 94.8952V98.0412C385.51 98.8752 385.48 99.5776 385.422 100.178C385.363 100.763 385.246 101.275 385.1 101.685C384.954 102.109 384.749 102.446 384.485 102.709H389.49V94.8952H385.51ZM391.728 92.993V102.709H392.782V107.303H390.821V104.611H383.198V107.303H381.237V102.709H382.13C382.569 102.285 382.876 101.729 383.051 101.041C383.227 100.353 383.315 99.3581 383.315 98.0558V92.9784H391.714L391.728 92.993ZM377.169 100.734L375.15 94.705L373.16 100.734H377.169ZM377.667 102.402H372.633L371.916 104.626H369.604L373.467 93.0223H376.759L380.681 104.626H378.413L377.667 102.402ZM368.302 93.0223V104.626H366.063V99.6508H360.678V104.626H358.454V93.0223H360.678V97.7485H366.063V93.0223H368.302ZM347.817 102.548V104.582C347.817 105.094 347.773 105.489 347.67 105.782C347.568 106.074 347.392 106.279 347.114 106.411C346.851 106.543 346.441 106.616 345.914 106.616C345.812 106.616 345.739 106.616 345.71 106.601V105.694C346.046 105.694 346.28 105.621 346.427 105.518C346.573 105.416 346.646 105.211 346.646 104.889C346.646 104.86 346.646 104.816 346.646 104.772C346.646 104.714 346.646 104.67 346.646 104.655H345.885V102.577H347.831L347.817 102.548ZM337.296 102.797H340.018C340.5 102.797 340.881 102.753 341.174 102.65C341.466 102.563 341.7 102.387 341.847 102.153C341.993 101.904 342.066 101.568 342.066 101.143C342.066 100.485 341.891 100.046 341.554 99.7824C341.217 99.5337 340.705 99.402 340.003 99.402H337.281V102.797H337.296ZM335.072 104.64V93.0369H337.296V97.5583H340.954C342.022 97.5583 342.856 97.8656 343.442 98.5094C344.027 99.1386 344.319 100.017 344.319 101.129C344.319 101.875 344.188 102.504 343.924 103.031C343.661 103.558 343.281 103.953 342.798 104.231C342.3 104.509 341.7 104.64 340.998 104.64H335.072ZM327.917 104.64V94.9537H324.536V93.0223H333.609V94.9391H330.17V104.64H327.931H327.917ZM321.625 100.47H323.805V101.173C323.805 102.065 323.644 102.767 323.322 103.294C323 103.821 322.488 104.187 321.786 104.421C321.083 104.64 320.132 104.757 318.932 104.757C317.952 104.757 317.147 104.67 316.547 104.479C315.933 104.304 315.45 103.982 315.099 103.543C314.747 103.104 314.484 102.489 314.338 101.699C314.191 100.924 314.118 99.8995 314.118 98.6265C314.118 97.2364 314.265 96.139 314.543 95.3196C314.821 94.5001 315.303 93.9002 316.006 93.5198C316.708 93.1393 317.689 92.9345 318.932 92.9345C319.883 92.9345 320.674 93.0223 321.288 93.1832C321.903 93.3442 322.371 93.5783 322.707 93.9002C323.044 94.2221 323.293 94.6172 323.439 95.1001C323.585 95.583 323.688 96.1829 323.746 96.9145H321.581C321.537 96.2999 321.449 95.861 321.288 95.5683C321.142 95.2903 320.878 95.1001 320.527 94.9976C320.176 94.9099 319.635 94.8513 318.918 94.8513C318.201 94.8513 317.645 94.9391 317.308 95.1293C316.957 95.3196 316.723 95.6854 316.591 96.2268C316.459 96.7682 316.386 97.6461 316.386 98.8167C316.386 99.6654 316.416 100.353 316.489 100.865C316.562 101.377 316.694 101.787 316.869 102.065C317.059 102.343 317.308 102.548 317.63 102.65C317.952 102.753 318.376 102.811 318.918 102.811C319.62 102.811 320.161 102.767 320.556 102.68C320.937 102.592 321.215 102.431 321.376 102.197C321.537 101.963 321.625 101.626 321.625 101.187V100.456V100.47ZM304.9 98.846C304.9 99.7971 304.929 100.543 305.002 101.041C305.075 101.553 305.192 101.933 305.383 102.197C305.573 102.46 305.836 102.636 306.158 102.709C306.495 102.797 306.978 102.841 307.607 102.841C308.236 102.841 308.734 102.797 309.07 102.709C309.407 102.621 309.67 102.446 309.86 102.182C310.036 101.919 310.167 101.538 310.226 101.026C310.299 100.529 310.328 99.7971 310.328 98.8313C310.328 97.8656 310.285 97.1047 310.211 96.5779C310.138 96.0512 310.007 95.6707 309.816 95.4074C309.626 95.1586 309.363 94.983 309.041 94.9099C308.719 94.8367 308.236 94.7928 307.607 94.7928C306.978 94.7928 306.48 94.8367 306.144 94.9099C305.822 94.983 305.558 95.1586 305.383 95.422C305.192 95.6854 305.075 96.0658 305.002 96.5926C304.929 97.1047 304.9 97.8656 304.9 98.846ZM302.632 98.5972C302.632 97.4559 302.705 96.5194 302.866 95.8024C303.027 95.0708 303.276 94.5002 303.641 94.0758C304.007 93.6515 304.505 93.3442 305.134 93.1686C305.763 92.993 306.583 92.8906 307.592 92.8906C308.602 92.8906 309.421 92.9784 310.05 93.1686C310.68 93.3442 311.177 93.6515 311.558 94.0758C311.923 94.5002 312.187 95.0708 312.348 95.8024C312.509 96.5194 312.582 97.4559 312.582 98.5972C312.582 99.9141 312.509 100.968 312.348 101.758C312.187 102.548 311.938 103.163 311.558 103.601C311.192 104.04 310.694 104.348 310.065 104.509C309.436 104.67 308.616 104.757 307.592 104.757C306.509 104.757 305.646 104.67 305.017 104.509C304.388 104.333 303.905 104.04 303.554 103.616C303.202 103.192 302.954 102.577 302.822 101.787C302.69 100.997 302.617 99.9434 302.617 98.5972H302.632ZM300.744 93.0369V104.64H298.505V99.6654H293.121V104.64H290.897V93.0369H293.121V97.7632H298.505V93.0369H300.744ZM281.781 93.0369H279.557V96.9877C279.557 97.8656 279.674 98.5679 279.922 99.1093C280.171 99.6507 280.581 100.046 281.166 100.295C281.751 100.558 282.556 100.69 283.566 100.69C284.81 100.69 285.834 100.485 286.639 100.09V104.655H288.863V93.0515H286.639V98.246C286.419 98.3924 286.185 98.5094 285.936 98.5972C285.687 98.685 285.38 98.7435 285 98.7728C284.634 98.8021 284.166 98.8313 283.624 98.8313C283.127 98.8313 282.746 98.7728 282.483 98.6557C282.22 98.5387 282.029 98.3631 281.927 98.1144C281.825 97.8656 281.781 97.5291 281.781 97.0901V93.0515V93.0369ZM270.089 98.846C270.089 99.7971 270.119 100.543 270.192 101.041C270.265 101.553 270.382 101.933 270.572 102.197C270.762 102.46 271.026 102.636 271.348 102.709C271.684 102.797 272.167 102.841 272.796 102.841C273.426 102.841 273.923 102.797 274.26 102.709C274.596 102.621 274.86 102.446 275.05 102.182C275.225 101.919 275.357 101.538 275.416 101.026C275.489 100.529 275.518 99.7971 275.518 98.8313C275.518 97.8656 275.474 97.1047 275.401 96.5779C275.328 96.0512 275.196 95.6707 275.006 95.4074C274.816 95.1586 274.552 94.983 274.23 94.9099C273.908 94.8367 273.426 94.7928 272.796 94.7928C272.167 94.7928 271.67 94.8367 271.333 94.9099C271.011 94.983 270.748 95.1586 270.572 95.422C270.382 95.6854 270.265 96.0658 270.192 96.5926C270.119 97.1047 270.089 97.8656 270.089 98.846ZM267.821 98.5972C267.821 97.4559 267.894 96.5194 268.055 95.8024C268.216 95.0708 268.465 94.5002 268.831 94.0758C269.197 93.6515 269.694 93.3442 270.323 93.1686C270.953 92.993 271.772 92.8906 272.782 92.8906C273.791 92.8906 274.611 92.9784 275.24 93.1686C275.869 93.3442 276.367 93.6515 276.747 94.0758C277.113 94.5002 277.376 95.0708 277.537 95.8024C277.698 96.5194 277.771 97.4559 277.771 98.5972C277.771 99.9141 277.698 100.968 277.537 101.758C277.376 102.548 277.128 103.163 276.747 103.601C276.381 104.04 275.884 104.348 275.255 104.509C274.625 104.67 273.806 104.757 272.782 104.757C271.699 104.757 270.836 104.67 270.206 104.509C269.577 104.333 269.094 104.04 268.743 103.616C268.392 103.192 268.143 102.577 268.012 101.787C267.88 100.997 267.807 99.9434 267.807 98.5972H267.821ZM260.9 104.64V94.9537H257.52V93.0223H266.592V94.9391H263.154V104.64H260.915H260.9ZM247.555 102.563V104.596C247.555 105.109 247.512 105.504 247.409 105.796C247.307 106.089 247.131 106.294 246.853 106.426C246.59 106.557 246.18 106.63 245.653 106.63C245.551 106.63 245.478 106.63 245.448 106.616V105.709C245.785 105.709 246.019 105.635 246.165 105.533C246.312 105.431 246.385 105.226 246.385 104.904C246.385 104.875 246.385 104.831 246.385 104.787C246.385 104.728 246.385 104.684 246.385 104.67H245.624V102.592H247.57L247.555 102.563ZM236.171 98.846C236.171 99.7971 236.201 100.543 236.274 101.041C236.347 101.553 236.464 101.933 236.654 102.197C236.845 102.46 237.108 102.636 237.43 102.709C237.766 102.797 238.249 102.841 238.878 102.841C239.508 102.841 240.005 102.797 240.342 102.709C240.678 102.621 240.942 102.446 241.132 102.182C241.307 101.919 241.439 101.538 241.498 101.026C241.571 100.529 241.6 99.7971 241.6 98.8313C241.6 97.8656 241.556 97.1047 241.483 96.5779C241.41 96.0512 241.278 95.6707 241.088 95.4074C240.898 95.1586 240.634 94.983 240.312 94.9099C239.991 94.8367 239.508 94.7928 238.878 94.7928C238.249 94.7928 237.737 94.8367 237.415 94.9099C237.093 94.983 236.83 95.1586 236.654 95.422C236.464 95.6854 236.347 96.0658 236.274 96.5926C236.201 97.1047 236.171 97.8656 236.171 98.846ZM233.903 98.5972C233.903 97.4559 233.977 96.5194 234.138 95.8024C234.299 95.0708 234.547 94.5002 234.913 94.0758C235.279 93.6515 235.776 93.3442 236.406 93.1686C237.035 92.993 237.854 92.8906 238.864 92.8906C239.873 92.8906 240.693 92.9784 241.322 93.1686C241.951 93.3442 242.449 93.6515 242.829 94.0758C243.195 94.5002 243.458 95.0708 243.619 95.8024C243.78 96.5194 243.853 97.4559 243.853 98.5972C243.853 99.9141 243.78 100.968 243.619 101.758C243.458 102.548 243.21 103.163 242.829 103.601C242.463 104.04 241.966 104.348 241.337 104.509C240.708 104.67 239.888 104.757 238.864 104.757C237.781 104.757 236.918 104.67 236.289 104.509C235.659 104.333 235.176 104.04 234.825 103.616C234.474 103.192 234.225 102.577 234.094 101.787C233.962 100.997 233.889 99.9434 233.889 98.5972H233.903ZM225.212 102.797H228.036C228.548 102.797 228.958 102.738 229.28 102.65C229.602 102.548 229.836 102.372 229.997 102.138C230.158 101.89 230.231 101.568 230.231 101.143C230.231 100.719 230.172 100.412 230.055 100.178C229.938 99.9434 229.748 99.7824 229.499 99.6947C229.25 99.6069 228.899 99.563 228.446 99.563H225.226V102.811L225.212 102.797ZM225.212 97.8802H228.036C228.431 97.8802 228.738 97.8656 228.972 97.8217C229.206 97.7778 229.397 97.7046 229.543 97.6022C229.689 97.4851 229.806 97.3242 229.865 97.1193C229.938 96.9145 229.967 96.6218 229.967 96.2853C229.967 95.7439 229.85 95.3781 229.616 95.1879C229.382 94.983 228.972 94.8952 228.402 94.8952H225.212V97.8949V97.8802ZM223.002 104.64V93.0369H228.958C230.026 93.0369 230.831 93.271 231.372 93.7393C231.913 94.2075 232.191 94.9391 232.191 95.9488C232.191 96.6511 232.06 97.2364 231.796 97.69C231.533 98.1582 231.109 98.4509 230.538 98.6118V98.685C231.167 98.7874 231.635 99.0654 231.972 99.519C232.294 99.9727 232.469 100.573 232.469 101.304C232.469 101.816 232.411 102.285 232.265 102.694C232.133 103.104 231.928 103.455 231.65 103.748C231.372 104.04 231.035 104.26 230.611 104.421C230.201 104.582 229.704 104.655 229.148 104.655H223.002V104.64ZM215.92 104.64V94.9537H212.54V93.0223H221.612V94.9391H218.174V104.64H215.935H215.92ZM209.628 100.47H211.809V101.173C211.809 102.065 211.648 102.767 211.326 103.294C211.004 103.821 210.492 104.187 209.789 104.421C209.087 104.64 208.136 104.757 206.936 104.757C205.956 104.757 205.151 104.67 204.551 104.479C203.936 104.304 203.453 103.982 203.102 103.543C202.751 103.104 202.488 102.489 202.341 101.699C202.195 100.924 202.122 99.8995 202.122 98.6265C202.122 97.2364 202.268 96.139 202.546 95.3196C202.824 94.5001 203.307 93.9002 204.009 93.5198C204.712 93.1393 205.692 92.9345 206.951 92.9345C207.902 92.9345 208.692 93.0223 209.306 93.1832C209.921 93.3442 210.389 93.5783 210.726 93.9002C211.062 94.2221 211.311 94.6172 211.457 95.1001C211.604 95.583 211.706 96.1829 211.765 96.9145H209.599C209.555 96.2999 209.467 95.861 209.306 95.5683C209.16 95.2903 208.897 95.1001 208.546 94.9976C208.194 94.9099 207.653 94.8513 206.936 94.8513C206.219 94.8513 205.663 94.9391 205.326 95.1293C204.975 95.3196 204.741 95.6854 204.609 96.2268C204.478 96.7682 204.405 97.6461 204.405 98.8167C204.405 99.6654 204.434 100.353 204.507 100.865C204.58 101.377 204.712 101.787 204.887 102.065C205.078 102.343 205.326 102.548 205.648 102.65C205.97 102.753 206.395 102.811 206.936 102.811C207.638 102.811 208.18 102.767 208.575 102.68C208.955 102.592 209.233 102.431 209.394 102.197C209.555 101.963 209.643 101.626 209.643 101.187V100.456L209.628 100.47ZM194.762 94.8806V97.8949H200.22V99.563H194.762V102.811H200.542V104.64H192.567V93.0369H200.498V94.8806H194.762ZM183.729 93.0369H181.505V96.9877C181.505 97.8656 181.622 98.5679 181.871 99.1093C182.119 99.6507 182.529 100.046 183.114 100.295C183.7 100.543 184.504 100.69 185.514 100.69C186.758 100.69 187.782 100.485 188.587 100.09V104.655H190.811V93.0515H188.587V98.246C188.367 98.3924 188.133 98.5094 187.885 98.5972C187.636 98.685 187.329 98.7435 186.948 98.7728C186.582 98.8021 186.114 98.8313 185.573 98.8313C185.075 98.8313 184.695 98.7728 184.431 98.6557C184.168 98.5387 183.978 98.3631 183.875 98.1144C183.773 97.8656 183.729 97.5291 183.729 97.0901V93.0515V93.0369ZM176.749 100.748L174.73 94.7196L172.74 100.748H176.749ZM177.247 102.416H172.213L171.496 104.64H169.184L173.047 93.0369H176.34L180.261 104.64H177.993L177.247 102.416ZM160.537 93.0369V97.7339H161.576L165.453 93.0369H168.175L163.478 98.685L168.658 104.64H165.834L161.561 99.6654H160.522V104.64H158.312V93.0369H160.537Z" fill="white"/>
</svg>
