<svg width="82" height="66" viewBox="0 0 82 66" fill="none" xmlns="http://www.w3.org/2000/svg">
<path d="M62.2857 0H19.7143C17.9714 0 16.3 0.695355 15.0676 1.93309C13.8352 3.17084 13.1429 4.84957 13.1429 6.6V59.4C13.1429 61.1504 13.8352 62.8292 15.0676 64.0669C16.3 65.3046 17.9714 66 19.7143 66H62.2857C64.0286 66 65.7 65.3046 66.9324 64.0669C68.1648 62.8292 68.8571 61.1504 68.8571 59.4V6.6C68.8571 4.84957 68.1648 3.17084 66.9324 1.93309C65.7 0.695355 64.0286 0 62.2857 0ZM62.2857 59.4H19.7143V6.6H62.2857V59.4ZM82 3.3V62.7C82 63.5752 81.6538 64.4146 81.0376 65.0335C80.4215 65.6523 79.5857 66 78.7143 66C77.8429 66 77.0071 65.6523 76.3909 65.0335C75.7747 64.4146 75.4286 63.5752 75.4286 62.7V3.3C75.4286 2.42479 75.7747 1.58542 76.3909 0.966548C77.0071 0.347678 77.8429 0 78.7143 0C79.5857 0 80.4215 0.347678 81.0376 0.966548C81.6538 1.58542 82 2.42479 82 3.3ZM6.57143 3.3V62.7C6.57143 63.5752 6.22526 64.4146 5.60907 65.0335C4.99287 65.6523 4.15714 66 3.28571 66C2.41429 66 1.57855 65.6523 0.962363 65.0335C0.346172 64.4146 0 63.5752 0 62.7V3.3C0 2.42479 0.346172 1.58542 0.962363 0.966548C1.57855 0.347678 2.41429 0 3.28571 0C4.15714 0 4.99287 0.347678 5.60907 0.966548C6.22526 1.58542 6.57143 2.42479 6.57143 3.3Z" fill="#002E5E"/>
</svg>
