<svg width="72" height="77" viewBox="0 0 72 77" fill="none" xmlns="http://www.w3.org/2000/svg">
<path d="M69.12 17.2369L38.6585 0.681026C37.8446 0.234317 36.9299 0 36 0C35.0701 0 34.1554 0.234317 33.3415 0.681026L2.88 17.2438C2.01008 17.7166 1.2839 18.4127 0.777295 19.2595C0.270693 20.1062 0.00225089 21.0726 0 22.0576V54.9424C0.00225089 55.9274 0.270693 56.8938 0.777295 57.7405C1.2839 58.5873 2.01008 59.2834 2.88 59.7562L33.3415 76.319C34.1554 76.7657 35.0701 77 36 77C36.9299 77 37.8446 76.7657 38.6585 76.319L69.12 59.7562C69.9899 59.2834 70.7161 58.5873 71.2227 57.7405C71.7293 56.8938 71.9977 55.9274 72 54.9424V22.061C71.9996 21.0743 71.732 20.1058 71.2253 19.257C70.7187 18.4083 69.9915 17.7106 69.12 17.2369ZM36 5.49479L63.81 20.6238L36 35.7527L8.19 20.6238L36 5.49479ZM5.53846 25.4375L33.2308 40.4908V69.9889L5.53846 54.9459V25.4375ZM38.7692 69.9889V40.5046L66.4615 25.4375V54.9321L38.7692 69.9889Z" fill="#002E5E"/>
</svg>
