<svg width="66" height="69" viewBox="0 0 66 69" fill="none" xmlns="http://www.w3.org/2000/svg">
<path d="M60.5 0H5.5C4.04131 0 2.64236 0.581578 1.61091 1.6168C0.579462 2.65201 0 4.05607 0 5.52009V25.7995C0 56.7154 26.0631 66.9724 31.2812 68.7147C32.3957 69.0951 33.6043 69.0951 34.7188 68.7147C39.9437 66.9724 66 56.7154 66 25.7995V5.52009C66 4.05607 65.4205 2.65201 64.3891 1.6168C63.3576 0.581578 61.9587 0 60.5 0ZM60.5 25.8029C60.5 52.8583 37.6922 61.8974 33 63.4706C28.3491 61.9147 5.5 52.8824 5.5 25.8029V5.52009H60.5V25.8029ZM17.3044 35.0732C16.7884 34.5553 16.4985 33.8529 16.4985 33.1205C16.4985 32.3881 16.7884 31.6857 17.3044 31.1678C17.8204 30.6499 18.5202 30.3589 19.25 30.3589C19.9798 30.3589 20.6796 30.6499 21.1956 31.1678L27.5 37.4952L44.8044 20.1276C45.0599 19.8712 45.3632 19.6678 45.697 19.529C46.0309 19.3902 46.3887 19.3188 46.75 19.3188C47.1113 19.3188 47.4691 19.3902 47.803 19.529C48.1368 19.6678 48.4401 19.8712 48.6956 20.1276C48.9511 20.384 49.1538 20.6885 49.2921 21.0235C49.4304 21.3586 49.5015 21.7177 49.5015 22.0803C49.5015 22.443 49.4304 22.8021 49.2921 23.1372C49.1538 23.4722 48.9511 23.7766 48.6956 24.0331L29.4456 43.3534C29.1902 43.61 28.8869 43.8136 28.5531 43.9525C28.2192 44.0914 27.8614 44.1629 27.5 44.1629C27.1386 44.1629 26.7808 44.0914 26.4469 43.9525C26.1131 43.8136 25.8098 43.61 25.5544 43.3534L17.3044 35.0732Z" fill="#002E5E"/>
</svg>
