<svg width="74" height="74" viewBox="0 0 74 74" fill="none" xmlns="http://www.w3.org/2000/svg">
<path d="M54.5981 25.5685C54.8848 25.8549 55.1122 26.195 55.2674 26.5693C55.4226 26.9436 55.5024 27.3448 55.5024 27.75C55.5024 28.1552 55.4226 28.5564 55.2674 28.9307C55.1122 29.305 54.8848 29.6451 54.5981 29.9315L33.0148 51.5148C32.7284 51.8015 32.3884 52.0289 32.0141 52.1841C31.6398 52.3392 31.2385 52.4191 30.8333 52.4191C30.4281 52.4191 30.0269 52.3392 29.6526 52.1841C29.2783 52.0289 28.9382 51.8015 28.6519 51.5148L19.4019 42.2648C18.8233 41.6862 18.4983 40.9015 18.4983 40.0833C18.4983 39.2651 18.8233 38.4804 19.4019 37.9019C19.9804 37.3233 20.7651 36.9983 21.5833 36.9983C22.4015 36.9983 23.1862 37.3233 23.7648 37.9019L30.8333 44.9743L50.2352 25.5685C50.5216 25.2819 50.8616 25.0544 51.2359 24.8993C51.6102 24.7441 52.0115 24.6642 52.4167 24.6642C52.8219 24.6642 53.2231 24.7441 53.5974 24.8993C53.9717 25.0544 54.3118 25.2819 54.5981 25.5685ZM74 6.16667V67.8333C74 69.4688 73.3503 71.0373 72.1938 72.1938C71.0373 73.3503 69.4688 74 67.8333 74H6.16667C4.53116 74 2.96265 73.3503 1.80617 72.1938C0.6497 71.0373 0 69.4688 0 67.8333V6.16667C0 4.53116 0.6497 2.96265 1.80617 1.80617C2.96265 0.6497 4.53116 0 6.16667 0H67.8333C69.4688 0 71.0373 0.6497 72.1938 1.80617C73.3503 2.96265 74 4.53116 74 6.16667ZM67.8333 67.8333V6.16667H6.16667V67.8333H67.8333Z" fill="#002E5E"/>
</svg>
