<svg width="84" height="90" viewBox="0 0 84 90" fill="none" xmlns="http://www.w3.org/2000/svg">
<path d="M71.8399 12.3187C67.9751 8.435 63.3783 5.34783 58.3127 3.234C53.247 1.12017 47.812 0.0211915 42.3189 0H41.9998C30.8608 0 20.178 4.40241 12.3015 12.2388C4.42497 20.0751 0 30.7035 0 41.7857V64.2857C0 66.8432 1.02115 69.2959 2.8388 71.1042C4.65646 72.9126 7.12172 73.9286 9.69227 73.9286H16.1538C18.7243 73.9286 21.1896 72.9126 23.0073 71.1042C24.8249 69.2959 25.8461 66.8432 25.8461 64.2857V48.2143C25.8461 45.6568 24.8249 43.2041 23.0073 41.3958C21.1896 39.5874 18.7243 38.5714 16.1538 38.5714H6.6069C7.22996 31.8694 9.76026 25.4829 13.9012 20.1604C18.0422 14.838 23.6223 10.8001 29.9875 8.52013C36.3527 6.24013 43.2392 5.81245 49.8399 7.28722C56.4407 8.76198 62.4822 12.0781 67.2563 16.8469C73.0914 22.682 76.6806 30.3712 77.3968 38.5714H67.8459C65.2754 38.5714 62.8101 39.5874 60.9924 41.3958C59.1748 43.2041 58.1536 45.6568 58.1536 48.2143V64.2857C58.1536 66.8432 59.1748 69.2959 60.9924 71.1042C62.8101 72.9126 65.2754 73.9286 67.8459 73.9286H77.5382C77.5382 76.486 76.517 78.9387 74.6994 80.7471C72.8817 82.5555 70.4165 83.5714 67.8459 83.5714H45.2306C44.3738 83.5714 43.552 83.9101 42.9461 84.5129C42.3402 85.1157 41.9998 85.9332 41.9998 86.7857C41.9998 87.6382 42.3402 88.4558 42.9461 89.0586C43.552 89.6614 44.3738 90 45.2306 90H67.8459C72.1302 90 76.2389 88.3068 79.2684 85.2928C82.2978 82.2788 83.9997 78.191 83.9997 73.9286V41.7857C84.0207 36.3197 82.9575 30.9033 80.8709 25.8468C78.7843 20.7904 75.7154 16.1932 71.8399 12.3187ZM16.1538 45C17.0106 45 17.8324 45.3386 18.4383 45.9414C19.0442 46.5442 19.3845 47.3618 19.3845 48.2143V64.2857C19.3845 65.1382 19.0442 65.9558 18.4383 66.5586C17.8324 67.1614 17.0106 67.5 16.1538 67.5H9.69227C8.83542 67.5 8.01367 67.1614 7.40778 66.5586C6.8019 65.9558 6.46151 65.1382 6.46151 64.2857V45H16.1538ZM67.8459 67.5C66.9891 67.5 66.1673 67.1614 65.5614 66.5586C64.9555 65.9558 64.6152 65.1382 64.6152 64.2857V48.2143C64.6152 47.3618 64.9555 46.5442 65.5614 45.9414C66.1673 45.3386 66.9891 45 67.8459 45H77.5382V67.5H67.8459Z" fill="#002E5E"/>
</svg>
