<svg width="95" height="95" viewBox="0 0 95 95" fill="none" xmlns="http://www.w3.org/2000/svg">
<path d="M93.0121 24.3305L70.6674 1.98808C70.0373 1.35779 69.2892 0.857809 68.4659 0.516691C67.6426 0.175573 66.7601 0 65.869 0C64.9778 0 64.0953 0.175573 63.272 0.516691C62.4487 0.857809 61.7006 1.35779 61.0705 1.98808L1.9879 61.0717C1.35767 61.7019 0.857733 62.45 0.516645 63.2734C0.175557 64.0968 0 64.9793 0 65.8706C0 66.7619 0.175557 67.6444 0.516645 68.4678C0.857733 69.2912 1.35767 70.0393 1.9879 70.6695L24.3326 93.0119C24.9627 93.6422 25.7108 94.1422 26.5341 94.4833C27.3574 94.8244 28.2399 95 29.131 95C30.0222 95 30.9047 94.8244 31.728 94.4833C32.5513 94.1422 33.2994 93.6422 33.9295 93.0119L93.0121 33.9283C93.6423 33.2981 94.1423 32.55 94.4834 31.7266C94.8244 30.9032 95 30.0207 95 29.1294C95 28.2381 94.8244 27.3556 94.4834 26.5322C94.1423 25.7088 93.6423 24.9607 93.0121 24.3305ZM29.1289 88.2152L6.78847 65.8685L20.359 52.2968L31.5292 63.4722C31.8444 63.7875 32.2186 64.0375 32.6305 64.2081C33.0423 64.3787 33.4837 64.4665 33.9295 64.4665C34.3753 64.4665 34.8167 64.3787 35.2285 64.2081C35.6404 64.0375 36.0146 63.7875 36.3298 63.4722C36.645 63.157 36.895 62.7827 37.0656 62.3709C37.2362 61.959 37.324 61.5175 37.324 61.0717C37.324 60.6259 37.2362 60.1845 37.0656 59.7726C36.895 59.3607 36.645 58.9865 36.3298 58.6712L25.1553 47.5L33.9295 38.725L45.0997 49.9005C45.7363 50.5372 46.5997 50.8948 47.5 50.8948C48.4003 50.8948 49.2637 50.5372 49.9003 49.9005C50.5369 49.2638 50.8945 48.4004 50.8945 47.5C50.8945 46.5996 50.5369 45.7361 49.9003 45.0995L38.7258 33.9283L47.5 25.1533L58.6702 36.3288C58.9854 36.644 59.3596 36.8941 59.7715 37.0647C60.1833 37.2353 60.6247 37.3231 61.0705 37.3231C61.5163 37.3231 61.9577 37.2353 62.3695 37.0647C62.7814 36.8941 63.1556 36.644 63.4708 36.3288C63.786 36.0135 64.036 35.6393 64.2066 35.2274C64.3772 34.8155 64.465 34.3741 64.465 33.9283C64.465 33.4825 64.3772 33.041 64.2066 32.6291C64.036 32.2173 63.786 31.843 63.4708 31.5278L52.2963 20.3566L65.8668 6.78484L88.2115 29.1315L29.1289 88.2152Z" fill="#002E5E"/>
</svg>
