<svg width="98" height="103" viewBox="0 0 98 103" fill="none" xmlns="http://www.w3.org/2000/svg">
<path d="M97.43 71.7323C97.9275 72.5754 98.0627 73.5767 97.8058 74.517C97.549 75.4572 96.9211 76.2598 96.0597 76.749L50.8551 102.499C50.2791 102.827 49.6243 103 48.9575 103C48.2907 103 47.6358 102.827 47.0598 102.499L1.85527 76.749C1.00624 76.2508 0.392329 75.446 0.146444 74.509C-0.0994402 73.572 0.0424937 72.5782 0.541515 71.7426C1.04054 70.9071 1.85649 70.2971 2.81271 70.0447C3.76892 69.7923 4.78846 69.9179 5.65057 70.3942L48.9716 95.0638L92.2926 70.3942C93.1561 69.9083 94.1814 69.7764 95.1443 70.0271C96.1071 70.2779 96.929 70.8911 97.43 71.7323ZM92.2926 48.3226L48.9716 72.9922L5.65057 48.3226C4.79283 47.9056 3.80459 47.8234 2.88699 48.0928C1.9694 48.3622 1.1914 48.9629 0.711373 49.7727C0.231342 50.5825 0.0853495 51.5405 0.30311 52.4516C0.520871 53.3628 1.08602 54.1587 1.88352 54.6774L47.0881 80.4276C47.6641 80.7556 48.3189 80.9284 48.9857 80.9284C49.6525 80.9284 50.3074 80.7556 50.8834 80.4276L96.0879 54.6774C96.5221 54.4375 96.9032 54.1158 97.209 53.731C97.5148 53.3461 97.7394 52.9058 97.8695 52.4355C97.9997 51.9652 98.0329 51.4744 97.9672 50.9915C97.9016 50.5086 97.7383 50.0433 97.487 49.6225C97.2357 49.2016 96.9013 48.8338 96.5032 48.5402C96.1051 48.2466 95.6513 48.0332 95.1681 47.9122C94.6848 47.7913 94.1818 47.7653 93.6882 47.8358C93.1946 47.9062 92.7202 48.0717 92.2926 48.3226ZM0 29.4284C0.0015023 28.7841 0.176275 28.1515 0.506828 27.5939C0.83738 27.0362 1.31212 26.5732 1.88352 26.251L47.0881 0.500843C47.6641 0.172833 48.3189 0 48.9857 0C49.6525 0 50.3074 0.172833 50.8834 0.500843L96.0879 26.251C96.6566 26.575 97.1284 27.0388 97.4563 27.5963C97.7842 28.1538 97.9567 28.7855 97.9567 29.4284C97.9567 30.0713 97.7842 30.703 97.4563 31.2605C97.1284 31.818 96.6566 32.2818 96.0879 32.6058L50.8834 58.356C50.3074 58.684 49.6525 58.8568 48.9857 58.8568C48.3189 58.8568 47.6641 58.684 47.0881 58.356L1.88352 32.6058C1.31212 32.2837 0.83738 31.8206 0.506828 31.263C0.176275 30.7053 0.0015023 30.0727 0 29.4284ZM11.2446 29.4284L48.9716 50.9206L86.6986 29.4284L48.9716 7.93621L11.2446 29.4284Z" fill="#002E5E"/>
</svg>
