<svg width="83" height="81" viewBox="0 0 83 81" fill="none" xmlns="http://www.w3.org/2000/svg">
<path d="M82.0263 13.9098L68.7467 0.950219C68.4384 0.648984 68.0723 0.410012 67.6692 0.246967C67.2662 0.0839212 66.8342 0 66.3979 0C65.9616 0 65.5296 0.0839212 65.1266 0.246967C64.7236 0.410012 64.3574 0.648984 64.0491 0.950219L24.2103 39.829C23.9021 40.1301 23.6577 40.4875 23.4911 40.8808C23.3245 41.2741 23.2389 41.6956 23.2393 42.1212V55.0808C23.2393 55.9401 23.589 56.7642 24.2116 57.3718C24.8342 57.9794 25.6787 58.3207 26.5592 58.3207H39.8387C40.2749 58.321 40.7068 58.2375 41.1098 58.0749C41.5128 57.9123 41.879 57.6738 42.1876 57.373L82.0263 18.4943C82.335 18.1934 82.5799 17.836 82.7469 17.4427C82.914 17.0494 83 16.6278 83 16.202C83 15.7763 82.914 15.3547 82.7469 14.9614C82.5799 14.568 82.335 14.2107 82.0263 13.9098ZM38.4651 51.8409H29.8791V43.4617L56.4382 17.5425L65.0243 25.9217L38.4651 51.8409ZM69.7178 21.3413L61.1317 12.9621L66.3979 7.82285L74.984 16.202L69.7178 21.3413ZM79.6775 38.8813V74.5202C79.6775 76.2388 78.978 77.8869 77.7327 79.1021C76.4875 80.3173 74.7987 81 73.0377 81H6.63979C4.87881 81 3.18995 80.3173 1.94475 79.1021C0.699547 77.8869 0 76.2388 0 74.5202V9.72224C0 8.00369 0.699547 6.35553 1.94475 5.14033C3.18995 3.92514 4.87881 3.24245 6.63979 3.24245H43.1586C44.0391 3.24245 44.8836 3.58379 45.5062 4.19139C46.1288 4.79899 46.4785 5.62307 46.4785 6.48234C46.4785 7.34162 46.1288 8.1657 45.5062 8.7733C44.8836 9.3809 44.0391 9.72224 43.1586 9.72224H6.63979V74.5202H73.0377V38.8813C73.0377 38.0221 73.3875 37.198 74.0101 36.5904C74.6327 35.9828 75.4771 35.6414 76.3576 35.6414C77.2381 35.6414 78.0825 35.9828 78.7051 36.5904C79.3277 37.198 79.6775 38.0221 79.6775 38.8813Z" fill="#002E5E"/>
</svg>
