<svg width="85" height="53" viewBox="0 0 85 53" fill="none" xmlns="http://www.w3.org/2000/svg">
<path d="M85 49.3303C85 50.2025 84.6556 51.039 84.0425 51.6558C83.4294 52.2725 82.5978 52.619 81.7308 52.619H55.9611C54.7463 52.6229 53.5546 52.2846 52.5211 51.6423C51.4876 51.0001 50.6535 50.0796 50.1132 48.985L29.0389 6.57741H3.26923C2.40218 6.57741 1.57064 6.23092 0.957535 5.61417C0.344436 4.99742 0 4.16093 0 3.28872C0 2.41651 0.344436 1.58002 0.957535 0.963268C1.57064 0.34652 2.40218 3.34978e-05 3.26923 3.34978e-05H29.0389C30.2538 -0.00387577 31.4454 0.334453 32.4789 0.976707C33.5124 1.61896 34.3465 2.53948 34.8868 3.63403L55.9611 46.0416H81.7308C82.5978 46.0416 83.4294 46.3881 84.0425 47.0049C84.6556 47.6216 85 48.4581 85 49.3303ZM52.3077 6.57741H81.7308C82.5978 6.57741 83.4294 6.23092 84.0425 5.61417C84.6556 4.99742 85 4.16093 85 3.28872C85 2.41651 84.6556 1.58002 84.0425 0.963268C83.4294 0.34652 82.5978 3.34978e-05 81.7308 3.34978e-05H52.3077C51.4406 3.34978e-05 50.6091 0.34652 49.996 0.963268C49.3829 1.58002 49.0385 2.41651 49.0385 3.28872C49.0385 4.16093 49.3829 4.99742 49.996 5.61417C50.6091 6.23092 51.4406 6.57741 52.3077 6.57741Z" fill="#002E5E"/>
</svg>
