<svg width="85" height="85" viewBox="0 0 85 85" fill="none" xmlns="http://www.w3.org/2000/svg">
<path d="M84.7677 20.526C84.4657 19.584 83.8908 18.753 83.1159 18.1382C82.341 17.5234 81.4009 17.1526 80.415 17.0728L66.2905 15.8774L60.7803 3.03231C60.3914 2.13179 59.7474 1.36481 58.9277 0.825971C58.1081 0.28713 57.1486 0 56.1676 0C55.1867 0 54.2272 0.28713 53.4076 0.825971C52.5879 1.36481 51.9439 2.13179 51.555 3.03231L46.0448 15.8812L31.9165 17.0728C30.9355 17.1516 29.9998 17.5191 29.2274 18.1291C28.455 18.739 27.8806 19.5641 27.5765 20.5001C27.2725 21.4361 27.2525 22.4412 27.519 23.3886C27.7855 24.336 28.3267 25.1832 29.0742 25.8234L39.7605 34.9307L36.5615 48.4893C36.3365 49.4396 36.3965 50.4352 36.734 51.3517C37.0714 52.2681 37.6714 53.0649 38.4589 53.6425C39.2557 54.2276 40.2073 54.5649 41.1948 54.6122C42.1823 54.6594 43.1617 54.4145 44.0108 53.9082L56.1544 46.6982L68.2979 53.9082C69.147 54.4145 70.1265 54.6594 71.1139 54.6122C72.1014 54.5649 73.053 54.2276 73.8498 53.6425C74.6377 53.0652 75.238 52.2685 75.5754 51.3519C75.9129 50.4354 75.9727 49.4396 75.7473 48.4893L72.5482 34.9307L83.2308 25.8234C83.9826 25.1917 84.53 24.3511 84.8036 23.408C85.0772 22.465 85.0647 21.4619 84.7677 20.526ZM68.1234 30.7717C67.4241 31.3641 66.9028 32.1388 66.6175 33.0097C66.3321 33.8806 66.2938 34.8135 66.5068 35.7049L69.2808 47.4685L58.7387 41.2034C57.9606 40.7396 57.0716 40.4947 56.1657 40.4947C55.2599 40.4947 54.3709 40.7396 53.5928 41.2034L43.0507 47.4306L45.8247 35.6669C46.0408 34.776 46.0044 33.8425 45.7195 32.9711C45.4347 32.0997 44.9126 31.325 44.2119 30.7338L35.0056 22.9091L47.1833 21.8769C48.0871 21.8011 48.9532 21.4805 49.6887 20.9497C50.4241 20.4189 51.0011 19.6978 51.3577 18.8639L56.1657 7.67705L60.9625 18.8639C61.3197 19.6973 61.8969 20.418 62.6322 20.9487C63.3675 21.4794 64.2332 21.8003 65.1368 21.8769L77.3146 22.9091L68.1234 30.7717ZM26.4367 41.6095L5.18548 62.8599C4.61582 63.4295 3.8432 63.7496 3.03758 63.7496C2.23197 63.7496 1.45935 63.4295 0.889688 62.8599C0.32003 62.2903 0 61.5177 0 60.7121C0 59.9065 0.32003 59.1339 0.889688 58.5643L22.141 37.3138C22.7106 36.7442 23.4832 36.4242 24.2888 36.4242C25.0945 36.4242 25.8671 36.7442 26.4367 37.3138C27.0064 37.8835 27.3264 38.6561 27.3264 39.4616C27.3264 40.2672 27.0064 41.0398 26.4367 41.6095ZM32.5085 62.8599L11.2573 84.1103C10.9752 84.3924 10.6403 84.6161 10.2718 84.7688C9.90327 84.9214 9.50827 85 9.10937 85C8.71047 85 8.31548 84.9214 7.94694 84.7688C7.5784 84.6161 7.24354 84.3924 6.96148 84.1103C6.67941 83.8283 6.45567 83.4934 6.30301 83.1249C6.15036 82.7564 6.07179 82.3614 6.07179 81.9625C6.07179 81.5636 6.15036 81.1687 6.30301 80.8001C6.45567 80.4316 6.67941 80.0968 6.96148 79.8147L28.2127 58.5643C28.7824 57.9946 29.555 57.6746 30.3606 57.6746C31.1663 57.6746 31.9389 57.9946 32.5085 58.5643C33.0782 59.1339 33.3982 59.9065 33.3982 60.7121C33.3982 61.5177 33.0782 62.2903 32.5085 62.8599ZM59.8316 58.5643C60.1139 58.8462 60.3378 59.181 60.4906 59.5496C60.6433 59.9181 60.722 60.3131 60.722 60.7121C60.722 61.111 60.6433 61.5061 60.4906 61.8746C60.3378 62.2431 60.1139 62.578 59.8316 62.8599L38.5803 84.1103C38.2983 84.3924 37.9634 84.6161 37.5949 84.7688C37.2263 84.9214 36.8313 85 36.4324 85C36.0335 85 35.6385 84.9214 35.27 84.7688C34.9015 84.6161 34.5666 84.3924 34.2845 84.1103C34.0025 83.8283 33.7787 83.4934 33.6261 83.1249C33.4734 82.7564 33.3948 82.3614 33.3948 81.9625C33.3948 81.5636 33.4734 81.1687 33.6261 80.8001C33.7787 80.4316 34.0025 80.0968 34.2845 79.8147L55.5358 58.5643C55.8178 58.282 56.1526 58.0581 56.5211 57.9053C56.8897 57.7526 57.2847 57.6739 57.6837 57.6739C58.0827 57.6739 58.4777 57.7526 58.8463 57.9053C59.2148 58.0581 59.5496 58.282 59.8316 58.5643Z" fill="#002E5E"/>
</svg>
