<svg width="101" height="75" viewBox="0 0 101 75" fill="none" xmlns="http://www.w3.org/2000/svg">
<path d="M74.0667 21.1236V18.75C74.0667 8.0625 58.1465 0 37.0333 0C15.9201 0 0 8.0625 0 18.75V35.7955C0 44.6974 11.0469 51.7713 26.9333 53.8892V56.25C26.9333 66.9375 42.8535 75 63.9667 75C85.0799 75 101 66.9375 101 56.25V39.2045C101 30.3835 90.3024 23.3011 74.0667 21.1236ZM94.2667 39.2045C94.2667 44.8381 81.3092 51.1364 63.9667 51.1364C62.397 51.1364 60.8399 51.081 59.3038 50.9787C68.3812 47.6293 74.0667 42.1875 74.0667 35.7955V28.0142C86.637 29.9105 94.2667 35.0582 94.2667 39.2045ZM26.9333 46.9815V36.8438C30.2822 37.2856 33.6561 37.5048 37.0333 37.5C40.4105 37.5048 43.7844 37.2856 47.1333 36.8438V46.9815C43.7894 47.4818 40.4135 47.731 37.0333 47.7273C33.6531 47.731 30.2773 47.4818 26.9333 46.9815ZM67.3333 29.7997V35.7955C67.3333 39.3707 62.1108 43.2102 53.8667 45.5412V35.5824C59.2996 34.2486 63.8993 32.2628 67.3333 29.7997ZM37.0333 6.81818C54.3759 6.81818 67.3333 13.1165 67.3333 18.75C67.3333 24.3835 54.3759 30.6818 37.0333 30.6818C19.6908 30.6818 6.73333 24.3835 6.73333 18.75C6.73333 13.1165 19.6908 6.81818 37.0333 6.81818ZM6.73333 35.7955V29.7997C10.1673 32.2628 14.767 34.2486 20.2 35.5824V45.5412C11.9559 43.2102 6.73333 39.3707 6.73333 35.7955ZM33.6667 56.25V54.473C34.7735 54.5156 35.8929 54.5455 37.0333 54.5455C38.6662 54.5455 40.2611 54.4901 41.8266 54.3963C43.5658 55.0267 45.3372 55.5616 47.1333 55.9986V65.9957C38.8892 63.6648 33.6667 59.8253 33.6667 56.25ZM53.8667 67.4361V57.2727C57.2145 57.7284 60.5887 57.9562 63.9667 57.9545C67.3439 57.9594 70.7178 57.7402 74.0667 57.2983V67.4361C67.3691 68.4304 60.5642 68.4304 53.8667 67.4361ZM80.8 65.9957V56.0369C86.233 54.7031 90.8327 52.7173 94.2667 50.2543V56.25C94.2667 59.8253 89.0441 63.6648 80.8 65.9957Z" fill="#002E5E"/>
</svg>
