<svg width="203" height="80" viewBox="0 0 203 80" fill="none" xmlns="http://www.w3.org/2000/svg">
<path d="M74.6871 8.25537L34.3408 26.2128V26.2979H114.864L74.6871 8.25537Z" fill="#E40032"/>
<path d="M21.0612 45.8723V31.7446L5.24414 38.8085L21.0612 45.8723Z" fill="#E40032"/>
<path d="M74.6871 69.617L114.949 51.5745H34.3408L74.6871 69.617Z" fill="#E40032"/>
<path d="M85.8525 44.2553H71.3041V29.5319H67.2441V48.3404H89.9971V29.5319H85.8525V44.2553Z" fill="#272425"/>
<path d="M53.4565 33.4468H49.3965V48.3404H53.5411V33.617H64.8752V29.5319H53.4565V33.4468Z" fill="#272425"/>
<path d="M28.3354 22.2128H24.2754V48.3404H47.1129V29.5319H28.3354V22.2128ZM42.9683 44.2553H28.3354V33.617H42.9683V44.2553Z" fill="#272425"/>
<path d="M144.383 48.3404H166.29V29.5319H144.383V48.3404ZM148.443 33.617H162.145V44.2553H148.443V33.617Z" fill="#272425"/>
<path d="M93.2109 41.0212H111.143V44.2553H93.2109V48.3404H115.203V36.9361H97.2709V33.617H115.203V29.5319H93.2109V41.0212Z" fill="#272425"/>
<path d="M191.751 29.5319H186.084L180.247 35.8297L174.496 29.5319H168.829L177.456 38.9787L168.744 48.3404H174.411L180.163 42.0425L185.999 48.3404H191.666L183.039 38.9787L191.751 29.5319Z" fill="#272425"/>
<path d="M122.476 22.2128H118.416V48.3404H141.084V29.5319H122.476V22.2128ZM136.94 44.2553H122.476V33.617H136.94V44.2553Z" fill="#272425"/>
<path d="M194.457 23.8298C192.934 23.8298 191.75 25.0213 191.75 26.4681C191.75 27.9149 192.85 29.1915 194.457 29.1915C195.895 29.1915 197.079 28 197.079 26.4681C197.079 25.0213 195.979 23.8298 194.457 23.8298ZM194.457 28.6809C193.272 28.766 192.258 27.6596 192.258 26.4681C192.258 25.2766 193.272 24.2554 194.457 24.2554C195.641 24.2554 196.571 25.2766 196.571 26.4681C196.571 27.6596 195.641 28.6809 194.457 28.6809Z" fill="#272425"/>
<path d="M195.219 26.5533C195.557 26.2979 195.642 26.0426 195.642 25.8724C195.642 25.1916 195.05 25.1064 194.712 25.1064H193.527V27.8299H194.204V26.7235H194.627C195.219 26.7235 195.219 26.9788 195.219 27.2341C195.219 27.7447 195.219 27.7447 195.304 27.915H195.811C195.727 27.7447 195.727 27.6596 195.727 27.2341C195.557 26.9788 195.557 26.6384 195.219 26.5533ZM194.542 26.383H193.95V25.532H194.458C194.796 25.532 195.05 25.6171 195.05 25.9575C195.05 26.1277 194.965 26.383 194.542 26.383Z" fill="#272425"/>
<path d="M130.598 56.6809C130.852 56.5107 131.105 56.4256 131.444 56.4256C131.782 56.4256 132.036 56.5107 132.289 56.6809C132.543 56.8511 132.628 57.1064 132.712 57.4469H133.897C133.812 56.8511 133.558 56.3405 133.135 56C132.712 55.6596 132.12 55.4043 131.444 55.4043C130.598 55.4043 129.921 55.6596 129.414 56.2554C128.906 56.8511 128.652 57.532 128.652 58.383C128.652 59.3192 128.906 60 129.414 60.5107C129.921 61.0213 130.598 61.3617 131.359 61.3617C132.12 61.3617 132.712 61.1915 133.135 60.766C133.558 60.3405 133.812 59.7447 133.897 59.0639H132.628C132.543 59.9149 132.12 60.3405 131.359 60.3405C130.936 60.3405 130.513 60.1703 130.259 59.8298C130.006 59.4894 129.837 58.9788 129.837 58.4681C129.837 58.1277 129.921 57.7873 130.006 57.532C130.175 57.1064 130.344 56.8511 130.598 56.6809Z" fill="#272525"/>
<path d="M137.364 55.3192C136.518 55.3192 135.841 55.5745 135.334 56.1703C134.826 56.6809 134.572 57.4469 134.572 58.2979C134.572 59.149 134.826 59.915 135.334 60.4256C135.841 60.9362 136.518 61.2767 137.364 61.2767C138.209 61.2767 138.886 61.0213 139.394 60.4256C139.901 59.915 140.155 59.149 140.155 58.2979C140.155 57.4469 139.901 56.6809 139.394 56.1703C138.801 55.6596 138.125 55.3192 137.364 55.3192ZM138.463 59.7447C138.209 60.0852 137.786 60.2554 137.364 60.2554C136.856 60.2554 136.518 60.0852 136.264 59.7447C136.01 59.4043 135.841 58.8937 135.841 58.2979C135.841 57.7022 136.01 57.2767 136.264 56.8511C136.518 56.5107 136.941 56.3405 137.364 56.3405C137.871 56.3405 138.209 56.5107 138.463 56.8511C138.717 57.1916 138.886 57.7022 138.886 58.2979C138.886 58.8937 138.717 59.4043 138.463 59.7447Z" fill="#272525"/>
<path d="M145.23 57.617C145.399 57.4468 145.399 57.1915 145.399 56.9362C145.399 56.4256 145.23 56.0851 144.891 55.8298C144.553 55.5745 144.13 55.4894 143.623 55.4894H140.916V61.1915H143.707C144.299 61.1915 144.722 61.0213 145.061 60.766C145.399 60.5107 145.568 60.0851 145.568 59.4894C145.568 58.7234 145.23 58.2979 144.553 58.1277C144.891 57.9575 145.061 57.7873 145.23 57.617ZM142.185 56.4256H143.284C143.538 56.4256 143.792 56.5107 143.961 56.5958C144.13 56.6809 144.215 56.8511 144.215 57.1064C144.215 57.5319 143.876 57.7873 143.284 57.7873H142.185V56.4256ZM144.13 60C143.961 60.0851 143.707 60.1702 143.369 60.1702H142.1V58.6383H143.284C143.623 58.6383 143.876 58.7234 144.13 58.8085C144.299 58.8936 144.469 59.149 144.469 59.4043C144.469 59.7447 144.384 59.9149 144.13 60Z" fill="#272525"/>
<path d="M149.036 59.1489C149.628 59.1489 150.135 58.9787 150.473 58.7234C150.812 58.383 151.066 57.9574 151.066 57.3617C151.066 56.766 150.896 56.3404 150.473 56C150.135 55.6596 149.628 55.5745 148.951 55.5745H146.498V61.2766H147.767V59.234H149.036V59.1489ZM147.767 56.5106H148.866C149.543 56.5106 149.797 56.766 149.797 57.3617C149.797 57.8723 149.458 58.2128 148.866 58.2128H147.767V56.5106Z" fill="#272525"/>
<path d="M156.057 56.5107V55.4894H151.828V61.1915H156.142V60.0851H153.097V58.7234H155.804V57.7022H153.097V56.5107H156.057Z" fill="#272525"/>
<path d="M163.076 55.4894H161.3L160.031 59.4043L158.763 55.4894H156.986V61.1915H158.17V57.1915L159.524 61.1915H160.539L161.892 57.1064V61.1915H163.076V55.4894Z" fill="#272525"/>
<path d="M168.405 56.5107V55.4894H164.176V61.1915H168.49V60.0851H165.36V58.7234H168.151V57.7022H165.36V56.5107H168.405Z" fill="#272525"/>
<path d="M169.336 55.4894V61.1915H170.52V58.7234H172.804V61.1915H174.073V55.4894H172.804V57.617H170.52V55.4894H169.336Z" fill="#272525"/>
<path d="M175.172 55.4894V61.1915H176.441V58.7234H178.724V61.1915H179.993V55.4894H178.724V57.617H176.441V55.4894H175.172Z" fill="#272525"/>
<path d="M181.094 55.4894V61.1915H183.293C183.97 61.1915 184.392 61.0213 184.815 60.766C185.154 60.4256 185.407 60 185.407 59.4043C185.407 58.8085 185.238 58.383 184.815 58.0426C184.477 57.7021 183.97 57.617 183.377 57.617H182.362V55.5745H181.094V55.4894ZM183.124 58.4681C183.8 58.4681 184.054 58.7234 184.054 59.3192C184.054 59.8298 183.716 60.1702 183.124 60.1702H182.278V58.5532H183.124V58.4681Z" fill="#272525"/>
<path d="M187.183 55.4894H185.914V61.1915H187.183V55.4894Z" fill="#272525"/>
<path d="M192.512 56.5107V55.4894H188.283V61.1915H192.512V60.0851H189.467V58.7234H192.259V57.7022H189.467V56.5107H192.512Z" fill="#272525"/>
<path d="M111.819 69.6171C112.327 69.1065 112.581 68.3405 112.581 67.4895C112.581 66.6384 112.327 65.8724 111.819 65.3618C111.312 64.8512 110.635 64.5107 109.789 64.5107C108.943 64.5107 108.267 64.7661 107.759 65.3618C107.252 65.8724 106.998 66.6384 106.998 67.4895C106.998 68.3405 107.252 69.1065 107.759 69.6171C108.267 70.1278 108.943 70.4682 109.789 70.4682C110.635 70.3831 111.312 70.1278 111.819 69.6171ZM108.69 68.8512C108.436 68.5107 108.267 68.0001 108.267 67.4044C108.267 66.8086 108.436 66.3831 108.69 65.9575C108.943 65.6171 109.366 65.4469 109.789 65.4469C110.297 65.4469 110.635 65.6171 110.889 65.9575C111.143 66.298 111.312 66.8086 111.312 67.4044C111.312 68.0001 111.143 68.5107 110.889 68.8512C110.635 69.1916 110.212 69.3618 109.789 69.3618C109.366 69.3618 108.943 69.1916 108.69 68.8512Z" fill="#272525"/>
<path d="M113.426 64.5958V70.2979H114.695V68.4256L115.371 67.7448L117.147 70.2979H118.67L116.217 66.8086L118.416 64.5958H116.894L114.695 66.9788V64.5958H113.426Z" fill="#272525"/>
<path d="M123.745 69.6171C124.253 69.1065 124.506 68.3405 124.506 67.4895C124.506 66.6384 124.253 65.8724 123.745 65.3618C123.238 64.8512 122.561 64.5107 121.715 64.5107C120.869 64.5107 120.193 64.7661 119.685 65.3618C119.178 65.8724 118.924 66.6384 118.924 67.4895C118.924 68.3405 119.178 69.1065 119.685 69.6171C120.193 70.1278 120.869 70.4682 121.715 70.4682C122.561 70.3831 123.238 70.1278 123.745 69.6171ZM120.615 68.8512C120.362 68.5107 120.193 68.0001 120.193 67.4044C120.193 66.8086 120.362 66.3831 120.615 65.9575C120.869 65.6171 121.292 65.4469 121.715 65.4469C122.223 65.4469 122.561 65.6171 122.815 65.9575C123.068 66.298 123.238 66.8086 123.238 67.4044C123.238 68.0001 123.068 68.5107 122.815 68.8512C122.561 69.1916 122.138 69.3618 121.715 69.3618C121.208 69.3618 120.869 69.1916 120.615 68.8512Z" fill="#272525"/>
<path d="M125.354 64.5958V70.2979H126.538V67.8299H128.906V70.2979H130.09V64.5958H128.906V66.7235H126.538V64.5958H125.354Z" fill="#272525"/>
<path d="M132.458 64.5958H131.189V70.2979H132.458V67.8299H134.742V70.2979H136.011V64.5958H134.742V66.7235H132.458V64.5958Z" fill="#272525"/>
<path d="M143.2 64.5958H141.932V70.2979H143.2V64.5958Z" fill="#272525"/>
<path d="M139.309 66.6384H138.294V64.5958H137.025V70.2979H139.225C139.901 70.2979 140.324 70.1277 140.747 69.8724C141.085 69.532 141.339 69.1065 141.339 68.5107C141.339 67.915 141.17 67.4894 140.747 67.149C140.409 66.8086 139.901 66.6384 139.309 66.6384ZM139.225 69.2767H138.379V67.6597H139.225C139.901 67.6597 140.155 67.915 140.155 68.5107C140.155 69.0214 139.817 69.2767 139.225 69.2767Z" fill="#272525"/>
<path d="M144.299 70.2979H148.528V69.1916H145.483V67.8299H148.274V66.8937H145.483V65.6171H148.528V64.5958H144.299V70.2979Z" fill="#272525"/>
<path d="M152.166 69.6171C152.674 70.1277 153.35 70.4681 154.112 70.4681C154.873 70.4681 155.465 70.2979 155.888 69.8724C156.311 69.4469 156.564 68.8511 156.649 68.1703H155.38C155.296 69.0213 154.873 69.4469 154.112 69.4469C153.689 69.4469 153.266 69.2767 153.012 68.9362C152.758 68.5958 152.589 68.0852 152.589 67.5745C152.589 67.2341 152.674 66.8937 152.758 66.6384C152.843 66.383 153.012 66.1277 153.266 65.9575C153.519 65.7873 153.773 65.7022 154.112 65.7022C154.45 65.7022 154.704 65.7873 154.957 65.9575C155.211 66.1277 155.296 66.383 155.38 66.7235H156.564C156.48 66.1277 156.226 65.6171 155.803 65.2767C155.38 64.9362 154.788 64.6809 154.112 64.6809C153.266 64.6809 152.589 64.9362 152.082 65.532C151.574 66.1277 151.32 66.8086 151.32 67.6596C151.405 68.3405 151.659 69.0213 152.166 69.6171Z" fill="#272525"/>
<path d="M162.315 70.2979V64.5958H160.877L158.763 68.5107V64.5958H157.494V70.2979H158.932L161.047 66.298V70.2979H162.315Z" fill="#272525"/>
<path d="M163.162 67.4043C163.162 68.3405 163.416 69.0214 163.923 69.532C164.431 70.0426 165.108 70.3831 165.869 70.3831C166.63 70.3831 167.222 70.2128 167.645 69.7873C168.068 69.3618 168.322 68.766 168.406 68.0852H167.138C167.053 68.9362 166.63 69.3618 165.869 69.3618C165.446 69.3618 165.023 69.1916 164.769 68.8511C164.515 68.5107 164.346 68.0001 164.346 67.4894C164.346 67.149 164.431 66.8086 164.515 66.5533C164.6 66.2979 164.769 66.0426 165.023 65.8724C165.277 65.7022 165.53 65.6171 165.869 65.6171C166.207 65.6171 166.461 65.7022 166.715 65.8724C166.968 66.0426 167.053 66.298 167.138 66.6384H168.322C168.237 66.0426 167.983 65.532 167.56 65.1916C167.138 64.8511 166.545 64.5958 165.869 64.5958C165.023 64.5958 164.346 64.8511 163.839 65.4469C163.416 65.8724 163.162 66.5533 163.162 67.4043Z" fill="#272525"/>
<path d="M168.828 65.6171H170.52V70.2979H171.789V65.6171H173.48V64.5958H168.828V65.6171Z" fill="#272525"/>
<path d="M174.072 70.2979H178.386V69.1916H175.341V67.8299H178.048V66.8937H175.341V65.6171H178.301V64.5958H174.072V70.2979Z" fill="#272525"/>
<path d="M179.232 64.5958V70.2979H180.417V66.298L181.855 70.2979H182.785L184.138 66.2128V70.2979H185.322V64.5958H183.631L182.277 68.5107L181.009 64.5958H179.232Z" fill="#272525"/>
<path d="M192.597 64.5958H191.328V70.2979H192.597V64.5958Z" fill="#272525"/>
<path d="M186.422 64.5958V70.2979H188.621C189.298 70.2979 189.721 70.1277 190.144 69.8724C190.482 69.532 190.736 69.1065 190.736 68.5107C190.736 67.915 190.566 67.4894 190.144 67.149C189.805 66.8086 189.298 66.7235 188.706 66.7235H187.691V64.6809H186.422V64.5958ZM188.536 67.6597C189.213 67.6597 189.467 67.915 189.467 68.5107C189.467 69.0214 189.129 69.3618 188.536 69.3618H187.691V67.7448H188.536V67.6597Z" fill="#272525"/>
</svg>
