<svg width="219" height="80" viewBox="0 0 219 80" fill="none" xmlns="http://www.w3.org/2000/svg">
<g clip-path="url(#clip0_287_25281)">
<path d="M32.6134 33.5238H26.2495V39.6192H32.6134V33.5238Z" fill="#E50040"/>
<path d="M23.8645 33.5238H17.5005V39.6192H23.8645V33.5238Z" fill="#E50040"/>
<path d="M41.3639 25.1425H35V31.2379H41.3639V25.1425Z" fill="#E50040"/>
<path d="M32.6134 25.1425H26.2495V31.2379H32.6134V25.1425Z" fill="#E50040"/>
<path d="M23.8645 25.1425H17.5005V31.2379H23.8645V25.1425Z" fill="#E50040"/>
<path d="M15.1144 25.1425H8.75049V31.2379H15.1144V25.1425Z" fill="#E50040"/>
<path d="M41.3639 16.7612H35V22.8568H41.3639V16.7612Z" fill="#575756"/>
<path d="M32.6134 16.7612H26.2495V22.8568H32.6134V16.7612Z" fill="#575756"/>
<path d="M23.8645 16.7612H17.5005V22.8568H23.8645V16.7612Z" fill="#4FC7B5"/>
<path d="M15.1144 16.7612H8.75049V22.8568H15.1144V16.7612Z" fill="#4FC7B5"/>
<path d="M6.3639 16.7612H0V22.8568H6.3639V16.7612Z" fill="#4FC7B5"/>
<path d="M41.3639 8.37988H35V14.4754H41.3639V8.37988Z" fill="#575756"/>
<path d="M32.6134 8.37988H26.2495V14.4754H32.6134V8.37988Z" fill="#575756"/>
<path d="M23.8645 8.37988H17.5005V14.4754H23.8645V8.37988Z" fill="#4FC7B5"/>
<path d="M15.1144 8.37988H8.75049V14.4754H15.1144V8.37988Z" fill="#4FC7B5"/>
<path d="M6.3639 8.37988H0V14.4754H6.3639V8.37988Z" fill="#4FC7B5"/>
<path d="M32.6134 0H26.2495V6.0955H32.6134V0Z" fill="#575756"/>
<path d="M23.8645 0H17.5005V6.0955H23.8645V0Z" fill="#4FC7B5"/>
<path d="M15.1144 0H8.75049V6.0955H15.1144V0Z" fill="#4FC7B5"/>
<path d="M218.75 22.8568V60.952C218.75 64.7618 216.363 68.5715 211.591 68.5715H190.511V59.4282H203.635C205.623 59.4282 206.022 58.6663 206.022 57.1425V54.4749H195.284C190.511 54.4749 188.125 50.6652 188.125 46.8557V22.8625L200.853 22.8568V44.5713C200.853 46.4753 201.647 46.857 203.238 46.857H206.022V22.8568H218.75Z" fill="#313131"/>
<path d="M159.09 22.8568C154.317 22.8568 151.931 26.6663 151.931 30.476V68.5686H164.658L164.664 49.5231H169.828V68.5701H182.556V22.8568H159.09ZM169.828 41.9037H164.658V32.7604C164.658 30.8564 165.454 30.4848 167.045 30.4848L169.828 30.4747V41.9037Z" fill="#313131"/>
<path d="M146.364 53.3326V68.5714H133.636V49.5244H130.853C129.261 49.5244 128.466 49.9061 128.466 51.8103V68.5655H115.738L115.744 53.3341C115.744 49.5244 117.728 46.0964 120.91 45.7061C117.728 45.3329 115.74 41.9049 115.744 38.0954L115.738 22.8566H128.466V41.9036H131.249C132.84 41.9036 133.636 41.5219 133.636 39.6177V22.8552H146.364V38.0939C146.368 41.9036 144.374 45.3316 141.192 45.7046C144.374 46.095 146.368 49.523 146.364 53.3326Z" fill="#313131"/>
<path d="M101.022 41.9037H108.969V49.5231H101.022V59.4052L110.171 59.4282V68.5715H88.2959V22.8654L110.171 22.8568V32H101.022V41.9037Z" fill="#313131"/>
<path d="M75.8752 23.0013H54V68.7118H66.7232V56.5252H75.8752C80.648 56.5252 83.0345 52.7154 83.0345 48.9057V30.6192C83.0345 26.8095 80.648 22.9998 75.8752 23.0013ZM71.8978 46.6185C71.8978 48.5227 71.1022 48.9044 69.5113 48.9044H66.7263L66.7217 30.6179H69.5098C71.1007 30.6179 71.8962 30.9996 71.8962 32.9036L71.8978 46.6185Z" fill="#313131"/>
</g>
<defs>
<clipPath id="clip0_287_25281">
<rect width="218.75" height="80" fill="white"/>
</clipPath>
</defs>
</svg>
