<svg width="81" height="79" viewBox="0 0 81 79" fill="none" xmlns="http://www.w3.org/2000/svg">
<path d="M13.5 75.7083C13.5 76.5813 13.1444 77.4186 12.5115 78.0359C11.8785 78.6532 11.0201 79 10.125 79H6.75C4.95979 79 3.2429 78.3064 1.97703 77.0718C0.711158 75.8372 0 74.1627 0 72.4167V69.125C0 68.252 0.35558 67.4147 0.988515 66.7974C1.62145 66.1801 2.47989 65.8333 3.375 65.8333C4.27011 65.8333 5.12855 66.1801 5.76148 66.7974C6.39442 67.4147 6.75 68.252 6.75 69.125V72.4167H10.125C11.0201 72.4167 11.8785 72.7635 12.5115 73.3808C13.1444 73.9981 13.5 74.8353 13.5 75.7083ZM33.75 72.4167H27C26.1049 72.4167 25.2465 72.7635 24.6135 73.3808C23.9806 73.9981 23.625 74.8353 23.625 75.7083C23.625 76.5813 23.9806 77.4186 24.6135 78.0359C25.2465 78.6532 26.1049 79 27 79H33.75C34.6451 79 35.5035 78.6532 36.1365 78.0359C36.7694 77.4186 37.125 76.5813 37.125 75.7083C37.125 74.8353 36.7694 73.9981 36.1365 73.3808C35.5035 72.7635 34.6451 72.4167 33.75 72.4167ZM3.375 55.9583C4.27011 55.9583 5.12855 55.6115 5.76148 54.9942C6.39442 54.3769 6.75 53.5397 6.75 52.6667V46.0833C6.75 45.2103 6.39442 44.3731 5.76148 43.7558C5.12855 43.1385 4.27011 42.7917 3.375 42.7917C2.47989 42.7917 1.62145 43.1385 0.988515 43.7558C0.35558 44.3731 0 45.2103 0 46.0833V52.6667C0 53.5397 0.35558 54.3769 0.988515 54.9942C1.62145 55.6115 2.47989 55.9583 3.375 55.9583ZM57.375 65.8333C56.4799 65.8333 55.6214 66.1801 54.9885 66.7974C54.3556 67.4147 54 68.252 54 69.125V72.4167H50.625C49.7299 72.4167 48.8714 72.7635 48.2385 73.3808C47.6056 73.9981 47.25 74.8353 47.25 75.7083C47.25 76.5813 47.6056 77.4186 48.2385 78.0359C48.8714 78.6532 49.7299 79 50.625 79H54C55.7902 79 57.5071 78.3064 58.773 77.0718C60.0388 75.8372 60.75 74.1627 60.75 72.4167V69.125C60.75 68.252 60.3944 67.4147 59.7615 66.7974C59.1286 66.1801 58.2701 65.8333 57.375 65.8333ZM57.375 32.9167C58.2701 32.9167 59.1286 32.5699 59.7615 31.9526C60.3944 31.3353 60.75 30.498 60.75 29.625V26.3333C60.75 24.5873 60.0388 22.9128 58.773 21.6782C57.5071 20.4436 55.7902 19.75 54 19.75H50.625C49.7299 19.75 48.8714 20.0968 48.2385 20.7141C47.6056 21.3314 47.25 22.1687 47.25 23.0417C47.25 23.9147 47.6056 24.7519 48.2385 25.3692C48.8714 25.9865 49.7299 26.3333 50.625 26.3333H54V29.625C54 30.498 54.3556 31.3353 54.9885 31.9526C55.6214 32.5699 56.4799 32.9167 57.375 32.9167ZM10.125 19.75H6.75C4.95979 19.75 3.2429 20.4436 1.97703 21.6782C0.711158 22.9128 0 24.5873 0 26.3333V29.625C0 30.498 0.35558 31.3353 0.988515 31.9526C1.62145 32.5699 2.47989 32.9167 3.375 32.9167C4.27011 32.9167 5.12855 32.5699 5.76148 31.9526C6.39442 31.3353 6.75 30.498 6.75 29.625V26.3333H10.125C11.0201 26.3333 11.8785 25.9865 12.5115 25.3692C13.1444 24.7519 13.5 23.9147 13.5 23.0417C13.5 22.1687 13.1444 21.3314 12.5115 20.7141C11.8785 20.0968 11.0201 19.75 10.125 19.75ZM74.25 0H27C25.2098 0 23.4929 0.693599 22.227 1.92821C20.9612 3.16283 20.25 4.83732 20.25 6.58333V23.0417C20.2452 23.117 20.2452 23.1926 20.25 23.268C20.3089 24.1012 20.6903 24.8814 21.3169 25.4506C21.9436 26.0197 22.7687 26.3353 23.625 26.3333H33.75C34.6451 26.3333 35.5035 25.9865 36.1365 25.3692C36.7694 24.7519 37.125 23.9147 37.125 23.0417C37.125 22.1687 36.7694 21.3314 36.1365 20.7141C35.5035 20.0968 34.6451 19.75 33.75 19.75H27V6.58333H74.25V52.6667H60.75V46.0833C60.75 45.2103 60.3944 44.3731 59.7615 43.7558C59.1286 43.1385 58.2701 42.7917 57.375 42.7917C56.4799 42.7917 55.6214 43.1385 54.9885 43.7558C54.3556 44.3731 54 45.2103 54 46.0833V55.9583C54 56.8313 54.3556 57.6686 54.9885 58.2859C55.6214 58.9032 56.4799 59.25 57.375 59.25H74.25C76.0402 59.25 77.7571 58.5564 79.023 57.3218C80.2888 56.0872 81 54.4127 81 52.6667V6.58333C81 4.83732 80.2888 3.16283 79.023 1.92821C77.7571 0.693599 76.0402 0 74.25 0Z" fill="#002E5E"/>
</svg>
