<svg width="92" height="73" viewBox="0 0 92 73" fill="none" xmlns="http://www.w3.org/2000/svg">
<path d="M88.9333 33.4579H82.8V6.08253C82.7999 5.19162 82.6025 4.31162 82.2217 3.50471C81.841 2.6978 81.2862 1.98369 80.5966 1.41285C79.907 0.842004 79.0993 0.428361 78.2308 0.201156C77.3623 -0.0260499 76.4541 -0.0612736 75.5703 0.097976L14.237 11.1584C12.8238 11.413 11.5455 12.1516 10.625 13.2452C9.70452 14.3389 9.20021 15.7183 9.2 17.1429V33.4579H3.06667C2.25334 33.4579 1.47332 33.7783 0.898206 34.3488C0.323094 34.9192 0 35.6928 0 36.4996C0 37.3063 0.323094 38.0799 0.898206 38.6504C1.47332 39.2208 2.25334 39.5413 3.06667 39.5413H9.2V55.8562C9.20021 57.2809 9.70452 58.6603 10.625 59.7539C11.5455 60.8476 12.8238 61.5861 14.237 61.8408L75.5703 72.9011C75.9322 72.9657 76.299 72.9988 76.6667 73C78.2933 73 79.8534 72.3591 81.0036 71.2182C82.1538 70.0774 82.8 68.53 82.8 66.9166V39.5413H88.9333C89.7467 39.5413 90.5267 39.2208 91.1018 38.6504C91.6769 38.0799 92 37.3063 92 36.4996C92 35.6928 91.6769 34.9192 91.1018 34.3488C90.5267 33.7783 89.7467 33.4579 88.9333 33.4579ZM15.3333 17.1429L76.6667 6.08253V33.4579H15.3333V17.1429ZM76.6667 66.9166L15.3333 55.8562V39.5413H76.6667V66.9166Z" fill="#002E5E"/>
</svg>
