<svg width="56" height="70" viewBox="0 0 56 70" fill="none" xmlns="http://www.w3.org/2000/svg">
<path d="M54.4292 20.3384L48.7862 22.2316L52.2679 27.1908C52.4519 27.438 52.5861 27.7208 52.6626 28.0225C52.7391 28.3242 52.7563 28.6387 52.7132 28.9474C52.6701 29.2561 52.5676 29.5528 52.4118 29.8198C52.2559 30.0869 52.0499 30.3189 51.8058 30.5023C51.5617 30.6856 51.2846 30.8165 50.9907 30.8871C50.6969 30.9578 50.3923 30.9669 50.0951 30.9138C49.7978 30.8607 49.5138 30.7466 49.2599 30.5781C49.006 30.4096 48.7874 30.1902 48.6169 29.9329L45.1437 24.9737L41.662 29.9329C41.3035 30.4145 40.7774 30.7326 40.1956 30.8193C39.6138 30.9061 39.0222 30.7549 38.5466 30.3977C38.071 30.0405 37.749 29.5056 37.649 28.9067C37.5489 28.3078 37.6788 27.6922 38.011 27.1908L41.4927 22.2316L35.8497 20.3384C35.2803 20.1473 34.8076 19.7301 34.5356 19.1787C34.2636 18.6272 34.2147 17.9867 34.3995 17.3979C34.5843 16.8091 34.9878 16.3204 35.5212 16.0392C36.0545 15.758 36.6741 15.7074 37.2435 15.8985L42.8865 17.7946V11.6686C42.8865 11.0497 43.1243 10.4561 43.5476 10.0184C43.9709 9.58076 44.545 9.33489 45.1437 9.33489C45.7423 9.33489 46.3165 9.58076 46.7398 10.0184C47.1631 10.4561 47.4009 11.0497 47.4009 11.6686V17.7946L53.0438 15.9014C53.6133 15.7099 54.233 15.7602 54.7666 16.0411C55.3003 16.322 55.7041 16.8106 55.8893 17.3994C56.0745 17.9881 56.0259 18.6288 55.7542 19.1806C55.4825 19.7323 55.0099 20.1498 54.4405 20.3413L54.4292 20.3384ZM27.0862 51.3419C27.0854 53.0876 26.6111 54.7981 25.7172 56.2792C24.8233 57.7602 23.5456 58.9524 22.0292 59.7203C20.5129 60.4883 18.8187 60.8012 17.139 60.6236C15.4592 60.446 13.8613 59.785 12.5267 58.7156C11.1921 57.6462 10.1743 56.2113 9.58885 54.5739C9.0034 52.9365 8.87377 51.1621 9.21471 49.4523C9.55564 47.7425 10.3535 46.1659 11.5176 44.9013C12.6817 43.6368 14.1654 42.7352 15.8003 42.2987V32.6721C15.8003 32.0532 16.0381 31.4596 16.4614 31.0219C16.8847 30.5843 17.4588 30.3384 18.0575 30.3384C18.6561 30.3384 19.2302 30.5843 19.6535 31.0219C20.0769 31.4596 20.3147 32.0532 20.3147 32.6721V42.2987C22.252 42.819 23.9678 43.989 25.1932 45.6255C26.4185 47.2619 27.0843 49.2723 27.0862 51.3419ZM22.5718 51.3419C22.5718 50.4188 22.3071 49.5164 21.811 48.7488C21.315 47.9812 20.6099 47.383 19.785 47.0297C18.9602 46.6765 18.0525 46.584 17.1768 46.7641C16.3011 46.9442 15.4967 47.3888 14.8653 48.0415C14.234 48.6943 13.804 49.5259 13.6298 50.4313C13.4557 51.3367 13.5451 52.2752 13.8867 53.128C14.2284 53.9809 14.807 54.7099 15.5494 55.2227C16.2918 55.7356 17.1646 56.0093 18.0575 56.0093C19.2548 56.0093 20.403 55.5176 21.2496 54.6423C22.0962 53.767 22.5718 52.5798 22.5718 51.3419ZM36.1149 51.3419C36.113 54.4988 35.3369 57.6036 33.8591 60.3661C32.3814 63.1287 30.2502 65.4586 27.6649 67.1382C25.0795 68.8178 22.1245 69.7922 19.076 69.9703C16.0275 70.1483 12.9851 69.5243 10.2333 68.1564C7.48143 66.7885 5.11001 64.7216 3.34069 62.1487C1.57138 59.5758 0.461969 56.5811 0.116177 53.4446C-0.229615 50.308 0.199506 47.132 1.36342 44.2134C2.52734 41.2949 4.38803 38.7292 6.77155 36.7561V11.6686C6.77155 8.5739 7.9606 5.60595 10.0771 3.41766C12.1936 1.22937 15.0643 0 18.0575 0C21.0507 0 23.9213 1.22937 26.0378 3.41766C28.1543 5.60595 29.3434 8.5739 29.3434 11.6686V36.7561C31.4567 38.5077 33.1624 40.7277 34.3345 43.2523C35.5065 45.7769 36.115 48.5415 36.1149 51.3419ZM31.6006 51.3419C31.5988 49.0844 31.07 46.8607 30.0591 44.8597C29.0482 42.8587 27.585 41.1395 25.794 39.8483C25.4944 39.6321 25.2502 39.3439 25.0821 39.0086C24.914 38.6732 24.8272 38.3007 24.829 37.923V11.6686C24.829 9.81179 24.1156 8.03101 22.8457 6.71804C21.5758 5.40507 19.8534 4.66744 18.0575 4.66744C16.2615 4.66744 14.5392 5.40507 13.2693 6.71804C11.9994 8.03101 11.2859 9.81179 11.2859 11.6686V37.923C11.286 38.2987 11.1982 38.6689 11.0303 39.0021C10.8623 39.3352 10.6189 39.6215 10.321 39.8366C8.40993 41.2118 6.87406 43.0732 5.86165 45.241C4.84925 47.4088 4.39451 49.8099 4.54133 52.2124C4.68815 54.6149 5.43157 56.9377 6.69983 58.9565C7.96808 60.9753 9.71833 62.622 11.7816 63.7376C13.8449 64.8531 16.1514 65.3998 18.4787 65.325C20.8059 65.2501 23.0751 64.5562 25.0673 63.3102C27.0595 62.0642 28.7074 60.3082 29.8518 58.2117C30.9962 56.1153 31.5985 53.7492 31.6006 51.3419Z" fill="#002E5E"/>
</svg>
