<svg width="53" height="70" viewBox="0 0 53 70" fill="none" xmlns="http://www.w3.org/2000/svg">
<path d="M44.9348 14.0023C43.3396 14.0023 41.7803 14.4814 40.454 15.3789C39.1277 16.2764 38.0939 17.5521 37.4835 19.0446C36.8731 20.5371 36.7133 22.1794 37.0245 23.7639C37.3357 25.3483 38.1039 26.8037 39.2318 27.946C40.3597 29.0883 41.7968 29.8663 43.3613 30.1814C44.9258 30.4966 46.5475 30.3349 48.0212 29.7166C49.4949 29.0984 50.7545 28.0515 51.6408 26.7083C52.527 25.3651 53 23.7858 53 22.1704C53 20.0041 52.1503 17.9265 50.6378 16.3947C49.1252 14.8629 47.0738 14.0023 44.9348 14.0023ZM44.9348 25.6709C44.2511 25.6709 43.5829 25.4656 43.0144 25.081C42.446 24.6963 42.003 24.1496 41.7414 23.51C41.4798 22.8703 41.4113 22.1665 41.5447 21.4874C41.678 20.8084 42.0072 20.1846 42.4907 19.6951C42.9741 19.2055 43.59 18.8721 44.2604 18.737C44.9309 18.602 45.6259 18.6713 46.2575 18.9362C46.8891 19.2012 47.429 19.6499 47.8088 20.2255C48.1886 20.8012 48.3913 21.478 48.3913 22.1704C48.3913 23.0988 48.0271 23.9892 47.3789 24.6456C46.7307 25.3021 45.8515 25.6709 44.9348 25.6709ZM20.7391 42.2987V23.3372C20.7391 22.7183 20.4964 22.1247 20.0642 21.687C19.6321 21.2494 19.0459 21.0035 18.4348 21.0035C17.8236 21.0035 17.2375 21.2494 16.8054 21.687C16.3732 22.1247 16.1304 22.7183 16.1304 23.3372V42.2987C13.9582 42.8667 12.0651 44.2176 10.806 46.098C9.54688 47.9785 9.00817 50.2595 9.29086 52.5134C9.57354 54.7674 10.6582 56.8395 12.3416 58.3415C14.0249 59.8434 16.1913 60.6721 18.4348 60.6721C20.6782 60.6721 22.8447 59.8434 24.528 58.3415C26.2114 56.8395 27.296 54.7674 27.5787 52.5134C27.8614 50.2595 27.3227 47.9785 26.0636 46.098C24.8044 44.2176 22.9113 42.8667 20.7391 42.2987ZM18.4348 56.0093C17.5233 56.0093 16.6322 55.7356 15.8743 55.2227C15.1164 54.7099 14.5257 53.9809 14.1769 53.128C13.8281 52.2752 13.7368 51.3367 13.9146 50.4313C14.0925 49.5259 14.5314 48.6943 15.1759 48.0415C15.8205 47.3888 16.6417 46.9442 17.5357 46.7641C18.4297 46.584 19.3563 46.6765 20.1985 47.0297C21.0406 47.383 21.7604 47.9812 22.2668 48.7488C22.7732 49.5164 23.0435 50.4188 23.0435 51.3419C23.0435 52.5798 22.5579 53.767 21.6936 54.6423C20.8293 55.5176 19.6571 56.0093 18.4348 56.0093ZM29.9565 36.7561V11.6686C29.9565 8.5739 28.7426 5.60595 26.5819 3.41766C24.4211 1.22937 21.4905 0 18.4348 0C15.379 0 12.4484 1.22937 10.2877 3.41766C8.12694 5.60595 6.91304 8.5739 6.91304 11.6686V36.7561C3.93156 39.1737 1.76511 42.4694 0.713101 46.1878C-0.33891 49.9062 -0.224545 53.8637 1.04039 57.5135C2.30533 61.1632 4.65838 64.325 7.77437 66.5618C10.8904 68.7986 14.6154 70 18.4348 70C22.2541 70 25.9792 68.7986 29.0952 66.5618C32.2112 64.325 34.5642 61.1632 35.8292 57.5135C37.0941 53.8637 37.2085 49.9062 36.1565 46.1878C35.1045 42.4694 32.938 39.1737 29.9565 36.7561ZM18.4348 65.3442C15.4908 65.3445 12.6236 64.393 10.2506 62.6284C7.87767 60.8638 6.12281 58.3782 5.24155 55.5334C4.36029 52.6886 4.39865 49.6332 5.35104 46.8121C6.30343 43.9909 8.12012 41.5512 10.5366 39.8483C10.8424 39.6321 11.0918 39.3439 11.2634 39.0086C11.435 38.6732 11.5236 38.3007 11.5217 37.923V11.6686C11.5217 9.81179 12.2501 8.03101 13.5465 6.71804C14.843 5.40507 16.6013 4.66744 18.4348 4.66744C20.2682 4.66744 22.0266 5.40507 23.323 6.71804C24.6195 8.03101 25.3478 9.81179 25.3478 11.6686V37.923C25.3478 38.2987 25.4373 38.6689 25.6088 39.0021C25.7803 39.3352 26.0288 39.6215 26.3329 39.8366C28.7545 41.5378 30.5759 43.9781 31.5316 46.8015C32.4872 49.6249 32.527 52.6837 31.6452 55.5317C30.7633 58.3796 29.006 60.8677 26.6296 62.6329C24.2531 64.3981 21.3819 65.3481 18.4348 65.3442Z" fill="#002E5E"/>
</svg>
