<svg width="400" height="580" viewBox="0 0 400 580" fill="none" xmlns="http://www.w3.org/2000/svg">
<path d="M386.373 435.115L163.062 307.282L118.025 333.778L338.14 462.273L386.373 435.115Z" fill="#E1E5E5"/>
<path d="M385.154 435.115L163.061 307.282L179.918 297.479L385.154 415.631V435.115Z" fill="#AEB5B9"/>
<path d="M400 411.311L190.971 290.982L179.918 297.479L385.154 415.631L400 411.311Z" fill="#FBFFFF"/>
<path d="M190.971 290.982L179.918 297.479V60.2666L191.077 49.5635L190.971 290.982Z" fill="#D4DBDF"/>
<path d="M163.061 307.282L179.918 297.479V60.2666L163.061 50.5291V307.282Z" fill="#AEB5B9"/>
<path d="M163.06 307.282L118.023 333.778L116.045 77.6796L163.06 50.4717V307.282Z" fill="#D4DBDF"/>
<path d="M166.349 305.22L140.785 319.99V68.3103L166.349 53.5403V305.22Z" fill="#414E52"/>
<path d="M384.199 430.778L358.635 445.556L140.785 319.99L166.349 305.22L384.199 430.778Z" fill="#5B686C"/>
<g style="mix-blend-mode:multiply" opacity="0.59">
<path d="M165.71 53.9658L161.459 56.4289V308.256L165.718 305.793L165.71 53.9658Z" fill="#34A8D9"/>
</g>
<g style="mix-blend-mode:multiply" opacity="0.84">
<path d="M383.569 431.203L379.309 433.666L161.459 308.256L165.71 305.793L383.569 431.203Z" fill="#34A8D9"/>
</g>
<g style="mix-blend-mode:multiply" opacity="0.84">
<path d="M383.57 179.376L379.311 181.839V433.666L383.57 431.211V179.376Z" fill="#34A8D9"/>
</g>
<g style="mix-blend-mode:multiply" opacity="0.59">
<path d="M383.569 179.376L379.309 181.839L161.459 56.4207L165.71 53.9658L383.569 179.376Z" fill="#34A8D9"/>
</g>
<g style="mix-blend-mode:multiply" opacity="0.2">
<path d="M379.309 181.839L161.459 56.4207V308.256L379.309 433.666V181.839Z" fill="#34A8D9"/>
</g>
<path d="M358.635 445.556V450.621L366.605 446.014V444.099L376.031 438.65V440.564L384.198 435.851V430.778L358.635 445.556Z" fill="#414E52"/>
<path d="M140.785 68.3104L136.395 65.7819L144.365 61.1749L146.025 62.1323L155.459 56.6826L153.799 55.7252L161.966 51.0037L166.348 53.5403L140.785 68.3104Z" fill="#5B686C"/>
<path d="M136.395 320.146L140.785 322.674V68.3104L136.395 65.7819V320.146Z" fill="#283539"/>
<path d="M375.966 428.02L366.802 433.314L155.459 311.676L164.623 306.382L375.966 428.02Z" fill="#889AA5"/>
<path d="M365.076 436.571L366.801 433.314L155.458 311.676L151.771 313.771L365.076 436.571Z" fill="#62747F"/>
<path d="M365.077 436.571V439.681L149.082 315.301L151.772 313.771L365.077 436.571Z" fill="#495B66"/>
<path d="M377.96 432.242L365.076 439.681V436.571L366.801 433.314L375.965 428.02L377.96 429.125V432.242Z" fill="#6F818C"/>
<path d="M161.966 58.2211L149.082 65.6675L151.772 67.2222L155.459 67.3531L164.623 62.0588L164.656 59.7758L161.966 58.2211Z" fill="#889AA5"/>
<path d="M151.773 313.771L155.46 311.677V67.3532L151.773 67.2223V313.771Z" fill="#62747F"/>
<path d="M151.772 313.771L149.082 315.301V65.6675L151.772 67.2222V313.771Z" fill="#495B66"/>
<path d="M164.623 306.382L155.459 311.676V67.353L164.623 62.0587V306.382Z" fill="#6F818C"/>
<path d="M136.395 317.617V322.682L358.635 450.621V445.556L136.395 317.617Z" fill="#283539"/>
<g style="mix-blend-mode:multiply" opacity="0.59">
<path d="M146.466 65.0292L142.215 67.4922V319.319L146.466 316.856V65.0292Z" fill="#34A8D9"/>
</g>
<g style="mix-blend-mode:multiply" opacity="0.84">
<path d="M364.316 442.266L360.065 444.729L142.215 319.311L146.466 316.856L364.316 442.266Z" fill="#34A8D9"/>
</g>
<path d="M147.119 316.308L121.547 331.078V79.398L147.119 64.6198V316.308Z" fill="#414E52"/>
<path d="M364.969 441.865L339.405 456.643L121.547 331.078L147.119 316.308L364.969 441.865Z" fill="#5B686C"/>
<g style="mix-blend-mode:multiply" opacity="0.59">
<path d="M146.482 65.0535L142.23 67.5165V319.344L146.482 316.88V65.0535Z" fill="#34A8D9"/>
</g>
<g style="mix-blend-mode:multiply" opacity="0.84">
<path d="M364.34 442.291L360.081 444.754L142.23 319.335L146.482 316.88L364.34 442.291Z" fill="#34A8D9"/>
</g>
<g style="mix-blend-mode:multiply" opacity="0.84">
<path d="M364.341 190.464L360.082 192.927V444.754L364.341 442.291V190.464Z" fill="#34A8D9"/>
</g>
<g style="mix-blend-mode:multiply" opacity="0.59">
<path d="M364.34 190.464L360.081 192.927L142.23 67.5083L146.482 65.0535L364.34 190.464Z" fill="#34A8D9"/>
</g>
<g style="mix-blend-mode:multiply" opacity="0.2">
<path d="M360.081 192.927L142.23 67.5083V319.335L360.081 444.754V192.927Z" fill="#34A8D9"/>
</g>
<path d="M339.406 456.644V461.709L347.369 457.102V455.187L356.803 449.737V451.652L364.97 446.931V441.865L339.406 456.644Z" fill="#414E52"/>
<path d="M121.548 79.398L117.166 76.8695L125.137 72.2626L126.796 73.22L136.23 67.7702L134.563 66.8128L142.738 62.0913L147.12 64.6198L121.548 79.398Z" fill="#5B686C"/>
<path d="M117.166 331.233L121.548 333.762V79.398L117.166 76.8695V331.233Z" fill="#283539"/>
<path d="M356.738 439.1L347.574 444.402L136.223 322.764L145.387 317.47L356.738 439.1Z" fill="#889AA5"/>
<path d="M345.848 447.659L347.573 444.402L136.222 322.764L132.543 324.859L345.848 447.659Z" fill="#62747F"/>
<path d="M345.848 447.659V450.768L129.854 326.389L132.543 324.859L345.848 447.659Z" fill="#495B66"/>
<path d="M358.723 443.322L345.848 450.768V447.659L347.573 444.402L356.737 439.099L358.723 440.212V443.322Z" fill="#6F818C"/>
<path d="M142.737 69.3087L129.854 76.7469L132.543 78.3098L136.222 78.4408L145.386 73.1465L145.427 70.8635L142.737 69.3087Z" fill="#889AA5"/>
<path d="M132.545 324.859L136.224 322.764V78.4409L132.545 78.3099V324.859Z" fill="#62747F"/>
<path d="M132.543 324.859L129.854 326.389V76.7469L132.543 78.3099V324.859Z" fill="#495B66"/>
<path d="M145.385 317.47L136.221 322.764V78.4407L145.385 73.1464V317.47Z" fill="#6F818C"/>
<path d="M117.166 328.705V333.77L339.406 461.709V456.643L117.166 328.705Z" fill="#283539"/>
<g style="mix-blend-mode:multiply" opacity="0.59">
<path d="M127.238 76.1085L122.979 78.5716V330.407L127.238 327.944V76.1085Z" fill="#34A8D9"/>
</g>
<g style="mix-blend-mode:multiply" opacity="0.84">
<path d="M345.088 453.354L340.837 455.817L122.979 330.399L127.238 327.944L345.088 453.354Z" fill="#34A8D9"/>
</g>
<g style="mix-blend-mode:multiply" opacity="0.84">
<path d="M345.089 201.527L340.838 203.99V455.817L345.089 453.354V201.527Z" fill="#34A8D9"/>
</g>
<g style="mix-blend-mode:multiply" opacity="0.59">
<path d="M345.088 201.527L340.837 203.99L122.979 78.5716L127.238 76.1085L345.088 201.527Z" fill="#34A8D9"/>
</g>
<g style="mix-blend-mode:multiply" opacity="0.2">
<path d="M340.837 203.99L122.979 78.5715V330.399L340.837 455.817V203.99Z" fill="#34A8D9"/>
</g>
<path style="mix-blend-mode:screen" opacity="0.3" d="M340.837 203.99L122.979 78.5715V330.399L340.837 455.817V203.99Z" fill="url(#paint0_linear_287_27873)"/>
<path d="M130.05 21.1774H116.822V50.7174H130.05V21.1774Z" fill="#969DA1"/>
<path style="mix-blend-mode:multiply" opacity="0.5" d="M130.05 21.1774H116.822V50.7174H130.05V21.1774Z" fill="url(#paint1_linear_287_27873)"/>
<path d="M115.53 21.8318H114.059V28.5172H115.53V21.8318Z" fill="#414E52"/>
<path d="M117.732 21.9137H115.5V51.3065H117.732V21.9137Z" fill="#2E383B"/>
<path d="M119.153 22.38L117.73 23.2065V48.3114H119.153V22.38Z" fill="#414E52"/>
<path d="M123.854 13.3462L119.227 16.0138L122.668 21.7827L123.854 22.4701V13.3462Z" fill="#D4DBDF"/>
<path d="M55.8438 73.9075L102.458 59.2111V27.1671L55.8438 54.2441V73.9075Z" fill="#D4DBDF"/>
<path d="M93.0977 13.2399V24.835L97.504 27.3798L100.194 25.8251L105.532 20.4244L93.0977 13.2399Z" fill="#969DA1"/>
<path d="M107.846 27.5679V21.7499L102.811 24.6548L107.846 27.5679Z" fill="#D4DBDF"/>
<path d="M93.0989 24.835V13.2399L83.0762 19.0333L93.0989 24.835Z" fill="#D4DBDF"/>
<path style="mix-blend-mode:multiply" opacity="0.5" d="M93.0989 13.2399L83.0762 19.0333L93.0989 24.835L97.5052 27.3798L100.195 25.8251L105.533 20.4244L93.0989 13.2399Z" fill="url(#paint2_linear_287_27873)"/>
<path d="M80.0992 17.2822V5.69531L70.0684 11.4888L80.0992 17.2822Z" fill="#D4DBDF"/>
<path d="M91.4712 12.2663L80.0996 5.69543V17.2823L81.4485 18.0679L91.4712 12.2663Z" fill="#969DA1"/>
<path style="mix-blend-mode:multiply" opacity="0.5" d="M80.0992 5.69531L70.0684 11.4888L80.0992 17.2822L81.4481 18.0678L91.4708 12.2661L80.0992 5.69531Z" fill="url(#paint3_linear_287_27873)"/>
<path d="M60.9865 70.6343C59.5068 69.7669 56.4739 67.5821 58.3378 65.1354L48.9609 59.7184V69.055L55.4029 72.7782L60.9783 70.6343H60.9865Z" fill="#969DA1"/>
<path d="M47.4985 58.6629C47.4821 58.6138 47.4658 58.5728 47.4576 58.5237L47.057 55.7825C47.0243 55.5697 47.1224 55.357 47.3268 55.177L34.0586 47.5096V60.4304L39.2416 63.4253L47.4903 58.6547L47.4985 58.6629Z" fill="#969DA1"/>
<path d="M32.4145 46.5685L21.043 39.9895V52.9102L21.2392 53.0248L32.4145 46.5685Z" fill="#969DA1"/>
<path d="M21.0429 39.9895L9.85938 46.4458L21.0429 52.9102V39.9895Z" fill="#D4DBDF"/>
<path style="mix-blend-mode:multiply" opacity="0.5" d="M21.0429 39.9895L9.85938 46.4458L21.0429 52.9102L21.2391 53.0248L32.4145 46.5685L21.0429 39.9895Z" fill="url(#paint4_linear_287_27873)"/>
<path d="M34.0585 47.5179L23.0957 53.9742L34.0585 60.4387V47.5179Z" fill="#D4DBDF"/>
<path style="mix-blend-mode:multiply" opacity="0.5" d="M47.4575 58.5237L47.057 55.7825C47.0243 55.5697 47.1224 55.357 47.3267 55.177L34.0585 47.5096L23.0957 53.9741L34.0585 60.4385L39.2415 63.4335L47.4902 58.6629C47.4739 58.6138 47.4575 58.5728 47.4494 58.5237H47.4575Z" fill="url(#paint5_linear_287_27873)"/>
<path d="M48.9696 59.7101L40.8926 64.3825L48.9696 69.0467V59.7101Z" fill="#D4DBDF"/>
<path style="mix-blend-mode:multiply" opacity="0.5" d="M58.3464 65.1354L48.9696 59.7184L40.8926 64.3826L48.9696 69.0468L55.4116 72.77L60.987 70.6261C59.5073 69.7587 56.4743 67.5739 58.3383 65.1272L58.3464 65.1354Z" fill="url(#paint6_linear_287_27873)"/>
<path d="M68.5332 12.3888V46.5031L92.2165 30.432L90.7041 29.5564L92.3882 28.5826L93.9006 29.4582L95.9852 28.2553L68.5332 12.3888Z" fill="#969DA1"/>
<path d="M112.514 56.4781L115.947 58.4583V23.7631L114.795 24.4341L113.634 25.0969L112.514 25.7515V54.2687L113.699 54.9479L112.514 55.6271V56.4781Z" fill="#D4DBDF"/>
<path d="M106.301 55.8316V29.3356L102.5 27.1426L102.459 27.1671V58.0492L106.301 55.8316Z" fill="#969DA1"/>
<path d="M107.848 53.7775L110.145 55.1031L112.058 53.9985L112.516 54.2685V25.7513L110.701 24.6957L110.905 23.5174L107.848 21.7499V27.5679L108.608 28.0098L107.848 28.4516V53.7775Z" fill="#969DA1"/>
<path d="M107.382 54.8659L108.608 55.5696V28.0098L106.303 29.3354V55.4878L107.382 54.8659Z" fill="#D4DBDF"/>
<path d="M22.5801 39.0976L68.5324 12.3888V50.5372L48.8958 54.244L22.5801 39.0976Z" fill="#D4DBDF"/>
<path d="M55.8279 54.244C55.6971 54.2931 55.5663 54.3422 55.4191 54.3668L52.2227 54.9805V58.9246L55.8361 61.0112V54.2358H55.8279V54.244Z" fill="#C7CED2"/>
<path d="M50.4082 56.0444L52.2313 54.9888V58.9329L50.6535 58.0246L50.4082 56.0444Z" fill="#D4DBDF"/>
<path d="M159.888 45.1857L132.96 29.6301L132.943 32.936L140.971 37.5675L115.865 52.0839L116.47 53.0494L113.307 54.8824V71.0271L116.119 70.5198L159.888 45.1857Z" fill="#969DA1"/>
<path d="M115.866 52.0836L104.535 58.6299V68.1547L111.002 71.8943L111.852 71.4033C112.04 71.297 112.269 71.2151 112.522 71.1742L116.127 70.5196L140.98 56.1341V37.5345L115.874 52.0755L115.866 52.0836Z" fill="#D4DBDF"/>
<path d="M136.393 37.5184L129.452 33.5006L127.482 34.6381L125.839 33.6889L127.809 32.5514L125.553 31.2504V43.7783L136.393 37.5184Z" fill="#969DA1"/>
<path d="M74.2477 6.41541V3.38776L72.5391 1.33386V7.40553L74.2477 6.41541Z" fill="#969DA1"/>
<path d="M64.536 12.0205V8.99286L62.8438 6.93896V13.0025L64.536 12.0205Z" fill="#969DA1"/>
<path d="M11.0926 43.0746V40.0388L9.40039 37.9849V44.0484L11.0926 43.0746Z" fill="#969DA1"/>
<path d="M65.4668 8.453V11.4888L68.091 9.96683L65.4668 8.453Z" fill="#969DA1"/>
<path d="M12.0254 39.4985V42.5344L14.6496 41.0205L12.0254 39.4985Z" fill="#969DA1"/>
<path d="M75.1641 2.85583V5.88349L77.7883 4.36966L75.1641 2.85583Z" fill="#969DA1"/>
<path d="M75.1637 2.85583L74.248 3.38772V6.41537L75.1637 5.88349V2.85583Z" fill="#D4DBDF"/>
<path d="M65.4652 8.453L64.5332 8.99307V12.0207L65.4652 11.4888V8.453Z" fill="#D4DBDF"/>
<path d="M12.0257 39.4985V42.5344L11.0938 43.0744V40.0386L12.0257 39.4985Z" fill="#D4DBDF"/>
<path d="M5.79784 43.0991V44.1056L4.93945 43.6065L5.79784 43.0991Z" fill="#D4DBDF"/>
<path d="M15.2701 37.6328V38.7129L14.4199 38.1729L15.2701 37.6328Z" fill="#D4DBDF"/>
<path d="M68.7132 6.58728V7.70833L67.7812 7.11916L68.7132 6.58728Z" fill="#D4DBDF"/>
<path d="M123.854 22.4701L132.421 27.4289L140.326 22.8628L123.854 13.3462V22.4701Z" fill="#969DA1"/>
<path style="mix-blend-mode:multiply" opacity="0.5" d="M123.854 13.3462L119.227 16.0138L122.668 21.7827L123.854 22.4701L132.421 27.4289L140.327 22.8628L123.854 13.3462Z" fill="url(#paint7_linear_287_27873)"/>
<path d="M141.971 32.9604L161.534 44.2691L162.139 43.9172L160.773 43.1235L167.869 39.0157V38.7948L141.971 23.8284V32.9604Z" fill="#969DA1"/>
<path d="M174.718 43.5981L173.312 42.788L173.304 41.9207L170.369 40.2186V45.9875L170.475 46.0448L174.718 43.5981Z" fill="#969DA1"/>
<path d="M174.719 46.2657L174.621 46.3148H174.719V46.2657Z" fill="#969DA1"/>
<path d="M186.966 49.8009L177.777 44.4902V56.3144L179.282 57.19L186.966 49.8009Z" fill="#969DA1"/>
<path d="M134.072 28.3944L141.969 32.9604V23.8284L134.072 28.3944Z" fill="#D4DBDF"/>
<path style="mix-blend-mode:multiply" opacity="0.5" d="M167.868 38.7948L141.969 23.8284L134.072 28.3944L141.969 32.9604L161.532 44.2691L162.137 43.9172L160.772 43.1235L167.868 39.0157V38.7948Z" fill="url(#paint8_linear_287_27873)"/>
<path d="M165.383 43.1072L170.37 40.2186V45.9875L165.383 43.1072Z" fill="#D4DBDF"/>
<g style="mix-blend-mode:multiply" opacity="0.5">
<path d="M173.313 42.788L173.304 41.9207L170.37 40.2186L165.383 43.1072L170.37 45.9875L170.476 46.0448L174.719 43.5981L173.313 42.788Z" fill="url(#paint9_linear_287_27873)"/>
<path d="M174.719 46.3148V46.2657L174.621 46.3148H174.719Z" fill="url(#paint10_linear_287_27873)"/>
</g>
<path d="M167.541 50.4063L177.776 44.4901V56.3143L167.541 50.4063Z" fill="#D4DBDF"/>
<path style="mix-blend-mode:multiply" opacity="0.5" d="M177.776 44.4901L167.541 50.4063L177.776 56.3143L179.28 57.1899L186.965 49.8008L177.776 44.4901Z" fill="url(#paint11_linear_287_27873)"/>
<path d="M129.455 33.5007L127.484 34.6382V42.6655L129.455 41.5281V33.5007Z" fill="#D4DBDF"/>
<path d="M118.408 90.887L123.435 88.8331C122.021 88.0476 118.694 85.7973 121.408 83.4406L110.715 77.2626V86.4355L118.416 90.887H118.408Z" fill="#969DA1"/>
<path d="M109.572 76.0186L108.73 73.8174C108.607 73.5065 108.779 73.171 109.172 72.9501L109.36 72.8355L87.4258 60.1603V72.9746L101.127 80.8956L109.572 76.0105V76.0186Z" fill="#969DA1"/>
<path d="M76.332 66.5755L87.4257 60.1683V72.9827L76.332 66.5755Z" fill="#D4DBDF"/>
<path style="mix-blend-mode:multiply" opacity="0.5" d="M108.73 73.8255C108.607 73.5146 108.779 73.1791 109.171 72.9581L109.359 72.8436L87.4257 60.1683L76.332 66.5755L87.4257 72.9827L101.127 80.9037L109.572 76.0185L108.73 73.8173V73.8255Z" fill="url(#paint12_linear_287_27873)"/>
<path d="M102.77 81.8531L110.708 77.2626V86.4437L102.77 81.8531Z" fill="#D4DBDF"/>
<path style="mix-blend-mode:multiply" opacity="0.5" d="M121.401 83.4486L110.708 77.2705L102.77 81.8611L110.708 86.4517L118.409 90.9031L123.436 88.8492C122.022 88.0637 118.695 85.8134 121.409 83.4567L121.401 83.4486Z" fill="url(#paint13_linear_287_27873)"/>
<path d="M116.577 70.2579V52.943L114.934 52.5994V70.7326L116.119 70.5198L116.577 70.2579Z" fill="#969DA1"/>
<path d="M89.0678 59.2111V59.2193L99.1068 65.0209V61.7723L87.7598 55.2179V58.4583L89.0678 59.2111Z" fill="#969DA1"/>
<path d="M84.9551 56.8381L87.7591 58.4583V55.2179L84.9551 56.8381Z" fill="#D4DBDF"/>
<path d="M99.1074 61.7722V65.0208L104.536 68.1548V58.63L99.1074 61.7722Z" fill="#D4DBDF"/>
<path d="M84.4578 59.211L80.3457 56.838V61.5922L84.4578 59.211Z" fill="#969DA1"/>
<path d="M121.441 48.868V67.4349L122.586 66.7803V49.5309L121.441 48.868Z" fill="#969DA1"/>
<path d="M117.477 72.2463L114.027 72.8682V76.5096L114.068 76.5341L117.992 74.2675V72.0826C117.837 72.1481 117.673 72.2136 117.485 72.2463H117.477Z" fill="#969DA1"/>
<path d="M164.564 45.3085L164.441 45.2349V47.3951L166.314 46.315L164.564 45.3085Z" fill="#969DA1"/>
<path d="M117.984 72.091L164.444 45.2349V47.3951L117.984 74.2758V72.091Z" fill="#D4DBDF"/>
<path d="M114.027 72.8763L114.067 76.5423L112.841 75.8303L112.105 73.9237L114.027 72.8763Z" fill="#D4DBDF"/>
<path style="mix-blend-mode:multiply" opacity="0.5" d="M117.983 72.091C117.828 72.1564 117.664 72.2219 117.476 72.2546L114.026 72.8765L112.113 73.9239L112.841 75.8305L114.067 76.5342L117.991 74.2676L164.45 47.3951V45.2349L117.991 72.091H117.983Z" fill="url(#paint14_linear_287_27873)"/>
<path d="M132.961 29.6301L132.944 32.936L130.148 31.2585L132.961 29.6301Z" fill="#D4DBDF"/>
<path d="M92.534 27.6743C92.5013 27.7807 92.4195 27.887 92.2723 27.977C91.9045 28.1898 91.2995 28.1898 90.9316 27.977L68.3847 14.9418L27.223 38.9011L49.7699 51.9364C50.146 52.1492 50.146 52.501 49.7699 52.7138C49.4021 52.9265 48.7971 52.9265 48.4292 52.7138L25.2037 39.2939C25.0157 39.1875 24.9258 39.0484 24.9258 38.9093V40.4559L48.8543 54.2849L50.2114 53.5075C50.3913 53.4011 50.612 53.3275 50.8491 53.2784L54.0455 52.6647L55.9095 51.5845L54.3971 50.709L56.0811 49.7352L57.5935 50.6108L92.2151 30.4319L90.7109 29.5481L92.395 28.5744L92.5503 28.6644V27.6743H92.534Z" fill="url(#paint15_linear_287_27873)"/>
<path style="mix-blend-mode:multiply" opacity="0.5" d="M114.754 24.4339L113.601 25.0967L112.481 25.7431L110.667 24.6957L110.871 23.5174L107.805 21.7499L102.778 24.6548L107.805 27.5597L108.574 28.0016L107.805 28.4434L106.268 29.3354L102.467 27.1424L55.8525 54.2439H55.8443C55.7135 54.293 55.5827 54.3421 55.4355 54.3667L52.2391 54.9804L50.416 56.036L50.6613 58.0162L52.2391 58.9245L55.8525 61.0112V73.8991L82.8876 61.4285V55.365L86.689 53.172L87.7681 52.5501L88.9944 53.2538L90.5313 54.1376L92.4443 53.0329L92.9021 53.3029L94.0875 53.9821L92.9021 54.6695V55.5123L99.1152 59.1046L116.054 49.2933L115.915 23.7629L114.762 24.4257L114.754 24.4339Z" fill="url(#paint16_linear_287_27873)"/>
<path d="M116.119 70.5199L156.79 46.9779V44.6458H156.782C156.757 44.7603 156.667 44.8667 156.512 44.9567L111.908 70.7736C111.532 70.9863 110.936 70.9863 110.568 70.7736L87.0397 57.1737C86.8516 57.0673 86.7617 56.9282 86.7617 56.7891V57.8774L89.0753 59.2112L111.017 71.8946L111.867 71.4037C112.056 71.2973 112.284 71.2155 112.538 71.1745L116.143 70.5199H116.119Z" fill="url(#paint17_linear_287_27873)"/>
<path d="M140.973 52.4029L154.495 44.5719L131.637 31.3648C131.465 31.2666 131.384 31.1439 131.367 31.0129V31.9949L140.965 37.5428V52.4029H140.973Z" fill="#447120"/>
<path style="mix-blend-mode:multiply" opacity="0.5" d="M132.96 29.6138V32.8705L140.988 37.5102L126.289 46.0367L126.877 47.076L122.577 49.5308L121.433 48.868L119.847 49.8745L120.893 50.4882L116.56 52.9431L114.917 52.5994L104.518 58.6383L99.0902 61.7805L87.7513 55.2261L84.9473 56.8463L87.7513 58.4665L89.0593 59.2193L99.0984 65.0209L104.527 68.1632L106.17 69.1124L110.993 71.9027L111.843 71.4117C112.031 71.3054 112.26 71.2235 112.514 71.1826L113.299 71.0435L116.111 70.5362L159.872 45.1857L132.952 29.6301L132.96 29.6138Z" fill="url(#paint18_linear_287_27873)"/>
<path d="M131.643 30.5875C131.275 30.8003 131.275 31.1522 131.643 31.3649L154.501 44.572L111.238 69.6115L88.3806 56.4044C88.0045 56.1917 87.4077 56.1917 87.0399 56.4044C86.6638 56.6172 86.6638 56.969 87.0399 57.1818L110.568 70.7817C110.936 70.9944 111.541 70.9944 111.909 70.7817L156.512 44.9648C156.88 44.752 156.88 44.4002 156.512 44.1874L132.984 30.5875C132.608 30.3748 132.011 30.3748 131.635 30.5875H131.643Z" fill="#96D150"/>
<path d="M50.0319 53.5894V52.3784C50.0156 52.5011 49.9256 52.6239 49.7621 52.7139C49.3942 52.9266 48.7893 52.9266 48.4214 52.7139L25.1959 39.294C25.0079 39.1876 24.918 39.0485 24.918 38.9094V40.456L48.8465 54.285L50.0401 53.5976L50.0319 53.5894Z" fill="#447120"/>
<path style="mix-blend-mode:multiply" opacity="0.5" d="M68.5324 12.3888L22.5801 39.0976L48.8958 54.244L50.1956 53.4912C50.3755 53.3848 50.5962 53.3112 50.8333 53.2621L54.0297 52.6484L55.8937 51.5683L54.3813 50.6927L56.0653 49.7189L57.5777 50.5945L92.2157 30.4156L90.7033 29.54L92.3874 28.5663L93.8997 29.4418L95.9844 28.239L68.5324 12.3806V12.3888Z" fill="url(#paint19_linear_287_27873)"/>
<path d="M67.7064 13.7717L25.1958 38.5085C24.828 38.7212 24.828 39.0731 25.1958 39.2859L48.4213 52.7057C48.7974 52.9185 49.3942 52.9185 49.762 52.7057C50.1381 52.493 50.1381 52.1411 49.762 51.9283L27.2151 38.8931L68.3768 14.9337L90.9237 27.969C91.2916 28.1817 91.8966 28.1817 92.2644 27.969C92.6405 27.7562 92.6405 27.4044 92.2644 27.1916L69.039 13.7717C68.6711 13.559 68.0661 13.559 67.6901 13.7717H67.7064Z" fill="#96D150"/>
<path d="M115.948 23.7548L74.8353 0L72.5299 1.3338L74.2385 3.3877L75.1623 2.85581L77.7865 4.36964L70.3962 8.64108L67.772 7.12726L68.704 6.58719L65.1396 5.60525L62.8343 6.93905L64.5265 8.99295L65.4585 8.45288L68.0827 9.96671L16.9555 39.6868L14.3313 38.173L15.2633 37.6329L11.6989 36.651L9.39357 37.9848L11.0858 40.0468L12.0178 39.5068L14.642 41.0206L7.54599 45.1202L4.92178 43.6064L5.78834 43.1072L2.29757 42.0844L-0.0078125 43.4182L54.9862 75.2003L70.2327 69.3496L50.6452 58.0327L50.359 56.077L52.223 54.9969L55.4194 54.3832C55.6565 54.3341 55.8772 54.2604 56.0571 54.1541L102.5 27.1425L106.301 29.3355L108.607 28.0017L102.811 24.6549L107.838 21.75L110.904 23.5175L110.7 24.6958L112.514 25.7432L113.634 25.0968L114.787 24.434L115.94 23.7712L115.948 23.7548ZM47.4569 58.5237C47.4569 58.5728 47.4814 58.6137 47.4978 58.6628L39.2491 63.4334L22.8825 53.974L34.0579 47.5096L47.3261 55.1769C47.1217 55.3569 47.0236 55.5697 47.0563 55.7824L47.4569 58.5237ZM55.4113 72.77L40.8923 64.3826L48.9693 59.7184L58.3461 65.1354C56.474 67.5739 59.5152 69.7669 60.9949 70.6343L55.4194 72.7782L55.4113 72.77ZM21.0431 39.9896L32.4229 46.5686L21.2475 53.033L9.86772 46.454L21.0431 39.9896ZM97.5049 27.3552L83.0758 19.0169L93.1067 13.2235L105.541 20.408L99.3525 23.9839C98.7148 24.3521 98.7148 24.9495 99.3525 25.3177L100.195 25.8087L97.5049 27.3634V27.3552ZM95.968 28.239L93.8833 29.4419L92.3709 28.5663L90.6869 29.5401L92.1993 30.4156L57.5777 50.5945L56.0653 49.719L54.3812 50.6927L55.8936 51.5683L54.0297 52.6484L50.8332 53.2621C50.5961 53.3112 50.3754 53.3849 50.1955 53.4913L48.8385 54.2686L22.5718 39.0894L68.516 12.3806L95.968 28.2472V28.239ZM80.0837 5.69526L91.4635 12.2743L81.4326 18.0677L70.0529 11.4887L80.0837 5.69526Z" fill="#FBFFFF"/>
<path d="M191.077 49.5062L123.853 10.6704L111.345 17.904L130.001 28.6808L125.537 31.2584L127.794 32.5595L125.823 33.6969L127.467 34.6461L129.437 33.5087L136.377 37.5183L99.1071 59.1047L92.1664 55.0951L94.0794 53.9904L92.4362 53.0412L90.5232 54.1459L87.7682 52.5502L80.3534 56.838L84.4655 59.2192L74.034 65.25L70.1999 63.0324L67.8945 64.3662L118.049 93.3499L133.026 87.2209L131.145 85.6825L130.41 85.9853L116.046 77.6879L163.061 50.4718L179.918 60.2175L191.077 49.5062ZM102.77 81.853L110.708 77.2624L121.401 83.4404C118.686 85.7971 122.022 88.0392 123.428 88.8329L118.4 90.8868L102.761 81.8448L102.77 81.853ZM109.359 72.8437L109.171 72.9582C108.778 73.1873 108.615 73.5147 108.729 73.8256L109.571 76.0268L101.126 80.9119L76.3312 66.5838L87.4249 60.1766L109.359 72.8518V72.8437ZM112.106 73.9238L113.871 72.9009L117.477 72.2463C117.73 72.2054 117.959 72.1236 118.139 72.0172L164.443 45.2184L164.565 45.292L166.315 46.2985L114.059 76.5341L112.833 75.8304L112.106 73.9238ZM159.881 45.1856L116.12 70.5197L112.514 71.1744C112.261 71.2235 112.032 71.2971 111.844 71.4035L110.994 71.8944L89.0517 59.2192L84.9396 56.838L87.7437 55.2178L99.0826 61.7723L114.901 52.6402L116.577 52.9921L120.853 50.5209L119.708 49.858L121.417 48.8679L122.561 49.5307L126.837 47.0595L126.232 46.0858L140.964 37.5265L130.115 31.2584L132.936 29.6301L159.856 45.1856H159.881ZM140.318 22.8465L132.421 27.4125L122.66 21.7745C123.142 21.2754 123.78 20.4571 123.796 19.6634C123.812 18.6405 120.501 16.7093 119.226 16.0056L123.853 13.3298L140.318 22.8465ZM168.056 38.8767L160.764 43.0908L162.137 43.8846L161.524 44.2364L134.064 28.3617L141.961 23.7957L168.056 38.8767ZM173.296 41.9043V42.7717L174.711 43.5818L170.468 46.0367L166.871 43.9582L165.595 43.2218L165.375 43.099L170.361 40.2187L173.296 41.9125V41.9043ZM186.957 49.7926L179.272 57.1735L167.541 50.3899L177.776 44.4737L186.965 49.7844L186.957 49.7926Z" fill="#FBFFFF"/>
<path d="M120.656 21.0872C119.626 21.6845 118.367 20.8908 118.367 20.8908L118.285 20.8417L117.394 21.3572L119.152 22.3719L117.729 23.1902L115.498 21.8973L114.075 22.7156L108.418 19.4424L111.263 17.7977L114.271 19.5406L115.162 19.0251L115.081 18.976C115.081 18.976 113.715 18.2478 114.746 17.6586C115.776 17.0612 118.204 17.3967 119.602 18.2723C121.106 19.0742 121.694 20.4817 120.656 21.079V21.0872Z" fill="#5B686C"/>
<path d="M370.743 535.911L345.915 520.642L319.166 557.334L324.782 562.587L370.743 535.911Z" fill="#EEF5F9"/>
<path d="M342.088 480.153L307.785 514.316L328.509 526.042L374.968 499.08L342.088 480.153Z" fill="#EEF5F9"/>
<path d="M368.658 505.389V507.14L366.974 508.114V506.363L351.973 515.036L350.289 516.01L348.425 517.082L343.43 520.053L370.743 535.911V504.186L368.658 505.389Z" fill="#969DA1"/>
<path d="M319.166 571.531V568.495L316.533 570.017L319.166 571.531Z" fill="#969DA1"/>
<path d="M315.601 570.557L313.9 571.539L319.165 574.567L318.233 572.063L315.601 570.557Z" fill="#969DA1"/>
<path d="M320.145 518.563C317.096 518.964 316.72 515.233 316.712 513.523L312.068 517.287V524.749L320.145 529.397V518.563Z" fill="#969DA1"/>
<path d="M323.244 548.422V533.088C322.99 533.178 322.753 533.153 322.582 533.022L320.415 531.304C320.415 531.304 320.35 531.238 320.317 531.197L312.068 535.968V541.573L323.252 548.422H323.244Z" fill="#969DA1"/>
<path d="M312.068 556.785V557.039L323.244 563.471V550.321L312.068 556.785Z" fill="#969DA1"/>
<path d="M378.744 533.972L377.035 534.954L382.292 537.989L381.376 535.485L378.744 533.972Z" fill="#969DA1"/>
<path d="M382.292 531.918L379.668 533.44L382.292 534.945V531.918Z" fill="#969DA1"/>
<path d="M382.27 516.125L372.264 521.902V523.489L382.295 529.258V516.133L382.27 516.125Z" fill="#969DA1"/>
<path d="M372.264 503.327V508.433L382.295 514.202V499.833L376.106 503.409C375.468 503.777 374.953 503.474 374.953 502.746V501.772L372.264 503.327Z" fill="#969DA1"/>
<path d="M382.295 514.21L372.264 508.441V520.003L382.295 514.21Z" fill="#EEF5F9"/>
<path style="mix-blend-mode:multiply" opacity="0.5" d="M382.295 499.841L376.106 503.417C375.468 503.785 374.953 503.482 374.953 502.754V501.78L372.264 503.335V520.012L382.295 514.218V499.849V499.841Z" fill="url(#paint20_linear_287_27873)"/>
<path d="M382.294 529.25L372.271 523.481V535.052L382.294 529.25Z" fill="#EEF5F9"/>
<path style="mix-blend-mode:multiply" opacity="0.5" d="M382.295 516.133L382.27 516.125L372.264 521.902V523.489V535.052L382.295 529.258V516.133Z" fill="url(#paint21_linear_287_27873)"/>
<path d="M382.294 534.945L379.67 533.44L378.746 533.972L381.378 535.485L382.294 534.945Z" fill="#EEF5F9"/>
<path d="M320.145 529.406L312.068 524.75V534.07L320.145 529.406Z" fill="#EEF5F9"/>
<path style="mix-blend-mode:multiply" opacity="0.5" d="M316.712 513.523L312.068 517.287V534.07L320.145 529.397V518.563C317.096 518.964 316.72 515.233 316.712 513.523Z" fill="url(#paint22_linear_287_27873)"/>
<path d="M312.068 541.573L323.244 548.422L312.068 554.887V541.573Z" fill="#EEF5F9"/>
<path style="mix-blend-mode:multiply" opacity="0.5" d="M322.582 533.022L320.415 531.304C320.415 531.304 320.35 531.238 320.317 531.197L312.068 535.968V554.887L323.252 548.43V533.096C322.998 533.186 322.761 533.161 322.59 533.03L322.582 533.022Z" fill="url(#paint23_linear_287_27873)"/>
<path d="M312.068 557.039L323.244 563.471L312.068 569.935V557.039Z" fill="#EEF5F9"/>
<path style="mix-blend-mode:multiply" opacity="0.5" d="M312.068 556.785V557.039V569.935L323.244 563.471V550.321L312.068 556.785Z" fill="url(#paint24_linear_287_27873)"/>
<path d="M316.532 570.017L319.164 571.531L318.232 572.063L315.6 570.557L316.532 570.017Z" fill="#EEF5F9"/>
<path d="M312.935 575.131L312.068 574.567V575.63L312.935 575.131Z" fill="#EEF5F9"/>
<path d="M322.403 569.657L321.471 569.141V570.197L322.403 569.657Z" fill="#EEF5F9"/>
<path d="M371.675 541.09L371.683 541.082L369.067 539.568L367.375 540.542L372.591 543.554L371.675 541.09Z" fill="#969DA1"/>
<path d="M371.672 541.091L371.68 541.082L369.064 539.569L369.964 539.045L372.604 540.551L371.672 541.091Z" fill="#EEF5F9"/>
<path d="M372.605 540.55V537.523H372.597L369.965 539.045L372.589 540.559L372.605 540.55Z" fill="#969DA1"/>
<path d="M325.86 528.939L322.451 527.09V528.784L324.004 530.019L325.86 528.939Z" fill="#EEF5F9"/>
<path d="M325.86 528.939L322.451 527.09V522.573L328.509 526.042L325.86 528.939Z" fill="#D5DCE0"/>
<path style="mix-blend-mode:multiply" opacity="0.5" d="M322.451 491.609V522.573V527.09V528.784L324.004 530.019L325.86 528.939L328.509 526.042L374.968 499.08L349.2 484.244L322.451 491.609Z" fill="url(#paint25_linear_287_27873)"/>
<path d="M345.744 494.268L347.657 493.164L345.744 492.059V494.268Z" fill="#EEF5F9"/>
<path d="M344.369 465.784L342.488 468.009L356.468 476.061L359.664 474.212L360.196 475.227L385.301 460.71V469.99L388.122 471.618V440.499L344.369 465.784Z" fill="#969DA1"/>
<path d="M385.303 469.99V473.247L388.123 471.618L385.303 469.99Z" fill="#EEF5F9"/>
<path d="M383.006 477.281V474.679L381.036 475.808V473.91L383.006 472.78V472.142L376.597 468.452L365.389 474.932V482.96L367.302 481.847V483.753L366.509 484.204L387.461 496.265V474.703L383.006 477.281Z" fill="#B0B7BB"/>
<path d="M338.139 464.794L341.188 466.545L343.551 463.746L341.548 462.593L338.139 464.565V464.794Z" fill="#BDC4C8"/>
<path d="M340.625 494.89H340.633V496.404L343.437 498.024V484.915L340.625 483.295V494.89Z" fill="#969DA1"/>
<path d="M334.199 501.265L338.319 503.638V498.884L334.199 501.265Z" fill="#969DA1"/>
<path d="M327.889 462.535L335.827 467.11V454.745C332.434 455.915 332.156 451.906 332.181 450.286L327.889 453.616V462.535Z" fill="#969DA1"/>
<path d="M338.794 470.595C338.402 470.824 338.034 470.8 337.821 470.538L336.341 468.705L336.121 468.836L327.896 473.59V489.457L338.99 495.839V470.481L338.802 470.587L338.794 470.595Z" fill="#969DA1"/>
<path d="M338.982 495.84L327.889 489.457V502.247L338.982 495.84Z" fill="#EEF5F9"/>
<path d="M327.889 462.535V471.692L335.827 467.11L327.889 462.535Z" fill="#EEF5F9"/>
<path d="M390.394 439.206L389.781 439.558V471.307L397.687 466.741L397.678 436.579L390.394 440.794V439.206Z" fill="#969DA1"/>
<path d="M392.668 430.892V435.049V436.522V436.776L397.655 433.895V430.499L396.911 430.058V428.437L392.668 430.892Z" fill="#969DA1"/>
<path d="M392.177 484.572C392.512 484.76 392.724 485.414 392.855 486.241L396.526 488.352L397.678 487.689V468.656L389.781 473.222V484.473L389.814 484.49C390.492 484.326 391.498 484.187 392.177 484.572Z" fill="#969DA1"/>
<path d="M387.418 431.301L397.653 425.393V414.772L387.418 417.742V431.301Z" fill="#969DA1"/>
<path d="M329.221 470.931L327.889 470.162V471.692L329.221 470.931Z" fill="#EEF5F9"/>
<path d="M397.678 487.681L389.781 483.132V484.49C390.46 484.326 391.482 484.179 392.177 484.564C393.068 485.063 393.084 488.892 393.059 490.349L397.687 487.673L397.678 487.681Z" fill="#EEF5F9"/>
<path d="M389.781 462.192V471.307L397.687 466.741L389.781 462.192Z" fill="#EEF5F9"/>
<path d="M397.655 433.895L392.668 431.031V435.049V436.522V436.776L397.655 433.895Z" fill="#EEF5F9"/>
<path d="M397.653 425.393L387.418 419.502V431.301L397.653 425.393Z" fill="#EEF5F9"/>
<path style="mix-blend-mode:multiply" opacity="0.5" d="M397.679 487.681L393.052 490.357C393.076 488.9 393.068 485.071 392.169 484.572C391.474 484.187 390.452 484.334 389.773 484.498V473.214L397.671 468.648V487.681H397.679Z" fill="url(#paint26_linear_287_27873)"/>
<path style="mix-blend-mode:multiply" opacity="0.5" d="M338.982 495.84L327.896 502.247V473.59L336.341 468.713L337.821 470.538C338.034 470.8 338.402 470.825 338.794 470.595L338.982 470.489V495.848V495.84Z" fill="url(#paint27_linear_287_27873)"/>
<path style="mix-blend-mode:multiply" opacity="0.5" d="M397.688 466.741L389.791 471.307V439.566L390.396 439.214V440.802L397.688 436.587V466.749V466.741Z" fill="url(#paint28_linear_287_27873)"/>
<path d="M340.633 496.404V499.644L343.437 498.024L340.633 496.404Z" fill="#EEF5F9"/>
<path d="M390.437 436.579V436.432V434.419L388.564 435.499L390.437 436.579Z" fill="#969DA1"/>
<path d="M388.564 435.499L341.549 462.592L343.552 463.746L390.436 436.579L388.564 435.499Z" fill="#EEF5F9"/>
<path d="M341.188 466.545L339.422 467.568L338.139 465.972V464.794L341.188 466.545Z" fill="#EEF5F9"/>
<path style="mix-blend-mode:multiply" opacity="0.5" d="M327.889 453.616L332.181 450.286C332.156 451.906 332.434 455.915 335.827 454.745V467.11L327.889 471.7V453.624V453.616Z" fill="url(#paint29_linear_287_27873)"/>
<path style="mix-blend-mode:multiply" opacity="0.5" d="M397.653 425.393L387.418 431.31V417.751L397.653 414.78V425.401V425.393Z" fill="url(#paint30_linear_287_27873)"/>
<path d="M386.103 471.921V445.507L363.18 458.697L386.242 472.314C386.152 472.232 386.103 472.101 386.103 471.929V471.921Z" fill="#447120"/>
<path style="mix-blend-mode:multiply" opacity="0.5" d="M397.655 433.895L392.668 436.776V435.049V430.892L396.911 428.446V430.066L397.655 430.508V433.904V433.895Z" fill="url(#paint31_linear_287_27873)"/>
<path style="mix-blend-mode:multiply" opacity="0.5" d="M338.139 465.972V464.557L390.435 434.411V436.571L344.09 463.28C343.902 463.386 343.722 463.55 343.559 463.738L341.196 466.537L339.43 467.56L338.147 465.972H338.139Z" fill="url(#paint32_linear_287_27873)"/>
<path d="M365.387 474.932L364.283 475.53L386.037 488.123L387.46 487.305L365.73 474.736L365.387 474.932Z" fill="#4E5B5F"/>
<path d="M361.807 476.962L386.038 490.709V488.123L364.284 475.53L361.807 476.962Z" fill="#2E383B"/>
<path d="M365.389 480.407L384.617 491.527L386.039 490.709L365.389 478.762V480.407Z" fill="#4E5B5F"/>
<path d="M369.189 451.439L344.369 465.792L342.007 468.591C341.843 468.787 341.655 468.942 341.467 469.049L340.625 469.54V483.295L343.437 484.915L348.866 481.781L385.302 460.719L369.189 451.448V451.439Z" fill="#EEF5F9"/>
<path d="M346.942 464.295L345.381 465.203L361.265 474.4L361.805 472.764L346.942 464.295Z" fill="#B0B7BB"/>
<path d="M352.96 460.817L351.832 461.472L367.765 470.669V469.352L352.96 460.817Z" fill="#969DA1"/>
<path d="M381.035 475.808V473.909L383.006 472.78V464.753L372.133 471.029L383.006 477.281V474.679L381.035 475.808Z" fill="#969DA1"/>
<path d="M383.005 472.78L376.048 468.771L374.078 469.908L381.035 473.909L383.005 472.78Z" fill="#EEF5F9"/>
<path style="mix-blend-mode:multiply" opacity="0.5" d="M383.005 477.281V474.679L381.034 475.808V473.909L383.005 472.78V472.142V464.753L374.257 469.802L365.387 474.932L358.814 477.281L367.3 481.847V483.753L366.507 484.203L387.46 496.265V474.703L383.005 477.281Z" fill="url(#paint33_linear_287_27873)"/>
<path d="M365.379 480.333V482.886L367.292 481.773V483.672L365.379 484.784V486.871L384.607 498V491.454L365.379 480.333Z" fill="#2E383B"/>
<path d="M362.664 476.471L359.148 478.5L381.189 491.085L384.614 489.105L362.664 476.471Z" fill="#EEF5F9"/>
<path d="M359.151 478.5L354.385 481.257L382.311 497.132V491.723L359.151 478.5Z" fill="#969DA1"/>
<path d="M355.415 480.652L352.938 482.084L374.969 494.678L377.275 493.344L355.415 480.652Z" fill="#EEF5F9"/>
<path d="M349.199 484.244L374.967 499.072V494.678L352.935 482.084L349.199 484.244Z" fill="#969DA1"/>
<path d="M377.273 500.045L382.309 497.132L377.273 494.236V500.045Z" fill="#EEF5F9"/>
<path d="M325.925 533.382C325.925 532.949 326.228 532.433 326.595 532.22C326.963 532.008 327.266 532.179 327.266 532.605V558.667L368.452 534.773V508.711C368.452 508.277 368.754 507.762 369.122 507.549C369.294 507.451 369.441 507.434 369.564 507.492L368.665 506.976V507.164L366.98 508.138V506.387L332.334 526.5V528.252L330.65 529.225V527.474L328.786 528.554L326.661 531.017C326.497 531.197 326.326 531.353 326.146 531.459L324.797 532.245V558.07L325.941 558.855V533.39L325.925 533.382Z" fill="url(#paint34_linear_287_27873)"/>
<path d="M325.926 560.222V533.382C325.926 532.949 326.228 532.433 326.596 532.22C326.751 532.13 326.899 532.114 327.013 532.147L325.967 531.549L324.781 532.237V559.878L326.057 560.615C325.975 560.533 325.926 560.402 325.926 560.23V560.222Z" fill="#447120"/>
<path style="mix-blend-mode:multiply" opacity="0.5" d="M368.656 505.389V507.14L366.972 508.114V506.363L332.334 526.492V528.243L330.65 529.217V527.466L328.786 528.546L326.661 531.009C326.497 531.189 326.326 531.345 326.146 531.451L324.797 532.229V562.587L370.757 535.919V504.194L368.673 505.397L368.656 505.389Z" fill="url(#paint35_linear_287_27873)"/>
<path d="M369.131 535.944L326.604 560.615C326.236 560.828 325.934 560.656 325.934 560.23V533.391C325.934 532.957 326.236 532.441 326.604 532.229C326.972 532.016 327.274 532.188 327.274 532.613V558.676L368.461 534.782V508.719C368.461 508.286 368.763 507.77 369.131 507.557C369.507 507.345 369.801 507.516 369.801 507.942V534.782C369.801 535.215 369.499 535.731 369.131 535.952V535.944Z" fill="#96D150"/>
<path d="M322.582 533.022C322.754 533.153 322.983 533.178 323.244 533.088V548.422L312.061 554.879V535.96L320.31 531.189C320.31 531.189 320.375 531.263 320.408 531.296L322.574 533.014L322.582 533.022ZM316.704 513.522C316.713 515.233 317.089 518.964 320.138 518.563V529.397L312.061 534.07V517.287L316.704 513.522ZM312.061 569.935V556.785L323.244 550.321V563.471L312.061 569.927V569.935ZM374.968 501.756V502.729C374.968 503.466 375.483 503.76 376.121 503.392L382.31 499.816V514.185L372.279 519.979V503.302L374.968 501.747V501.756ZM370.742 535.927L324.781 562.587V532.228L326.13 531.443C326.31 531.345 326.49 531.189 326.645 531.001L328.771 528.538L330.635 527.458V529.209L332.319 528.235V526.484L366.957 506.362V508.114L368.641 507.14V505.389L370.725 504.186V535.911L370.742 535.927ZM372.279 535.035V521.885L382.31 516.092V529.242L372.279 535.035ZM383.462 489.792L382.31 490.455L381.19 491.101V493.204L382.31 493.614V497.157L377.274 500.062V493.36L374.968 494.694V499.088L328.509 526.042C328.329 526.149 328.158 526.296 327.994 526.484L325.869 528.947L324.005 530.027L322.451 528.8V506.166L309.764 516.452V580.008L312.069 578.674L312.936 575.139L312.069 575.638V572.611L319.165 568.511V571.539L318.233 572.079L319.165 574.575L321.47 573.241L322.402 569.665L321.47 570.205V567.177L372.614 537.515V540.55L371.682 541.09L372.614 543.586L374.919 542.252L375.851 538.677L374.919 539.217V536.189L382.31 531.917V534.945L381.386 535.477L382.31 537.981L384.615 536.647V489.129L383.462 489.792Z" fill="#D4DBDF"/>
<path d="M385.156 415.623V435.106L338.141 462.265V445.662L338.77 445.171L338.378 442.766L325.592 452.683V510.659L327.897 509.325V504.898L338.329 498.867V503.621L345.743 499.334V496.15L347.656 495.046V493.147L345.743 494.252V486.225L383.014 464.696V472.723L381.044 473.86V475.759L383.014 474.621V477.232L387.477 474.654V496.216L399.985 488.982V411.294L385.156 415.607V415.623ZM327.897 453.616L332.189 450.286C332.165 451.906 332.443 455.915 335.835 454.745V467.11L327.897 471.7V453.624V453.616ZM338.991 495.839L327.905 502.247V473.59L336.35 468.713L337.83 470.546C338.042 470.808 338.41 470.824 338.803 470.604L338.991 470.497V495.856V495.839ZM338.149 465.972V464.556L390.404 434.37V436.53L344.1 463.28C343.912 463.386 343.732 463.55 343.569 463.738L341.206 466.537L339.44 467.56L338.157 465.972H338.149ZM388.148 471.618L385.327 473.247V460.711L372.599 467.838L372.059 466.831L367.784 469.303V470.62L366.075 471.61V470.293L361.799 472.764L361.26 474.392L343.438 484.907V498.016L340.634 499.636V494.882V469.532L341.476 469.041C341.664 468.934 341.844 468.771 342.016 468.582L344.378 465.784L388.14 440.507V471.626L388.148 471.618ZM397.688 487.665L393.061 490.341C393.086 488.884 393.077 485.054 392.178 484.555C391.483 484.171 390.461 484.318 389.783 484.482V473.198L397.68 468.632V487.665H397.688ZM397.688 466.733L389.791 471.299V439.558L390.396 439.206V440.793L397.688 436.579V466.741V466.733ZM397.688 433.912L392.701 436.792V435.057V430.9L396.944 428.446V430.066L397.688 430.508V433.904V433.912ZM397.696 425.352L387.461 431.26V417.701L397.696 414.731V425.352Z" fill="#D4DBDF"/>
<path d="M389.332 486.642C388.302 487.239 388.359 488.72 388.359 488.72V488.819L387.468 489.334V487.305L386.046 488.123V490.701L384.623 491.519V498.065L387.468 496.42V492.943L388.359 492.427V492.525C388.359 492.525 388.302 494.072 389.332 493.475C390.362 492.877 391.286 490.611 391.229 488.966C391.286 487.256 390.362 486.053 389.332 486.642Z" fill="#414E52"/>
<path d="M341.435 497.959C341.394 497.885 341.369 497.787 341.369 497.664V470.472C341.369 470.039 341.672 469.523 342.04 469.302L386.774 443.559C386.913 443.477 387.044 443.453 387.15 443.477L385.147 442.323L344.361 465.784L341.999 468.582C341.835 468.779 341.647 468.934 341.459 469.04L340.617 469.531V494.882V497.492L341.427 497.959H341.435Z" fill="url(#paint36_linear_287_27873)"/>
<path style="mix-blend-mode:multiply" opacity="0.5" d="M388.122 471.618L385.302 473.247V460.71L372.598 467.862L372.034 466.856L367.758 469.36V470.677L366.082 471.626L366.033 470.317L361.807 472.772L361.267 474.4L343.429 484.915V498.024L340.625 499.644V494.89V469.54L341.467 469.049C341.655 468.942 341.835 468.779 342.007 468.59L344.369 465.792L388.122 440.499V471.618Z" fill="url(#paint37_linear_287_27873)"/>
<path d="M386.782 472.314C386.405 472.527 386.111 472.355 386.111 471.929V445.515L342.718 470.481V496.895C342.718 497.329 342.415 497.844 342.047 498.057C341.679 498.27 341.377 498.098 341.377 497.672V470.481C341.377 470.047 341.679 469.532 342.047 469.311L386.782 443.568C387.149 443.355 387.452 443.527 387.452 443.96V471.152C387.452 471.586 387.149 472.101 386.782 472.314Z" fill="#96D150"/>
<path d="M337.994 443.076V446.562L337.102 447.078V446.98C337.102 446.98 337.16 445.433 336.13 446.03C335.1 446.628 334.176 448.903 334.233 450.539C334.176 452.249 335.1 453.46 336.13 452.863C337.16 452.266 337.102 450.785 337.102 450.785V450.686L337.994 450.171V452.2L339.416 451.374V448.796L340.838 447.97V441.006L337.994 443.068V443.076Z" fill="#283539"/>
<path d="M325.584 510.675L70.8145 364.006V306.038L325.584 452.708V510.675Z" fill="#065380"/>
<path d="M338.377 442.782L133.068 325.006L118.025 333.213L325.583 452.708L338.377 442.782Z" fill="#508ECF"/>
<path d="M338.376 442.782L83.2148 296.407L86.0598 294.345L340.837 441.014L338.376 442.782Z" fill="#414E52"/>
<path d="M118.025 333.778L67.8867 304.77V64.3417L118.025 93.3499V333.778Z" fill="#065380"/>
<path d="M118.025 333.778L133.068 325.006V87.2126L118.025 93.3498V333.778Z" fill="#1872AE"/>
<path d="M135.789 326.447L133.066 325.006V87.2129L135.789 86.01V326.447Z" fill="#414E52"/>
<path d="M309.764 580L0.238281 401.131L54.987 369.488L309.764 516.436V580Z" fill="#4FC7B5"/>
<path d="M0 43.4182L0.237078 401.131L54.9858 369.488L54.994 75.1922L0 43.4182Z" fill="#4FC7B5"/>
<path d="M322.435 506.142L70.1593 360.913L54.9863 369.488L309.764 516.436L322.435 506.142Z" fill="#4DE0CA"/>
<path d="M322.435 506.142L67.6738 359.481L70.5106 357.41L325.28 504.08L322.435 506.142Z" fill="#414E52"/>
<path d="M70.159 360.913L54.9941 369.488V75.1922L70.159 69.3087V360.913Z" fill="#319B8B"/>
<path d="M70.1582 358.278L73.4446 362.246V67.9585L70.1582 69.3087V358.278Z" fill="#414E52"/>
<path d="M322.435 506.142V509.619L321.544 510.135V510.037C321.544 510.037 321.601 508.49 320.571 509.087C319.541 509.685 318.617 511.96 318.674 513.604C318.617 515.315 319.541 516.517 320.571 515.928C321.601 515.331 321.544 513.85 321.544 513.85V513.752L322.435 513.236V515.266L323.857 514.447V511.87L325.28 511.043V504.08L322.435 506.142Z" fill="#283539"/>
<path d="M132.583 87.4091L129.566 85.6661L128.675 86.1817L128.757 86.2308C128.757 86.2308 130.122 86.959 129.092 87.5482C128.062 88.1455 125.634 87.8101 124.236 86.9345C122.732 86.1326 122.143 84.7251 123.173 84.1278C124.203 83.5304 125.462 84.3242 125.462 84.3242L125.544 84.3733L126.435 83.8577L124.677 82.8431L126.1 82.0248L128.332 83.3177L129.754 82.4994L135.779 85.9771L132.575 87.4091H132.583Z" fill="#5B686C"/>
<path d="M70.241 69.3578L67.2244 67.6149L66.3333 68.1304L66.4151 68.1795C66.4151 68.1795 67.7803 68.9078 66.7502 69.5051C65.7202 70.1025 63.2922 69.7588 61.8942 68.8914C60.39 68.0895 59.8014 66.682 60.8315 66.0847C61.8615 65.4873 63.1205 66.2811 63.1205 66.2811L63.2022 66.3302L64.0933 65.8146L62.3357 64.8L63.7581 63.9817L65.99 65.2746L67.4124 64.4563L73.4375 67.934L70.2328 69.366L70.241 69.3578Z" fill="#5B686C"/>
<defs>
<linearGradient id="paint0_linear_287_27873" x1="201.361" y1="202.869" x2="254.86" y2="315.311" gradientUnits="userSpaceOnUse">
<stop stop-color="white"/>
<stop offset="0.54" stop-color="white"/>
<stop offset="1" stop-color="white"/>
</linearGradient>
<linearGradient id="paint1_linear_287_27873" x1="123.436" y1="21.3738" x2="123.436" y2="61.2651" gradientUnits="userSpaceOnUse">
<stop stop-color="white"/>
<stop offset="1"/>
</linearGradient>
<linearGradient id="paint2_linear_287_27873" x1="94.3088" y1="14.2545" x2="94.3088" y2="28.9673" gradientUnits="userSpaceOnUse">
<stop stop-color="white"/>
<stop offset="1"/>
</linearGradient>
<linearGradient id="paint3_linear_287_27873" x1="80.7696" y1="4.63154" x2="80.7696" y2="20.8172" gradientUnits="userSpaceOnUse">
<stop stop-color="white"/>
<stop offset="1"/>
</linearGradient>
<linearGradient id="paint4_linear_287_27873" x1="21.141" y1="38.9503" x2="21.141" y2="62.9751" gradientUnits="userSpaceOnUse">
<stop stop-color="white"/>
<stop offset="1"/>
</linearGradient>
<linearGradient id="paint5_linear_287_27873" x1="35.3011" y1="48.868" x2="35.3011" y2="67.664" gradientUnits="userSpaceOnUse">
<stop stop-color="white"/>
<stop offset="1"/>
</linearGradient>
<linearGradient id="paint6_linear_287_27873" x1="50.9398" y1="58.4746" x2="50.9398" y2="73.0319" gradientUnits="userSpaceOnUse">
<stop stop-color="white"/>
<stop offset="1"/>
</linearGradient>
<linearGradient id="paint7_linear_287_27873" x1="130.941" y1="17.4294" x2="125.514" y2="26.7616" gradientUnits="userSpaceOnUse">
<stop stop-color="white"/>
<stop offset="1"/>
</linearGradient>
<linearGradient id="paint8_linear_287_27873" x1="153.815" y1="30.5874" x2="146.515" y2="38.5833" gradientUnits="userSpaceOnUse">
<stop stop-color="white"/>
<stop offset="1"/>
</linearGradient>
<linearGradient id="paint9_linear_287_27873" x1="174.923" y1="38.9994" x2="165.948" y2="46.9938" gradientUnits="userSpaceOnUse">
<stop stop-color="white"/>
<stop offset="1"/>
</linearGradient>
<linearGradient id="paint10_linear_287_27873" x1="178.431" y1="42.96" x2="169.472" y2="50.9377" gradientUnits="userSpaceOnUse">
<stop stop-color="white"/>
<stop offset="1"/>
</linearGradient>
<linearGradient id="paint11_linear_287_27873" x1="180.433" y1="46.4458" x2="171.537" y2="56.666" gradientUnits="userSpaceOnUse">
<stop stop-color="white"/>
<stop offset="1"/>
</linearGradient>
<linearGradient id="paint12_linear_287_27873" x1="96.7453" y1="62.795" x2="88.0906" y2="82.1577" gradientUnits="userSpaceOnUse">
<stop stop-color="white"/>
<stop offset="1"/>
</linearGradient>
<linearGradient id="paint13_linear_287_27873" x1="115.809" y1="78.3506" x2="109.414" y2="94.8268" gradientUnits="userSpaceOnUse">
<stop stop-color="white"/>
<stop offset="1"/>
</linearGradient>
<linearGradient id="paint14_linear_287_27873" x1="138.707" y1="55.8316" x2="136.995" y2="75.0283" gradientUnits="userSpaceOnUse">
<stop stop-color="white"/>
<stop offset="1"/>
</linearGradient>
<linearGradient id="paint15_linear_287_27873" x1="68.1067" y1="34.6133" x2="69.1286" y2="34.6133" gradientUnits="userSpaceOnUse">
<stop stop-color="#66A120"/>
<stop offset="1" stop-color="#447120"/>
</linearGradient>
<linearGradient id="paint16_linear_287_27873" x1="86.1658" y1="40.0222" x2="75.56" y2="85.4816" gradientUnits="userSpaceOnUse">
<stop stop-color="white"/>
<stop offset="1"/>
</linearGradient>
<linearGradient id="paint17_linear_287_27873" x1="112.726" y1="57.7219" x2="110.232" y2="57.6566" gradientUnits="userSpaceOnUse">
<stop stop-color="#66A120"/>
<stop offset="1" stop-color="#447120"/>
</linearGradient>
<linearGradient id="paint18_linear_287_27873" x1="127.54" y1="32.6496" x2="112.749" y2="85.6017" gradientUnits="userSpaceOnUse">
<stop stop-color="white"/>
<stop offset="1"/>
</linearGradient>
<linearGradient id="paint19_linear_287_27873" x1="65.9163" y1="22.9283" x2="43.0438" y2="59.8872" gradientUnits="userSpaceOnUse">
<stop stop-color="white"/>
<stop offset="1"/>
</linearGradient>
<linearGradient id="paint20_linear_287_27873" x1="380.39" y1="515.315" x2="373.161" y2="502.809" gradientUnits="userSpaceOnUse">
<stop stop-color="white"/>
<stop offset="1"/>
</linearGradient>
<linearGradient id="paint21_linear_287_27873" x1="380.12" y1="530.518" x2="374.422" y2="520.663" gradientUnits="userSpaceOnUse">
<stop stop-color="white"/>
<stop offset="1"/>
</linearGradient>
<linearGradient id="paint22_linear_287_27873" x1="318.445" y1="530.379" x2="310.708" y2="516.99" gradientUnits="userSpaceOnUse">
<stop stop-color="white"/>
<stop offset="1"/>
</linearGradient>
<linearGradient id="paint23_linear_287_27873" x1="320.971" y1="549.74" x2="312.776" y2="535.557" gradientUnits="userSpaceOnUse">
<stop stop-color="white"/>
<stop offset="1"/>
</linearGradient>
<linearGradient id="paint24_linear_287_27873" x1="320.497" y1="565.058" x2="314.807" y2="555.202" gradientUnits="userSpaceOnUse">
<stop stop-color="white"/>
<stop offset="1"/>
</linearGradient>
<linearGradient id="paint25_linear_287_27873" x1="349.486" y1="515.29" x2="332.466" y2="485.821" gradientUnits="userSpaceOnUse">
<stop stop-color="white"/>
<stop offset="1"/>
</linearGradient>
<linearGradient id="paint26_linear_287_27873" x1="399.485" y1="486.642" x2="391.233" y2="472.37" gradientUnits="userSpaceOnUse">
<stop stop-color="white"/>
<stop offset="1"/>
</linearGradient>
<linearGradient id="paint27_linear_287_27873" x1="338.083" y1="494.432" x2="325.672" y2="472.946" gradientUnits="userSpaceOnUse">
<stop stop-color="white"/>
<stop offset="1"/>
</linearGradient>
<linearGradient id="paint28_linear_287_27873" x1="400.255" y1="465.252" x2="386.501" y2="441.451" gradientUnits="userSpaceOnUse">
<stop stop-color="white"/>
<stop offset="1"/>
</linearGradient>
<linearGradient id="paint29_linear_287_27873" x1="334.061" y1="467.028" x2="326.873" y2="454.596" gradientUnits="userSpaceOnUse">
<stop stop-color="white"/>
<stop offset="1"/>
</linearGradient>
<linearGradient id="paint30_linear_287_27873" x1="394.457" y1="426.367" x2="389.348" y2="417.526" gradientUnits="userSpaceOnUse">
<stop stop-color="white"/>
<stop offset="1"/>
</linearGradient>
<linearGradient id="paint31_linear_287_27873" x1="396.061" y1="434.82" x2="393.515" y2="430.403" gradientUnits="userSpaceOnUse">
<stop stop-color="white"/>
<stop offset="1"/>
</linearGradient>
<linearGradient id="paint32_linear_287_27873" x1="365.583" y1="452.446" x2="363.962" y2="449.641" gradientUnits="userSpaceOnUse">
<stop stop-color="white"/>
<stop offset="1"/>
</linearGradient>
<linearGradient id="paint33_linear_287_27873" x1="381.762" y1="489.833" x2="366.363" y2="463.194" gradientUnits="userSpaceOnUse">
<stop stop-color="white"/>
<stop offset="1"/>
</linearGradient>
<linearGradient id="paint34_linear_287_27873" x1="351.121" y1="525.699" x2="351.767" y2="524.578" gradientUnits="userSpaceOnUse">
<stop stop-color="#66A120"/>
<stop offset="1" stop-color="#447120"/>
</linearGradient>
<linearGradient id="paint35_linear_287_27873" x1="354.652" y1="545.321" x2="340.858" y2="521.455" gradientUnits="userSpaceOnUse">
<stop stop-color="white"/>
<stop offset="1"/>
</linearGradient>
<linearGradient id="paint36_linear_287_27873" x1="355.153" y1="474.49" x2="353.777" y2="477.312" gradientUnits="userSpaceOnUse">
<stop stop-color="#66A120"/>
<stop offset="1" stop-color="#447120"/>
</linearGradient>
<linearGradient id="paint37_linear_287_27873" x1="365.78" y1="472.502" x2="354.302" y2="452.643" gradientUnits="userSpaceOnUse">
<stop stop-color="white"/>
<stop offset="1"/>
</linearGradient>
</defs>
</svg>
