<svg width="239" height="119" viewBox="0 0 239 119" fill="none" xmlns="http://www.w3.org/2000/svg">
<path d="M91.0412 77.8902C111.221 57.9703 132.062 38.7376 152.22 18.799C156.078 14.9828 159.984 11.2003 163.559 7.11354C164.881 5.6028 168.827 2.39855 166.855 2.06755C163.545 1.51192 160.583 4.51962 157.626 6.11763C139.687 15.8119 112.897 32.9039 97.436 42.9003C71.9958 59.349 51.5577 72.9603 27.4892 90.638C21.5655 94.9888 15.7522 99.4981 10.0849 104.183C7.29451 106.489 -0.552908 111.022 2.83307 112.283C7.29225 113.942 11.9206 109.408 16.2819 107.502C50.616 92.5007 84.3922 76.1323 118.532 60.694C138.317 51.7472 177.449 33.8298 199.818 25.5713C205.787 23.3677 211.789 20.1921 218.145 20.2597C225.494 20.3379 212.056 34.0697 206.938 39.3813C182.264 64.9884 101.81 134.972 129.476 112.681C138.812 105.159 162.389 77.7411 153.934 86.256C143.8 96.4618 154.899 85.7057 142.99 98.0742C134.402 106.994 138.932 96.8904 140.287 90.1732C141.728 83.0357 144.397 71.8206 142.002 64.2129C141.367 62.199 139.55 60.436 137.585 59.6981C136.539 59.3056 134.087 60.5871 134.75 61.4908C138.575 66.7031 147.802 61.2661 153.934 59.2997C161.949 56.7298 183.038 44.1495 177.667 50.6684C176.405 52.2 174.084 53.1016 173.184 55.0505C172.365 56.8243 175.623 55.4947 175.623 56.6439C175.623 64.3824 164.986 69.9428 178.986 70.8524C181.763 71.0329 188.81 70.9565 187.029 73.1098C178.316 83.6396 156.732 90.0022 145.1 95.4848C140.111 97.8364 119.57 103.388 117.411 111.619C117.1 112.807 117.257 114.301 119.125 114.009C132.704 111.889 149.09 102.109 160.922 96.6799C186.357 85.0096 211.571 72.7995 237 61.1588" stroke="#002E5E" stroke-opacity="0.5" stroke-width="3" stroke-linecap="round"/>
</svg>
