<svg width="63" height="80" viewBox="0 0 63 80" fill="none" xmlns="http://www.w3.org/2000/svg">
<path d="M47.9659 14.1958C43.5444 9.10085 38.568 4.51301 33.1287 0.517061C32.6472 0.180525 32.0736 0 31.4857 0C30.8978 0 30.3242 0.180525 29.8427 0.517061C24.4134 4.51467 19.4467 9.10245 15.0341 14.1958C5.19392 25.4709 0 37.3567 0 48.5711C0 56.9066 3.31874 64.9006 9.22614 70.7947C15.1335 76.6888 23.1457 80 31.5 80C39.8543 80 47.8665 76.6888 53.7739 70.7947C59.6813 64.9006 63 56.9066 63 48.5711C63 37.3567 57.8061 25.4709 47.9659 14.1958ZM31.5 74.2857C24.667 74.2781 18.116 71.5665 13.2843 66.7457C8.45262 61.9249 5.73485 55.3887 5.72727 48.5711C5.72727 28.1316 25.583 11.0707 31.5 6.42783C37.417 11.0707 57.2727 28.1245 57.2727 48.5711C57.2651 55.3887 54.5474 61.9249 49.7157 66.7457C44.884 71.5665 38.333 74.2781 31.5 74.2857ZM51.5061 51.9069C50.7635 56.0451 48.768 59.8571 45.7883 62.8295C42.8085 65.8019 38.9875 67.792 34.8397 68.532C34.6823 68.5572 34.5231 68.5703 34.3636 68.5713C33.6453 68.5711 32.9533 68.3016 32.4248 67.8162C31.8964 67.3308 31.57 66.6649 31.5106 65.9507C31.4511 65.2364 31.6628 64.526 32.1038 63.9602C32.5447 63.3945 33.1827 63.0147 33.8911 62.8963C39.8224 61.8998 44.8553 56.8783 45.8611 50.9497C45.9883 50.2024 46.4079 49.536 47.0275 49.0973C47.6471 48.6586 48.416 48.4835 49.1651 48.6104C49.9141 48.7373 50.5819 49.1559 51.0216 49.7741C51.4613 50.3924 51.6369 51.1595 51.5097 51.9069H51.5061Z" fill="#002E5E"/>
</svg>
