<svg width="100" height="80" viewBox="0 0 100 80" fill="none" xmlns="http://www.w3.org/2000/svg">
<path d="M99.8329 3.28462C99.7853 2.46911 99.4398 1.69948 98.8622 1.12185C98.2846 0.544216 97.5149 0.198796 96.6994 0.151172C75.132 -1.09888 57.8146 5.4597 50.3727 17.7435C45.4558 25.8646 45.4642 35.7275 50.306 45.1362C47.5501 48.417 45.5359 52.2548 44.4016 56.3866L37.6222 49.5822C40.8807 42.7778 40.7557 35.6858 37.2055 29.794C31.7053 20.7144 19.009 15.8476 3.24593 16.7726C2.43042 16.8203 1.66079 17.1657 1.08315 17.7433C0.50552 18.3209 0.160101 19.0906 0.112476 19.9061C-0.816725 35.6692 4.05429 48.3655 13.1338 53.8657C16.13 55.6963 19.573 56.6651 23.0842 56.6658C26.4922 56.6238 29.8472 55.8164 32.9012 54.3032L43.3183 64.7203V76.6665C43.3183 77.5506 43.6695 78.3985 44.2946 79.0237C44.9198 79.6488 45.7676 80 46.6517 80C47.5358 80 48.3837 79.6488 49.0088 79.0237C49.634 78.3985 49.9852 77.5506 49.9852 76.6665V64.3786C49.9703 59.0755 51.775 53.9277 55.0979 49.7947C59.3853 52.0353 64.1403 53.2344 68.9776 53.2948C73.6543 53.3099 78.2442 52.0323 82.2406 49.603C94.5243 42.1694 101.1 24.8521 99.8329 3.28462ZM16.5714 48.1655C10.1795 44.2945 6.56272 35.1316 6.65022 23.3312C18.4507 23.2312 27.6135 26.8605 31.4845 33.2524C33.5054 36.5859 33.8346 40.4735 32.5095 44.4778L22.3383 34.3066C21.7081 33.7079 20.8689 33.379 19.9996 33.3901C19.1304 33.4012 18.2999 33.7515 17.6852 34.3662C17.0705 34.9809 16.7203 35.8114 16.7091 36.6806C16.698 37.5499 17.0269 38.3891 17.6256 39.0193L27.7968 49.1905C23.7925 50.5156 19.9091 50.1864 16.5714 48.1655ZM78.7863 43.907C73.2027 47.2863 66.64 47.5446 59.9731 44.7403L82.3447 22.3645C82.9435 21.7343 83.2723 20.8951 83.2612 20.0258C83.2501 19.1566 82.8998 18.3261 82.2851 17.7114C81.6705 17.0967 80.84 16.7465 79.9707 16.7353C79.1015 16.7242 78.2623 17.0531 77.632 17.6518L55.2562 39.9985C52.4394 33.3316 52.6936 26.7647 56.0896 21.1853C61.8981 11.6016 75.6736 6.25974 93.3118 6.67225C93.7118 24.3062 88.3783 38.0984 78.7863 43.907Z" fill="#002E5E"/>
</svg>
