<svg width="83" height="80" viewBox="0 0 83 80" fill="none" xmlns="http://www.w3.org/2000/svg">
<path d="M44.2412 3.07692V15.3846C44.2412 16.2007 43.9082 16.9833 43.3156 17.5603C42.723 18.1374 41.9192 18.4615 41.0811 18.4615C40.243 18.4615 39.4392 18.1374 38.8466 17.5603C38.2539 16.9833 37.921 16.2007 37.921 15.3846V3.07692C37.921 2.26087 38.2539 1.47824 38.8466 0.90121C39.4392 0.324175 40.243 0 41.0811 0C41.9192 0 42.723 0.324175 43.3156 0.90121C43.9082 1.47824 44.2412 2.26087 44.2412 3.07692ZM58.9553 25.6731C59.3707 25.6729 59.782 25.593 60.1656 25.4379C60.5492 25.2828 60.8977 25.0556 61.1911 24.7692L70.1301 16.0692C70.7231 15.4919 71.0562 14.7088 71.0562 13.8923C71.0562 13.0758 70.7231 12.2927 70.1301 11.7154C69.5372 11.138 68.733 10.8137 67.8944 10.8137C67.0558 10.8137 66.2516 11.138 65.6586 11.7154L56.7235 20.4192C56.2813 20.8493 55.98 21.3974 55.8577 21.9943C55.7355 22.5911 55.7977 23.2098 56.0366 23.7722C56.2755 24.3346 56.6803 24.8153 57.1998 25.1537C57.7194 25.492 58.3303 25.6728 58.9553 25.6731ZM79.0021 36.9231H66.3617C65.5236 36.9231 64.7199 37.2473 64.1272 37.8243C63.5346 38.4013 63.2017 39.1839 63.2017 40C63.2017 40.8161 63.5346 41.5987 64.1272 42.1757C64.7199 42.7528 65.5236 43.0769 66.3617 43.0769H79.0021C79.8402 43.0769 80.644 42.7528 81.2366 42.1757C81.8292 41.5987 82.1622 40.8161 82.1622 40C82.1622 39.1839 81.8292 38.4013 81.2366 37.8243C80.644 37.2473 79.8402 36.9231 79.0021 36.9231ZM61.1911 55.2308C60.5936 54.6781 59.7981 54.3745 58.974 54.3848C58.15 54.3951 57.3627 54.7184 56.78 55.2858C56.1972 55.8531 55.8652 56.6197 55.8547 57.4221C55.8441 58.2244 56.1559 58.999 56.7235 59.5808L65.6586 68.2846C66.2516 68.862 67.0558 69.1863 67.8944 69.1863C68.733 69.1863 69.5372 68.862 70.1301 68.2846C70.7231 67.7073 71.0562 66.9242 71.0562 66.1077C71.0562 65.2912 70.7231 64.5081 70.1301 63.9308L61.1911 55.2308ZM41.0811 61.5385C40.243 61.5385 39.4392 61.8626 38.8466 62.4397C38.2539 63.0167 37.921 63.7993 37.921 64.6154V76.9231C37.921 77.7391 38.2539 78.5218 38.8466 79.0988C39.4392 79.6758 40.243 80 41.0811 80C41.9192 80 42.723 79.6758 43.3156 79.0988C43.9082 78.5218 44.2412 77.7391 44.2412 76.9231V64.6154C44.2412 63.7993 43.9082 63.0167 43.3156 62.4397C42.723 61.8626 41.9192 61.5385 41.0811 61.5385ZM20.9711 55.2308L12.032 63.9308C11.4391 64.5081 11.1059 65.2912 11.1059 66.1077C11.1059 66.9242 11.4391 67.7073 12.032 68.2846C12.625 68.862 13.4292 69.1863 14.2678 69.1863C15.1063 69.1863 15.9106 68.862 16.5035 68.2846L25.4387 59.5808C26.0063 58.999 26.3181 58.2244 26.3075 57.4221C26.297 56.6197 25.9649 55.8531 25.3822 55.2858C24.7995 54.7184 24.0122 54.3951 23.1881 54.3848C22.3641 54.3745 21.5686 54.6781 20.9711 55.2308ZM18.9605 40C18.9605 39.1839 18.6276 38.4013 18.0349 37.8243C17.4423 37.2473 16.6385 36.9231 15.8004 36.9231H3.16008C2.32198 36.9231 1.5182 37.2473 0.925567 37.8243C0.332936 38.4013 0 39.1839 0 40C0 40.8161 0.332936 41.5987 0.925567 42.1757C1.5182 42.7528 2.32198 43.0769 3.16008 43.0769H15.8004C16.6385 43.0769 17.4423 42.7528 18.0349 42.1757C18.6276 41.5987 18.9605 40.8161 18.9605 40ZM16.5035 11.7154C15.9106 11.138 15.1063 10.8137 14.2678 10.8137C13.4292 10.8137 12.625 11.138 12.032 11.7154C11.4391 12.2927 11.1059 13.0758 11.1059 13.8923C11.1059 14.7088 11.4391 15.4919 12.032 16.0692L20.9711 24.7692C21.5686 25.3219 22.3641 25.6255 23.1881 25.6152C24.0122 25.6049 24.7995 25.2816 25.3822 24.7142C25.9649 24.1469 26.297 23.3803 26.3075 22.5779C26.3181 21.7756 26.0063 21.001 25.4387 20.4192L16.5035 11.7154Z" fill="#002E5E"/>
</svg>
