<svg width="100" height="80" viewBox="0 0 100 80" fill="none" xmlns="http://www.w3.org/2000/svg">
<path d="M63.3333 0H36.6667C34.0145 0 31.471 1.05357 29.5956 2.92893C27.7202 4.8043 26.6667 7.34784 26.6667 10V70C26.6667 72.6522 27.7202 75.1957 29.5956 77.0711C31.471 78.9464 34.0145 80 36.6667 80H63.3333C65.9855 80 68.529 78.9464 70.4044 77.0711C72.2798 75.1957 73.3333 72.6522 73.3333 70V10C73.3333 7.34784 72.2798 4.8043 70.4044 2.92893C68.529 1.05357 65.9855 0 63.3333 0ZM66.6667 70C66.6667 70.8841 66.3155 71.7319 65.6904 72.357C65.0652 72.9821 64.2174 73.3333 63.3333 73.3333H36.6667C35.7826 73.3333 34.9348 72.9821 34.3096 72.357C33.6845 71.7319 33.3333 70.8841 33.3333 70V10C33.3333 9.11594 33.6845 8.2681 34.3096 7.64298C34.9348 7.01786 35.7826 6.66667 36.6667 6.66667H63.3333C64.2174 6.66667 65.0652 7.01786 65.6904 7.64298C66.3155 8.2681 66.6667 9.11594 66.6667 10V70ZM86.6667 23.3333V56.6667C86.6667 57.5507 86.3155 58.3986 85.6904 59.0237C85.0652 59.6488 84.2174 60 83.3333 60C82.4493 60 81.6014 59.6488 80.9763 59.0237C80.3512 58.3986 80 57.5507 80 56.6667V23.3333C80 22.4493 80.3512 21.6014 80.9763 20.9763C81.6014 20.3512 82.4493 20 83.3333 20C84.2174 20 85.0652 20.3512 85.6904 20.9763C86.3155 21.6014 86.6667 22.4493 86.6667 23.3333ZM100 30V50C100 50.8841 99.6488 51.7319 99.0237 52.357C98.3986 52.9821 97.5507 53.3333 96.6667 53.3333C95.7826 53.3333 94.9348 52.9821 94.3096 52.357C93.6845 51.7319 93.3333 50.8841 93.3333 50V30C93.3333 29.1159 93.6845 28.2681 94.3096 27.643C94.9348 27.0179 95.7826 26.6667 96.6667 26.6667C97.5507 26.6667 98.3986 27.0179 99.0237 27.643C99.6488 28.2681 100 29.1159 100 30ZM20 23.3333V56.6667C20 57.5507 19.6488 58.3986 19.0237 59.0237C18.3986 59.6488 17.5507 60 16.6667 60C15.7826 60 14.9348 59.6488 14.3096 59.0237C13.6845 58.3986 13.3333 57.5507 13.3333 56.6667V23.3333C13.3333 22.4493 13.6845 21.6014 14.3096 20.9763C14.9348 20.3512 15.7826 20 16.6667 20C17.5507 20 18.3986 20.3512 19.0237 20.9763C19.6488 21.6014 20 22.4493 20 23.3333ZM6.66667 30V50C6.66667 50.8841 6.31548 51.7319 5.69036 52.357C5.06523 52.9821 4.21739 53.3333 3.33333 53.3333C2.44928 53.3333 1.60143 52.9821 0.976311 52.357C0.351189 51.7319 0 50.8841 0 50V30C0 29.1159 0.351189 28.2681 0.976311 27.643C1.60143 27.0179 2.44928 26.6667 3.33333 26.6667C4.21739 26.6667 5.06523 27.0179 5.69036 27.643C6.31548 28.2681 6.66667 29.1159 6.66667 30Z" fill="#002E5E"/>
</svg>
