<svg width="110" height="116" viewBox="0 0 110 116" fill="none" xmlns="http://www.w3.org/2000/svg">
<g clip-path="url(#clip0_287_23706)">
<path d="M20.5696 102.031C21.236 101.108 22.5327 100.899 23.441 101.575C24.3625 102.241 24.56 103.55 23.8935 104.467C23.2271 105.39 21.9403 105.594 21.0254 104.922C20.1039 104.251 19.9032 102.954 20.5696 102.031Z" fill="white"/>
<path d="M85.8582 11.5342C86.5246 10.6095 87.8131 10.4073 88.7263 11.0785C89.6528 11.7496 89.8502 13.0505 89.1838 13.9702C88.5174 14.8949 87.2223 15.1003 86.3124 14.4259C85.3942 13.7597 85.1934 12.4539 85.8599 11.5342H85.8582Z" fill="white"/>
<path d="M1.42374 73.3116C2.50155 72.9603 3.66986 73.5569 4.01542 74.6407C4.3692 75.7261 3.76859 76.8993 2.69408 77.2507C1.61627 77.602 0.456182 77.0054 0.107334 75.9216C-0.246451 74.8329 0.345932 73.6646 1.42374 73.3116Z" fill="white"/>
<path d="M107.065 38.7469C108.143 38.394 109.303 38.9922 109.652 40.0776C110.006 41.168 109.408 42.3363 108.335 42.6876C107.258 43.0406 106.089 42.4424 105.744 41.3569C105.385 40.2715 105.986 39.0982 107.063 38.7469H107.065Z" fill="white"/>
<path d="M2.69413 38.7476C3.767 39.1006 4.36432 40.2722 4.01054 41.3576C3.66004 42.448 2.49667 43.0396 1.41886 42.6883C0.34105 42.3353 -0.251334 41.1687 0.102451 40.0783C0.456235 38.9895 1.61961 38.3963 2.69413 38.7476Z" fill="white"/>
<path d="M108.332 73.3125C109.41 73.6638 110.003 74.8338 109.649 75.9225C109.3 77.0129 108.135 77.6045 107.057 77.2516C105.984 76.9002 105.387 75.727 105.741 74.6416C106.09 73.5561 107.255 72.9596 108.332 73.3125Z" fill="white"/>
<path d="M23.9019 11.5337C24.565 12.4584 24.3626 13.7593 23.4445 14.4254C22.5263 15.1016 21.2345 14.8928 20.5681 13.9697C19.9017 13.045 20.1074 11.7492 21.0256 11.078C21.9437 10.4069 23.2338 10.614 23.9019 11.5337Z" fill="white"/>
<path d="M89.1878 102.03C89.8542 102.953 89.6485 104.251 88.7303 104.922C87.8138 105.593 86.5254 105.386 85.8589 104.466C85.1974 103.543 85.3982 102.24 86.3164 101.574C87.2296 100.898 88.5214 101.107 89.1878 102.03Z" fill="white"/>
<path d="M56.9351 2.07143C56.9351 3.21154 56.0086 4.14286 54.8782 4.14286C53.7477 4.14286 52.8213 3.21154 52.8213 2.07143C52.8213 0.931314 53.7477 0 54.8782 0C56.0086 0 56.9351 0.931314 56.9351 2.07143Z" fill="white"/>
<path d="M56.9351 113.929C56.9351 115.067 56.0086 116 54.8782 116C53.7477 116 52.8213 115.067 52.8213 113.929C52.8213 112.79 53.7477 111.857 54.8782 111.857C56.0086 111.857 56.9351 112.79 56.9351 113.929Z" fill="white"/>
<path d="M54.8779 74.5714C45.803 74.5714 38.4229 67.1392 38.4229 58C38.4229 48.8609 45.803 41.4286 54.8779 41.4286C63.9529 41.4286 71.333 48.8609 71.333 58C71.333 67.1392 63.9529 74.5714 54.8779 74.5714ZM54.8779 45.5714C48.0738 45.5714 42.5366 51.1477 42.5366 58C42.5366 64.8523 48.0738 70.4286 54.8779 70.4286C61.6821 70.4286 67.2193 64.8523 67.2193 58C67.2193 51.1477 61.6821 45.5714 54.8779 45.5714Z" fill="white"/>
<path d="M44.8515 68.373L33.9121 83.5392C34.9652 84.4208 36.0924 85.208 37.2558 85.9553L48.2067 70.7726C46.9775 70.123 45.8371 69.3392 44.8498 68.373H44.8515Z" fill="white"/>
<path d="M22.9909 98.6739C22.3245 99.6019 22.5219 100.894 23.4401 101.569C24.3616 102.24 25.6451 102.03 26.3165 101.113L31.1954 94.3521C30.0468 93.5898 28.9378 92.7778 27.8665 91.9111L22.9909 98.6723V98.6739Z" fill="white"/>
<path d="M86.7627 17.3256C87.4292 16.3976 87.2317 15.105 86.3152 14.4306C85.3937 13.7594 84.1102 13.9699 83.4405 14.8863L78.5615 21.6474C79.7084 22.4097 80.8192 23.2217 81.8904 24.0868L86.7644 17.3256H86.7627Z" fill="white"/>
<path d="M64.907 47.6259L75.8463 32.4581C74.7932 31.5748 73.666 30.7894 72.5026 30.042L61.5518 45.2247C62.7777 45.876 63.918 46.6582 64.9086 47.6243L64.907 47.6259Z" fill="white"/>
<path d="M5.33953 72.0353C4.25679 72.3867 3.6644 73.5516 4.0149 74.6453C4.36868 75.7357 5.52877 76.324 6.60987 75.9744L14.5165 73.3859C14.0344 72.0967 13.6066 70.7875 13.2446 69.4502L5.33789 72.0353H5.33953Z" fill="white"/>
<path d="M40.7263 60.4523L23.0371 66.244C23.3794 67.5912 23.794 68.912 24.2959 70.1847L42.023 64.388C41.4142 63.1584 40.9666 61.8492 40.728 60.4523H40.7263Z" fill="white"/>
<path d="M69.0291 55.5469L86.7183 49.7551C86.376 48.4095 85.9614 47.0871 85.4595 45.8145L67.7324 51.6111C68.3413 52.8407 68.7888 54.1499 69.0274 55.5469H69.0291Z" fill="white"/>
<path d="M104.416 43.9638C105.499 43.6108 106.089 42.4475 105.741 41.3538C105.387 40.2634 104.227 39.6767 103.144 40.0231L95.2373 42.6115C95.7194 43.8991 96.1473 45.2083 96.5093 46.5472L104.416 43.9621V43.9638Z" fill="white"/>
<path d="M6.61011 40.0277C5.52736 39.6747 4.36728 40.268 4.01349 41.3534C3.663 42.4471 4.26032 43.6121 5.33484 43.9667L13.2448 46.5552C13.6068 45.2129 14.0264 43.8955 14.5168 42.6112L6.61011 40.026V40.0277Z" fill="white"/>
<path d="M42.0181 51.6111L24.291 45.8145C23.7892 47.0954 23.3745 48.4112 23.0322 49.7585L40.7215 55.5469C40.965 54.1515 41.4126 52.8424 42.0165 51.6111H42.0181Z" fill="white"/>
<path d="M104.419 72.0308L96.5073 69.4424C96.1453 70.7847 95.7257 72.1021 95.2354 73.3864L103.142 75.9715C104.225 76.3228 105.385 75.7312 105.739 74.6458C106.087 73.5521 105.495 72.3871 104.417 72.0308H104.419Z" fill="white"/>
<path d="M67.7373 64.388L85.4644 70.1847C85.9663 68.9038 86.3809 67.5863 86.7232 66.2407L69.034 60.454C68.7921 61.8493 68.3429 63.1584 67.739 64.3897L67.7373 64.388Z" fill="white"/>
<path d="M48.2057 45.2267L37.2499 30.0439C36.0931 30.7897 34.9627 31.5768 33.9062 32.4601L44.8489 47.6279C45.8362 46.6667 46.9798 45.8829 48.2057 45.2283V45.2267Z" fill="white"/>
<path d="M26.3199 14.8892C25.6502 13.9612 24.3618 13.754 23.4403 14.4252C22.5188 15.1013 22.3213 16.3972 22.9878 17.3202L27.8667 24.0813C28.9363 23.2146 30.0437 22.4026 31.1956 21.642L26.3199 14.8892Z" fill="white"/>
<path d="M83.4353 101.111C84.1066 102.039 85.3934 102.242 86.31 101.571C87.2315 100.895 87.4289 99.5992 86.7625 98.6762L81.8836 91.915C80.814 92.7801 79.7082 93.5937 78.5547 94.356L83.4336 101.112L83.4353 101.111Z" fill="white"/>
<path d="M61.5508 70.7729L72.5066 85.9573C73.6634 85.2116 74.7938 84.4244 75.8503 83.5412L64.9076 68.375C63.9203 69.3361 62.7767 70.1183 61.5508 70.7729Z" fill="white"/>
<path d="M56.9351 14.6041V6.21401C56.9351 5.07058 56.0136 4.14258 54.8782 4.14258C53.7428 4.14258 52.8213 5.07058 52.8213 6.21401V14.6041C53.5075 14.5759 54.1838 14.4997 54.8782 14.4997C55.5726 14.4997 56.2489 14.5743 56.9351 14.6041Z" fill="white"/>
<path d="M54.8782 43.4993C55.5808 43.4993 56.2555 43.607 56.9351 43.7098V24.9592C56.2522 24.9178 55.5742 24.8564 54.8782 24.8564C54.1821 24.8564 53.5042 24.9194 52.8213 24.9592V43.7048C53.4992 43.6054 54.1755 43.4976 54.8782 43.4976V43.4993Z" fill="white"/>
<path d="M52.8213 101.397V109.786C52.8213 110.929 53.7428 111.857 54.8782 111.857C56.0136 111.857 56.9351 110.929 56.9351 109.786V101.397C56.2489 101.426 55.5742 101.5 54.8782 101.5C54.1821 101.5 53.5075 101.426 52.8213 101.397Z" fill="white"/>
<path d="M54.8782 72.5002C54.1755 72.5002 53.4992 72.3925 52.8213 72.2881V91.0337C53.5042 91.0801 54.1838 91.1414 54.8782 91.1414C55.5726 91.1414 56.2522 91.0801 56.9351 91.0387V72.2931C56.2555 72.3925 55.5808 72.5002 54.8782 72.5002Z" fill="white"/>
<path d="M54.8785 103.572C29.9293 103.572 9.62695 83.1274 9.62695 58.0001C9.62695 53.2193 10.3625 48.508 11.8073 43.9923C12.1577 42.9019 13.3244 42.3103 14.3956 42.6583C15.4784 43.0113 16.0708 44.1746 15.7203 45.2633C14.4088 49.3648 13.7424 53.6485 13.7424 57.9985C13.7424 80.8422 32.1968 99.427 54.8801 99.427C77.5635 99.427 96.0179 80.8422 96.0179 57.9985C96.0179 35.1548 77.5635 16.5699 54.8801 16.5699C48.7917 16.5699 42.9255 17.8791 37.4542 20.4609C36.4307 20.9464 35.1998 20.4973 34.7193 19.4616C34.2388 18.4259 34.6831 17.1913 35.7116 16.7075C41.7341 13.8704 48.1812 12.4287 54.8818 12.4287C79.8326 12.4287 100.133 32.8729 100.133 58.0001C100.133 83.1274 79.8326 103.572 54.8818 103.572H54.8785ZM54.8785 93.2144C35.5964 93.2144 19.9114 77.4185 19.9114 58.0001C19.9114 38.5817 35.5964 22.7859 54.8785 22.7859C74.1605 22.7859 89.8455 38.5817 89.8455 58.0001C89.8455 77.4185 74.1605 93.2144 54.8785 93.2144ZM54.8785 26.9287C37.8639 26.9287 24.0252 40.8653 24.0252 58.0001C24.0252 75.135 37.8639 89.0716 54.8785 89.0716C71.893 89.0716 85.7318 75.135 85.7318 58.0001C85.7318 40.8653 71.893 26.9287 54.8785 26.9287ZM17.4431 38.358C17.0926 38.358 16.7388 38.2719 16.4147 38.0796C15.4323 37.5079 15.0933 36.2452 15.661 35.2509C18.8616 29.663 23.3011 24.728 28.496 20.9696C29.4175 20.2985 30.7043 20.5089 31.3674 21.4419C32.0306 22.3749 31.8167 23.6675 30.8985 24.3336C26.1709 27.7473 22.1312 32.2382 19.2203 37.3223C18.8467 37.9852 18.1507 38.358 17.4431 38.358Z" fill="white"/>
</g>
<defs>
<clipPath id="clip0_287_23706">
<rect width="109.754" height="116" fill="white"/>
</clipPath>
</defs>
</svg>
