<svg width="137" height="116" viewBox="0 0 137 116" fill="none" xmlns="http://www.w3.org/2000/svg">
<path d="M108.189 75.7043C106.835 76.1868 106.105 77.7585 106.555 79.2059L115.2 106.665C115.655 108.11 117.126 108.894 118.489 108.406C119.574 108.018 120.257 106.937 120.257 105.783C120.257 105.49 120.21 105.194 120.121 104.901L111.478 77.4448C111.02 75.9973 109.549 75.2189 108.192 75.7043L108.189 75.7043Z" fill="white"/>
<path d="M96.6204 75.7043C95.159 76.1868 94.373 77.7585 94.8601 79.2059L104.17 106.665C104.66 108.11 106.244 108.894 107.711 108.406C108.877 108.018 109.615 106.937 109.615 105.783C109.615 105.49 109.564 105.194 109.465 104.901L100.159 77.4448C99.6658 75.9973 98.0789 75.2189 96.6174 75.7043L96.6204 75.7043Z" fill="white"/>
<path d="M85.9758 75.7043C84.5142 76.1868 83.734 77.7585 84.2153 79.2059L93.5262 106.665C94.0164 108.11 95.6006 108.894 97.0683 108.406C98.237 108.018 98.9723 106.937 98.9723 105.783C98.9723 105.49 98.9215 105.194 98.8259 104.901L89.5179 77.4448C89.0247 75.9973 87.4405 75.2189 85.9788 75.7043L85.9758 75.7043Z" fill="white"/>
<path d="M72.1429 75.7043C70.6814 76.1868 69.8954 77.7585 70.3826 79.2059L79.6921 106.665C80.1822 108.11 81.7662 108.894 83.2306 108.406C84.3992 108.018 85.1374 106.937 85.1374 105.783C85.1374 105.49 85.0895 105.194 84.9909 104.901L75.6814 77.4448C75.1883 75.9973 73.6013 75.2189 72.1429 75.7043Z" fill="white"/>
<path d="M58.3069 75.7043C56.8454 76.1868 56.0623 77.7585 56.5465 79.2059L65.8567 106.665C66.3469 108.11 67.931 108.894 69.3955 108.406C70.5642 108.018 71.3024 106.937 71.3024 105.783C71.3024 105.49 71.2546 105.194 71.1559 104.901L61.8457 77.4448C61.3525 75.9973 59.7684 75.2189 58.3069 75.7043Z" fill="white"/>
<path d="M115.043 83.4302L120.718 103.298C121.067 104.519 122.182 105.357 123.448 105.357L133.381 105.357C134.951 105.357 136.22 104.085 136.22 102.521L136.22 82.6527C136.22 81.0856 134.951 79.8161 133.381 79.8161L117.773 79.8161C116.883 79.8161 116.042 80.2322 115.501 80.9429C114.97 81.6535 114.803 82.5768 115.043 83.4332L115.043 83.4302ZM130.542 85.4893L130.542 99.6812L125.586 99.6812L121.532 85.4893L130.542 85.4893Z" fill="white"/>
<path d="M61.725 102.521C61.725 102.145 61.6511 101.759 61.5004 101.401L53.2193 81.5349C52.785 80.4903 51.7865 79.8161 50.6815 79.8161L30.4293 79.8161C28.9019 79.8161 27.6699 81.0885 27.6699 82.6524L27.6699 102.521C27.6699 104.088 28.9049 105.357 30.4293 105.357L58.9626 105.357C59.8903 105.357 60.753 104.878 61.267 104.082C61.5713 103.611 61.722 103.065 61.722 102.518L61.725 102.521ZM33.1916 99.685L33.1916 85.4947L48.8646 85.4947L54.7792 99.685L33.1916 99.685Z" fill="white"/>
<path d="M2.65913 116L23.9464 116C25.4183 116 26.6055 114.769 26.6055 113.256L26.6055 72.9829C26.6055 71.4668 25.4154 70.2385 23.9464 70.2385L2.65912 70.2385C1.19006 70.2356 -1.94661e-06 71.4668 -1.88046e-06 72.98L-1.2009e-07 113.253C-5.36872e-08 114.772 1.19006 115.997 2.65913 115.997L2.65913 116ZM5.31825 110.508L5.31825 75.7273L21.2816 75.7273L21.2816 110.508L5.3211 110.508L5.31825 110.508Z" fill="white"/>
<path d="M67.3847 54.9659L89.0563 42.5203C89.9273 42.0188 90.459 41.0964 90.459 40.1023L90.459 15.232C90.459 14.2349 89.9273 13.3095 89.0563 12.8139L67.3847 0.374301C66.5166 -0.124242 65.4503 -0.124242 64.5792 0.374301L42.9076 12.8139C42.0395 13.3095 41.5049 14.2319 41.5049 15.232L41.5049 40.1023C41.5049 41.0964 42.0395 42.0188 42.9076 42.5203L64.5792 54.9659C65.4503 55.4645 66.5196 55.4645 67.3847 54.9659ZM47.1218 38.4932L47.1218 16.844L65.9879 6.01646L84.8511 16.844L84.8511 38.4932L65.9879 49.3268L47.1218 38.4932Z" fill="white"/>
<path d="M66.508 10.6422C57.4182 10.6422 50.0186 18.0419 50.0186 27.1376C50.0186 36.2334 57.4182 43.6331 66.508 43.6331C75.5978 43.6331 83.0094 36.2334 83.0094 27.1376C83.0094 18.0419 75.6038 10.6422 66.508 10.6422ZM66.508 38.0951C60.4669 38.0951 55.5506 33.1758 55.5506 27.1347C55.5506 21.0936 60.4669 16.1742 66.508 16.1742C72.5492 16.1742 77.4774 21.0906 77.4774 27.1347C77.4774 33.1758 72.558 38.0951 66.508 38.0951Z" fill="white"/>
</svg>
