<svg width="71" height="115" viewBox="0 0 71 115" fill="none" xmlns="http://www.w3.org/2000/svg">
<path d="M66.7405 96.5374C60.4551 107.742 48.3136 114.944 35.4951 115C22.6715 114.944 10.5351 107.747 4.24962 96.5374C0.727936 90.2667 -0.353327 84.1429 0.0963566 78.0748C0.657198 70.3909 3.65341 62.7881 7.22057 55.0839C7.27615 54.9522 31.4732 2.70481 31.4732 2.70481C32.2766 0.972515 33.8732 0.0759778 35.5001 0C37.1271 0.0759778 38.7237 0.972515 39.5271 2.70481C39.5271 2.70481 63.7241 54.9522 63.7797 55.0839C67.3469 62.7881 70.3431 70.3909 70.9039 78.0748C71.3536 84.1429 70.2673 90.2616 66.7506 96.5374H66.7405Z" fill="#67AFCE"/>
</svg>
