<svg width="64" height="133" viewBox="0 0 64 133" fill="none" xmlns="http://www.w3.org/2000/svg">
<path d="M51.1944 97.9551H15.9111V121.723C17.9352 123.487 24.6913 129.109 30.3403 130.786V131.887C30.3403 132.142 30.5899 132.354 30.8884 132.354H36.0761C36.3746 132.354 36.6188 132.148 36.6188 131.887V130.726C43.3531 128.74 50.5975 121.799 51.189 121.224V97.9605L51.1944 97.9551Z" fill="#67AFCE"/>
<path d="M58.4872 40.6611L10.0772 58.5035C6.65851 59.7625 2.98477 57.5105 1.91574 53.4949L0.8413 49.4738C-0.233152 45.4582 1.68783 41.1441 5.10654 39.8851L53.5165 22.0427C56.9353 20.7838 60.609 23.0358 61.678 27.0514L62.7525 31.0725C63.8269 35.0881 61.9059 39.4022 58.4872 40.6611Z" fill="#67AFCE"/>
<path d="M58.4921 64.8257C57.0758 65.3467 55.6595 65.8676 54.2486 66.3886C50.9981 67.5878 47.7422 68.7871 44.4917 69.9864C40.8831 71.3159 37.2745 72.6454 33.6712 73.9749C31.1913 74.8865 28.7114 75.8036 26.2315 76.7152C26.0036 76.7966 25.5477 76.8563 25.3632 77.0354C24.9291 77.4587 25.7811 78.137 26.0958 78.5277C26.0958 78.8479 27.1377 79.8138 27.3439 80.0688C27.7075 80.5138 28.0711 80.9534 28.4292 81.4038C32.7216 86.7652 32.6836 94.5414 32.8953 101.411C32.9549 103.343 31.3161 102.817 30.2362 102.556C28.4943 102.133 26.7416 101.715 25.0594 101.015C24.381 100.728 23.7027 100.397 22.9864 100.293C22.4546 100.223 21.9228 100.283 21.391 100.234C20.2135 100.147 19.101 99.5772 18.0157 99.0182C17.9289 98.9748 17.8475 98.9314 17.7769 98.8609C17.6467 98.7144 17.6142 98.4865 17.587 98.2748C17.1475 94.8724 16.111 91.5134 14.6404 88.5396C13.821 86.8791 12.5838 85.7124 11.2 84.7194C10.1798 83.9868 9.06738 83.4116 7.8844 83.1619C7.53168 83.086 7.17895 83.0371 6.83166 82.934C4.50368 82.2557 2.69665 80.3022 1.91523 77.6595L0.846219 73.6438C-0.228232 69.6282 1.69274 65.3141 5.10603 64.0497L53.516 46.2128C56.9347 44.9484 60.6085 47.2058 61.6829 51.216L62.752 55.2371C63.8264 59.2527 61.9054 63.5668 58.4921 64.8203V64.8257Z" fill="#67AFCE"/>
<path d="M52.3005 19.1997L17.5762 31.9954C14.1575 33.2544 10.4838 31.0023 9.41476 26.9867L8.34032 22.9657C7.26587 18.95 9.18685 14.636 12.6056 13.377L47.3244 0.586691C50.7431 -0.672262 54.4169 1.57974 55.4859 5.59537L56.5604 9.61642C57.6348 13.632 55.7139 17.9461 52.2951 19.2051L52.3005 19.1997Z" fill="#67AFCE"/>
<path d="M41.0144 78.9618C41.1989 78.5168 41.3834 78.0664 41.5679 77.6214C42.1268 76.2865 42.778 75.2012 43.9447 74.5717C45.2091 73.888 46.506 73.5841 47.8084 73.0903C49.2302 72.5531 50.6465 72.0104 52.0682 71.4732C52.5566 71.2887 53.0558 71.0987 53.5659 71.1367C54.4342 71.1964 54.9443 72.0647 55.3187 72.9003C57.0172 76.6935 56.6645 81.675 54.4559 85.072C51.8837 89.0334 50.017 93.2769 49.3875 98.2693C49.3604 98.481 49.3278 98.7089 49.1976 98.8554C49.1325 98.9314 49.0457 98.9748 48.9643 99.0182C47.879 99.5771 46.7665 100.147 45.5835 100.239C45.0517 100.283 44.5199 100.223 43.9935 100.299C43.2772 100.397 42.5989 100.728 41.9152 101.015C40.2384 101.715 38.4856 102.138 36.7383 102.562C36.1631 102.703 35.5879 102.838 34.9964 102.855C34.8662 102.855 34.7196 102.849 34.6274 102.741C34.5351 102.638 34.5243 102.469 34.5243 102.323C34.4917 100.798 34.6708 99.4198 35.0127 97.9438C36.5267 91.4211 38.5399 85.0666 41.0198 78.9672L41.0144 78.9618Z" fill="#67AFCE"/>
</svg>
