<svg width="117" height="117" viewBox="0 0 117 117" fill="none" xmlns="http://www.w3.org/2000/svg">
<g clip-path="url(#clip0_287_23874)">
<path d="M75.0797 1.07C74.3897 0.39 73.4597 0 72.4897 0H43.8397C42.8697 0 41.9297 0.39 41.2497 1.07C40.5597 1.76 40.1797 2.69 40.1797 3.66C40.1797 4.63 40.5697 5.56 41.2497 6.25C41.9397 6.94 42.8697 7.32 43.8397 7.32H72.4897C73.4597 7.32 74.3897 6.93 75.0797 6.25C75.7697 5.56 76.1497 4.63 76.1497 3.66C76.1497 2.69 75.7597 1.76 75.0797 1.07Z" fill="#002E5E"/>
<path d="M75.0797 110.07C74.3897 109.38 73.4597 109 72.4897 109H43.8397C42.8697 109 41.9397 109.39 41.2497 110.07C40.5597 110.76 40.1797 111.69 40.1797 112.66C40.1797 113.63 40.5697 114.56 41.2497 115.25C41.9397 115.94 42.8697 116.32 43.8397 116.32H72.4897C73.4597 116.32 74.3897 115.93 75.0797 115.25C75.7697 114.56 76.1497 113.63 76.1497 112.66C76.1497 111.69 75.7597 110.76 75.0797 110.07Z" fill="#002E5E"/>
<path d="M115.25 75.0797C115.94 74.3897 116.32 73.4597 116.32 72.4897V43.8397C116.32 42.8697 115.93 41.9397 115.25 41.2497C114.56 40.5597 113.63 40.1797 112.66 40.1797C111.69 40.1797 110.76 40.5697 110.07 41.2497C109.38 41.9397 109 42.8697 109 43.8397V72.4897C109 73.4597 109.39 74.3897 110.07 75.0797C110.76 75.7697 111.69 76.1497 112.66 76.1497C113.63 76.1497 114.56 75.7597 115.25 75.0797Z" fill="#002E5E"/>
<path d="M6.25 75.0797C6.94 74.3897 7.32 73.4597 7.32 72.4897V43.8397C7.32 42.8697 6.93 41.9397 6.25 41.2497C5.56 40.5597 4.63 40.1797 3.66 40.1797C2.69 40.1797 1.76 40.5697 1.07 41.2497C0.38 41.9397 0 42.8697 0 43.8397V72.4897C0 73.4597 0.39 74.3897 1.07 75.0797C1.76 75.7697 2.69 76.1497 3.66 76.1497C4.63 76.1497 5.56 75.7597 6.25 75.0797Z" fill="#002E5E"/>
<path d="M3.88016 22.33C4.87016 22.33 5.81016 21.94 6.51016 21.24C7.21016 20.54 7.60016 19.6 7.60016 18.61V7.44H18.7602C19.7502 7.44 20.6902 7.05 21.3902 6.35C22.0902 5.65 22.4802 4.71 22.4802 3.72C22.4802 2.73 22.0902 1.79 21.3902 1.09C20.6902 0.39 19.7502 0 18.7602 0H7.61016C5.64016 0 3.74016 0.78 2.35016 2.18C0.950156 3.58 0.160156 5.47 0.160156 7.44V18.6C0.160156 19.59 0.550156 20.53 1.25016 21.23C1.95016 21.93 2.89016 22.32 3.88016 22.32V22.33Z" fill="#002E5E"/>
<path d="M93.8398 3.72C93.8398 4.71 94.2298 5.65 94.9298 6.35C95.6298 7.05 96.5698 7.44 97.5598 7.44H108.72V18.6C108.72 19.59 109.11 20.53 109.81 21.23C110.51 21.93 111.45 22.32 112.44 22.32C113.43 22.32 114.37 21.93 115.07 21.23C115.77 20.53 116.16 19.59 116.16 18.6V7.44C116.16 5.47 115.38 3.57 113.98 2.18C112.58 0.78 110.69 0 108.72 0H97.5598C96.5698 0 95.6298 0.39 94.9298 1.09C94.2298 1.79 93.8398 2.73 93.8398 3.72Z" fill="#002E5E"/>
<path d="M112.44 93.67C111.45 93.67 110.51 94.06 109.81 94.76C109.11 95.46 108.72 96.4 108.72 97.39V108.55H97.5598C96.5698 108.55 95.6298 108.94 94.9298 109.64C94.2298 110.34 93.8398 111.28 93.8398 112.27C93.8398 113.26 94.2298 114.2 94.9298 114.9C95.6298 115.6 96.5698 115.99 97.5598 115.99H108.72C110.69 115.99 112.59 115.21 113.98 113.81C115.38 112.41 116.16 110.52 116.16 108.55V97.39C116.16 96.4 115.77 95.46 115.07 94.76C114.37 94.06 113.43 93.67 112.44 93.67Z" fill="#002E5E"/>
<path d="M22.4899 112.28C22.4899 111.29 22.0999 110.35 21.3999 109.65C20.6999 108.95 19.7599 108.56 18.7699 108.56H7.60992V97.3997C7.60992 96.4097 7.21992 95.4697 6.51992 94.7697C5.81992 94.0697 4.87992 93.6797 3.88992 93.6797C2.89992 93.6797 1.95992 94.0697 1.25992 94.7697C0.559922 95.4697 0.169922 96.4097 0.169922 97.3997V108.56C0.169922 110.53 0.949922 112.43 2.34992 113.82C3.74992 115.22 5.63992 116 7.60992 116H18.7699C19.7599 116 20.6999 115.61 21.3999 114.91C22.0999 114.21 22.4899 113.27 22.4899 112.28Z" fill="#002E5E"/>
<path d="M90.5803 25.5802C89.6703 24.6702 88.4403 24.1602 87.1603 24.1602H29.1603C27.8803 24.1602 26.6503 24.6702 25.7403 25.5802C24.8303 26.4902 24.3203 27.7202 24.3203 29.0002V87.0002C24.3203 88.2802 24.8303 89.5101 25.7403 90.4202C26.6503 91.3302 27.8803 91.8401 29.1603 91.8401H87.1603C88.4403 91.8401 89.6703 91.3302 90.5803 90.4202C91.4903 89.5101 92.0003 88.2802 92.0003 87.0002V29.0002C92.0003 27.7202 91.4903 26.4902 90.5803 25.5802ZM84.8403 84.6702H31.4903V31.3302H84.8403V84.6802V84.6702Z" fill="#002E5E"/>
</g>
<defs>
<clipPath id="clip0_287_23874">
<rect width="116.33" height="116.33" fill="white"/>
</clipPath>
</defs>
</svg>
