<svg width="108" height="113" viewBox="0 0 108 113" fill="none" xmlns="http://www.w3.org/2000/svg">
<path d="M107.372 78.6966C107.92 79.6216 108.069 80.7201 107.786 81.7516C107.503 82.7832 106.811 83.6637 105.862 84.2003L56.0444 112.451C55.4096 112.81 54.688 113 53.9531 113C53.2183 113 52.4966 112.81 51.8619 112.451L2.04458 84.2003C1.10892 83.6537 0.432362 82.7709 0.161388 81.7429C-0.109587 80.715 0.0468298 79.6246 0.596772 78.7079C1.14671 77.7913 2.04592 77.122 3.09972 76.8452C4.15351 76.5683 5.27708 76.706 6.22716 77.2286L53.9687 104.293L101.71 77.2286C102.662 76.6955 103.792 76.5508 104.853 76.8259C105.914 77.101 106.82 77.7737 107.372 78.6966ZM101.71 53.0141L53.9687 80.0788L6.22716 53.0141C5.2819 52.5566 4.19282 52.4664 3.18159 52.762C2.17035 53.0575 1.31298 53.7166 0.783962 54.605C0.254948 55.4934 0.0940587 56.5444 0.33404 57.544C0.574021 58.5437 1.19684 59.4169 2.07572 59.9859L51.893 88.2361C52.5278 88.5959 53.2494 88.7855 53.9843 88.7855C54.7191 88.7855 55.4408 88.5959 56.0756 88.2361L105.893 59.9859C106.371 59.7227 106.791 59.3698 107.128 58.9475C107.465 58.5253 107.713 58.0422 107.856 57.5263C108 57.0104 108.036 56.4719 107.964 55.9421C107.892 55.4124 107.712 54.9018 107.435 54.4402C107.158 53.9785 106.789 53.5749 106.35 53.2528C105.912 52.9308 105.412 52.6966 104.879 52.5639C104.347 52.4313 103.792 52.4027 103.248 52.48C102.704 52.5573 102.181 52.7388 101.71 53.0141ZM0 32.2855C0.0016556 31.5787 0.194263 30.8846 0.558545 30.2729C0.922827 29.6611 1.44601 29.1531 2.07572 28.7997L51.893 0.549469C52.5278 0.189612 53.2494 0 53.9843 0C54.7191 0 55.4408 0.189612 56.0756 0.549469L105.893 28.7997C106.52 29.1551 107.039 29.664 107.401 30.2756C107.762 30.8872 107.952 31.5802 107.952 32.2855C107.952 32.9909 107.762 33.6839 107.401 34.2955C107.039 34.9071 106.52 35.416 105.893 35.7714L56.0756 64.0216C55.4408 64.3815 54.7191 64.5711 53.9843 64.5711C53.2494 64.5711 52.5278 64.3815 51.893 64.0216L2.07572 35.7714C1.44601 35.418 0.922827 34.91 0.558545 34.2982C0.194263 33.6864 0.0016556 32.9924 0 32.2855ZM12.392 32.2855L53.9687 55.8644L95.5454 32.2855L53.9687 8.70671L12.392 32.2855Z" fill="#002E5E"/>
</svg>
