<svg width="96" height="116" viewBox="0 0 96 116" fill="none" xmlns="http://www.w3.org/2000/svg">
<g clip-path="url(#clip0_287_23867)">
<path d="M66.1608 85.3238C66.1608 86.2935 65.7802 87.2179 65.1005 87.8975C64.4208 88.5772 63.4964 88.9669 62.5358 88.9669H33.4814C32.5208 88.9669 31.5964 88.5863 30.9168 87.8975C30.2371 87.2179 29.8564 86.2844 29.8564 85.3238C29.8564 84.3632 30.2371 83.4297 30.9168 82.75C31.5964 82.0704 32.5208 81.6807 33.4814 81.6807H62.5358C63.4964 81.6807 64.4208 82.0613 65.1005 82.75C65.7802 83.4297 66.1608 84.3632 66.1608 85.3238Z" fill="#002E5E"/>
<path d="M62.527 67.1074H33.4727C32.512 67.1074 31.5877 67.488 30.908 68.1768C30.2283 68.8565 29.8477 69.7899 29.8477 70.7505C29.8477 71.7112 30.2283 72.6446 30.908 73.3243C31.5877 74.004 32.512 74.3937 33.4727 74.3937H62.527C63.4877 74.3937 64.412 74.013 65.0917 73.3243C65.7714 72.6355 66.152 71.7112 66.152 70.7505C66.152 69.7899 65.7714 68.8565 65.0917 68.1768C64.412 67.4971 63.4877 67.1074 62.527 67.1074Z" fill="#002E5E"/>
<path d="M62.527 52.6074H33.4727C32.512 52.6074 31.5877 52.988 30.908 53.6768C30.2283 54.3565 29.8477 55.2899 29.8477 56.2505C29.8477 57.2112 30.2283 58.1446 30.908 58.8243C31.5877 59.504 32.512 59.8937 33.4727 59.8937H62.527C63.4877 59.8937 64.412 59.5131 65.0917 58.8243C65.7714 58.1356 66.152 57.2112 66.152 56.2505C66.152 55.2899 65.7714 54.3565 65.0917 53.6768C64.412 52.9971 63.4877 52.6074 62.527 52.6074Z" fill="#002E5E"/>
<path d="M92.615 11.1106C91.0109 9.4975 88.8268 8.59125 86.5522 8.59125H67.1312C64.7206 5.89062 61.7753 3.72469 58.4765 2.2475C55.1778 0.770313 51.6071 0 47.9912 0C44.3753 0 40.8046 0.76125 37.5059 2.2475C34.2071 3.73375 31.2618 5.89062 28.8512 8.59125H9.43934C7.16465 8.59125 4.98965 9.4975 3.37652 11.1106C1.77246 12.7238 0.866211 14.9078 0.866211 17.1825V107.409C0.866211 109.692 1.77246 111.877 3.37652 113.49C4.98059 115.103 7.16465 116.009 9.43934 116.009H86.5522C88.8268 116.009 91.0018 115.103 92.615 113.49C94.219 111.877 95.1253 109.692 95.1253 107.409V17.1825C95.1253 14.9078 94.219 12.7147 92.615 11.1106ZM33.8718 12.1347C37.6146 8.37375 42.6987 6.27125 47.9912 6.27125C53.2837 6.27125 58.3678 8.38281 62.1197 12.1347C65.8625 15.8956 67.974 20.9888 67.974 26.2994H28.0265C28.0265 20.9888 30.129 15.8956 33.8809 12.1347H33.8718ZM88.7362 109.964H7.26434V14.6359H22.3987C21.3656 17.5541 20.84 20.6172 20.84 23.7166V28.2569C20.84 29.4622 21.3203 30.6131 22.1631 31.465C23.015 32.3169 24.1659 32.7972 25.3621 32.7972H70.6203C71.8165 32.7972 72.9675 32.3169 73.8193 31.465C74.6712 30.6131 75.1425 29.4622 75.1425 28.2569V23.7166C75.1425 20.6262 74.6168 17.5541 73.5837 14.6359H88.7181V109.955L88.7362 109.964Z" fill="#002E5E"/>
</g>
<defs>
<clipPath id="clip0_287_23867">
<rect width="94.25" height="116" fill="white" transform="translate(0.875)"/>
</clipPath>
</defs>
</svg>
