<svg width="148" height="116" viewBox="0 0 148 116" fill="none" xmlns="http://www.w3.org/2000/svg">
<g clip-path="url(#clip0_287_23693)">
<path fill-rule="evenodd" clip-rule="evenodd" d="M70.0141 0H7.73952C3.50856 0 0 3.48782 0 7.79113V108.209C0 112.529 3.46421 116 7.73952 116H140.069C144.3 116 147.808 112.512 147.808 108.209V7.79113C147.808 3.47129 144.344 0 140.069 0H77.7942V7.73419H140.028V108.268H77.7942V116.002H70.0141V108.268H7.78016V7.73419H70.0141V0ZM73.9032 77.3327C84.6451 77.3327 93.3509 68.6765 93.3509 58C93.3509 47.3235 84.6432 38.6673 73.9032 38.6673C63.1632 38.6673 54.4556 47.3235 54.4556 58C54.4556 68.6765 63.1632 77.3327 73.9032 77.3327Z" fill="#002E5E"/>
</g>
<defs>
<clipPath id="clip0_287_23693">
<rect width="147.806" height="116" fill="white"/>
</clipPath>
</defs>
</svg>
