<svg width="48" height="48" viewBox="0 0 48 48" fill="none" xmlns="http://www.w3.org/2000/svg">
<rect x="0.5" y="0.5" width="47" height="47" rx="23.5" stroke="white"/>
<g clip-path="url(#clip0_287_23755)">
<path d="M32.982 20.292C32.9398 19.3356 32.7852 18.6781 32.5636 18.1084C32.3351 17.5036 31.9834 16.9621 31.5227 16.512C31.0726 16.0549 30.5276 15.6997 29.9298 15.4747C29.3568 15.2531 28.7027 15.0985 27.7463 15.0563C26.7827 15.0106 26.4768 15 24.033 15C21.5892 15 21.2833 15.0106 20.3233 15.0527C19.3669 15.0949 18.7094 15.2497 18.1397 15.4711C17.5348 15.6997 16.9934 16.0513 16.5433 16.512C16.0861 16.9621 15.7311 17.5072 15.506 18.1049C15.2844 18.6781 15.1297 19.3321 15.0876 20.2885C15.0418 21.252 15.0312 21.5579 15.0312 24.0018C15.0312 26.4456 15.0418 26.7515 15.084 27.7115C15.1262 28.6679 15.281 29.3254 15.5025 29.8952C15.7311 30.4999 16.0861 31.0414 16.5433 31.4915C16.9934 31.9486 17.5384 32.3038 18.1362 32.5288C18.7094 32.7504 19.3633 32.905 20.3199 32.9472C21.2797 32.9895 21.5857 32.9999 24.0296 32.9999C26.4734 32.9999 26.7793 32.9895 27.7393 32.9472C28.6957 32.905 29.3532 32.7504 29.9228 32.5288C31.1325 32.0611 32.0889 31.1047 32.5566 29.8952C32.778 29.322 32.9328 28.6679 32.975 27.7115C33.0172 26.7515 33.0277 26.4456 33.0277 24.0018C33.0277 21.5579 33.0242 21.252 32.982 20.292ZM31.3611 27.6411C31.3223 28.5202 31.1747 28.9949 31.0516 29.3114C30.7491 30.0956 30.1268 30.7179 29.3426 31.0204C29.0262 31.1434 28.548 31.2911 27.6724 31.3297C26.723 31.372 26.4382 31.3824 24.0366 31.3824C21.6349 31.3824 21.3466 31.372 20.4006 31.3297C19.5215 31.2911 19.0468 31.1434 18.7304 31.0204C18.3401 30.8761 17.9849 30.6476 17.6966 30.3487C17.3978 30.0568 17.1692 29.7052 17.025 29.315C16.9019 28.9985 16.7542 28.5202 16.7156 27.6447C16.6733 26.6953 16.6629 26.4104 16.6629 24.0088C16.6629 21.6071 16.6733 21.3188 16.7156 20.373C16.7542 19.4939 16.9019 19.0192 17.025 18.7027C17.1692 18.3123 17.3978 17.9573 17.7002 17.6688C17.992 17.3699 18.3436 17.1414 18.7339 16.9973C19.0504 16.8742 19.5287 16.7266 20.4042 16.6878C21.3536 16.6457 21.6385 16.6351 24.04 16.6351C26.4452 16.6351 26.73 16.6457 27.6759 16.6878C28.555 16.7266 29.0297 16.8742 29.3462 16.9973C29.7364 17.1414 30.0916 17.3699 30.3799 17.6688C30.6788 17.9607 30.9074 18.3123 31.0516 18.7027C31.1747 19.0192 31.3223 19.4973 31.3611 20.373C31.4032 21.3224 31.4138 21.6071 31.4138 24.0088C31.4138 26.4104 31.4032 26.6917 31.3611 27.6411Z" fill="white"/>
<path d="M24.0331 19.3779C21.4804 19.3779 19.4092 21.449 19.4092 24.0019C19.4092 26.5548 21.4804 28.6258 24.0331 28.6258C26.586 28.6258 28.6571 26.5548 28.6571 24.0019C28.6571 21.449 26.586 19.3779 24.0331 19.3779ZM24.0331 27.0013C22.377 27.0013 21.0337 25.6581 21.0337 24.0019C21.0337 22.3456 22.377 21.0024 24.0331 21.0024C25.6894 21.0024 27.0326 22.3456 27.0326 24.0019C27.0326 25.6581 25.6894 27.0013 24.0331 27.0013Z" fill="white"/>
<path d="M29.9199 19.1947C29.9199 19.7908 29.4365 20.2742 28.8402 20.2742C28.2441 20.2742 27.7607 19.7908 27.7607 19.1947C27.7607 18.5985 28.2441 18.1152 28.8402 18.1152C29.4365 18.1152 29.9199 18.5985 29.9199 19.1947Z" fill="white"/>
</g>
<defs>
<clipPath id="clip0_287_23755">
<rect width="18" height="18" fill="white" transform="translate(15 15)"/>
</clipPath>
</defs>
</svg>
