<svg width="48" height="48" viewBox="0 0 48 48" fill="none" xmlns="http://www.w3.org/2000/svg">
<rect x="0.5" y="0.5" width="47" height="47" rx="23.5" stroke="white"/>
<path fill-rule="evenodd" clip-rule="evenodd" d="M30.4916 25.3832C31.0886 25.9662 31.7188 26.5146 32.2544 27.1564C32.4909 27.4415 32.7149 27.7358 32.8862 28.0668C33.129 28.5372 32.9091 29.0549 32.4873 29.083L29.865 29.0819C29.1886 29.138 28.6491 28.8657 28.1954 28.4033C27.8324 28.0335 27.4962 27.6399 27.147 27.2576C27.0039 27.1014 26.8541 26.9543 26.6752 26.8381C26.3172 26.6058 26.0065 26.6769 25.8019 27.0503C25.5935 27.43 25.5463 27.8505 25.5258 28.2737C25.4977 28.8912 25.3111 29.0535 24.6908 29.0818C23.3653 29.1443 22.1072 28.9438 20.9385 28.2751C19.9082 27.6855 19.1092 26.8533 18.4138 25.9112C17.0598 24.0766 16.0228 22.0606 15.0909 19.9882C14.8811 19.5213 15.0345 19.2707 15.5497 19.2618C16.4052 19.2452 17.2605 19.2464 18.117 19.2606C18.4647 19.2657 18.6949 19.4651 18.8291 19.7936C19.292 20.9316 19.8583 22.0144 20.5691 23.018C20.7585 23.2852 20.9515 23.5524 21.2264 23.7405C21.5305 23.9487 21.762 23.8797 21.9051 23.5409C21.9959 23.3261 22.0356 23.0948 22.0561 22.8647C22.1238 22.0732 22.1328 21.2831 22.0139 20.4944C21.9409 20.0022 21.6637 19.6835 21.1725 19.5904C20.9219 19.5429 20.9592 19.4496 21.0805 19.3066C21.2913 19.0598 21.4896 18.9062 21.8847 18.9062H24.8483C25.3149 18.9983 25.4185 19.2079 25.4824 19.6774L25.4849 22.9693C25.4798 23.1511 25.5757 23.6904 25.903 23.8107C26.165 23.8963 26.3377 23.6867 26.4949 23.5206C27.2045 22.7675 27.7109 21.8775 28.1633 20.9559C28.3641 20.5507 28.5367 20.1298 28.704 19.7093C28.828 19.3973 29.0225 19.2438 29.374 19.2506L32.2263 19.2531C32.3108 19.2531 32.3964 19.2544 32.4783 19.2684C32.959 19.3503 33.0907 19.557 32.9422 20.0264C32.7083 20.7627 32.2532 21.3764 31.8083 21.9929C31.3326 22.651 30.8239 23.2867 30.3522 23.9487C29.9188 24.5533 29.9532 24.8581 30.4916 25.3832Z" fill="white"/>
</svg>
